{
.appVersion = "919";
copyright = "Copyright (c) 2006-2012 by Jovanny Lemonad (jovanny.ru), with Reserved Font Name \"Cuprum\"";
customParameters = (
{
name = licenseURL;
value = "http://scripts.sil.org/OFL";
},
{
name = trademark;
value = "Cuprum is a trademark of Jovanny Lemonad.";
},
{
name = license;
value = "This Font Software is licensed under the SIL Open Font License, Version 1.1. This license is available with a FAQ at: http://scripts.sil.org/OFL";
}
);
date = "2016-09-02 12:49:20 +0000";
designer = "Jovanny Lemonad";
designerURL = "http://jovanny.ru";
familyName = Cuprum;
fontMaster = (
{
alignmentZones = (
"{700, 10}",
"{500, 10}",
"{-10, 10}",
"{-210, 10}"
);
ascender = 700;
capHeight = 700;
descender = -200;
horizontalStems = (
60,
55,
65,
70,
110,
130
);
id = UUID0;
verticalStems = (
90,
50,
65,
80
);
visible = 1;
weightValue = 0;
xHeight = 500;
},
{
alignmentZones = (
"{700, 10}",
"{500, 10}",
"{-10, 10}",
"{-210, 10}"
);
ascender = 700;
capHeight = 700;
descender = -200;
id = "2A85124F-80FE-40EA-AF86-869CC9CBC980";
weight = Bold;
xHeight = 500;
}
);
glyphs = (
{
color = 4;
glyphname = A;
lastChange = "2016-09-02 12:49:06 +0000";
layers = (
{
hints = (
{
horizontal = 1;
place = "{180, 70}";
},
{
horizontal = 1;
place = "{0, 21}";
target = up;
type = BottomGhost;
},
{
horizontal = 1;
place = "{700, -20}";
target = down;
type = TopGhost;
}
);
layerId = UUID0;
paths = (
{
closed = 1;
nodes = (
"355 180 LINE",
"400 0 LINE",
"490 0 LINE",
"320 700 LINE",
"190 700 LINE",
"20 0 LINE",
"110 0 LINE",
"155 180 LINE"
);
},
{
closed = 1;
nodes = (
"340 250 LINE",
"170 250 LINE",
"253 600 LINE",
"257 600 LINE"
);
}
);
width = 510;
},
{
hints = (
{
horizontal = 1;
place = "{175, 80}";
},
{
horizontal = 1;
place = "{0, 21}";
target = up;
type = BottomGhost;
},
{
horizontal = 1;
place = "{700, -20}";
target = down;
type = TopGhost;
}
);
layerId = "2A85124F-80FE-40EA-AF86-869CC9CBC980";
paths = (
{
closed = 1;
nodes = (
"356 175 LINE",
"400 0 LINE",
"525 0 LINE",
"345 700 LINE",
"195 700 LINE",
"15 0 LINE",
"140 0 LINE",
"184 175 LINE"
);
},
{
closed = 1;
nodes = (
"339 255 LINE",
"200 255 LINE",
"268 540 LINE",
"272 540 LINE"
);
}
);
width = 540;
}
);
leftKerningGroup = A;
rightKerningGroup = A;
unicode = 0041;
},
{
color = 4;
glyphname = Aacute;
lastChange = "2016-09-02 12:49:06 +0000";
layers = (
{
hints = (
{
horizontal = 1;
place = "{750, 130}";
},
{
horizontal = 1;
place = "{180, 70}";
},
{
horizontal = 1;
place = "{0, 21}";
target = up;
type = BottomGhost;
},
{
horizontal = 1;
place = "{700, -20}";
target = down;
type = TopGhost;
}
);
layerId = UUID0;
paths = (
{
closed = 1;
nodes = (
"355 180 LINE",
"400 0 LINE",
"490 0 LINE",
"320 700 LINE",
"190 700 LINE",
"20 0 LINE",
"110 0 LINE",
"155 180 LINE"
);
},
{
closed = 1;
nodes = (
"340 250 LINE",
"170 250 LINE",
"253 600 LINE",
"257 600 LINE"
);
},
{
closed = 1;
nodes = (
"280 750 LINE",
"350 880 LINE",
"255 880 LINE",
"220 750 LINE"
);
}
);
width = 510;
},
{
hints = (
{
horizontal = 1;
place = "{750, 130}";
},
{
horizontal = 1;
place = "{175, 80}";
},
{
horizontal = 1;
place = "{0, 21}";
target = up;
type = BottomGhost;
},
{
horizontal = 1;
place = "{700, -20}";
target = down;
type = TopGhost;
}
);
layerId = "2A85124F-80FE-40EA-AF86-869CC9CBC980";
paths = (
{
closed = 1;
nodes = (
"305 750 LINE",
"380 880 LINE",
"265 880 LINE",
"230 750 LINE"
);
},
{
closed = 1;
nodes = (
"356 175 LINE",
"400 0 LINE",
"525 0 LINE",
"345 700 LINE",
"195 700 LINE",
"15 0 LINE",
"140 0 LINE",
"184 175 LINE"
);
},
{
closed = 1;
nodes = (
"339 255 LINE",
"200 255 LINE",
"268 540 LINE",
"272 540 LINE"
);
}
);
width = 540;
}
);
leftKerningGroup = A;
rightKerningGroup = A;
unicode = 00C1;
},
{
color = 4;
glyphname = Acircumflex;
lastChange = "2016-09-02 12:49:06 +0000";
layers = (
{
hints = (
{
horizontal = 1;
place = "{180, 70}";
},
{
horizontal = 1;
place = "{0, 21}";
target = up;
type = BottomGhost;
},
{
horizontal = 1;
place = "{700, -20}";
target = down;
type = TopGhost;
},
{
horizontal = 1;
place = "{880, -20}";
target = down;
type = TopGhost;
}
);
layerId = UUID0;
paths = (
{
closed = 1;
nodes = (
"355 180 LINE",
"400 0 LINE",
"490 0 LINE",
"320 700 LINE",
"190 700 LINE",
"20 0 LINE",
"110 0 LINE",
"155 180 LINE"
);
},
{
closed = 1;
nodes = (
"340 250 LINE",
"170 250 LINE",
"253 600 LINE",
"257 600 LINE"
);
},
{
closed = 1;
nodes = (
"193 750 LINE",
"255 824 LINE",
"318 750 LINE",
"378 750 LINE",
"303 880 LINE",
"208 880 LINE",
"133 750 LINE"
);
}
);
width = 510;
},
{
hints = (
{
horizontal = 1;
place = "{175, 80}";
},
{
horizontal = 1;
place = "{880, -20}";
target = down;
type = TopGhost;
},
{
horizontal = 1;
place = "{0, 21}";
target = up;
type = BottomGhost;
},
{
horizontal = 1;
place = "{700, -20}";
target = down;
type = TopGhost;
}
);
layerId = "2A85124F-80FE-40EA-AF86-869CC9CBC980";
paths = (
{
closed = 1;
nodes = (
"214 750 LINE",
"270 820 LINE",
"326 750 LINE",
"403 750 LINE",
"323 880 LINE",
"218 880 LINE",
"138 750 LINE"
);
},
{
closed = 1;
nodes = (
"356 175 LINE",
"400 0 LINE",
"525 0 LINE",
"345 700 LINE",
"195 700 LINE",
"15 0 LINE",
"140 0 LINE",
"184 175 LINE"
);
},
{
closed = 1;
nodes = (
"339 255 LINE",
"200 255 LINE",
"268 540 LINE",
"272 540 LINE"
);
}
);
width = 540;
}
);
leftKerningGroup = A;
rightKerningGroup = A;
unicode = 00C2;
},
{
color = 4;
glyphname = Adieresis;
lastChange = "2016-09-02 12:49:06 +0000";
layers = (
{
hints = (
{
place = "{130, 90}";
},
{
place = "{290, 90}";
},
{
horizontal = 1;
place = "{760, 110}";
},
{
horizontal = 1;
place = "{180, 70}";
},
{
horizontal = 1;
place = "{0, 21}";
target = up;
type = BottomGhost;
},
{
horizontal = 1;
place = "{700, -20}";
target = down;
type = TopGhost;
}
);
layerId = UUID0;
paths = (
{
closed = 1;
nodes = (
"355 180 LINE",
"400 0 LINE",
"490 0 LINE",
"320 700 LINE",
"190 700 LINE",
"20 0 LINE",
"110 0 LINE",
"155 180 LINE"
);
},
{
closed = 1;
nodes = (
"340 250 LINE",
"170 250 LINE",
"253 600 LINE",
"257 600 LINE"
);
},
{
closed = 1;
nodes = (
"130 870 LINE",
"130 760 LINE",
"220 760 LINE",
"220 870 LINE"
);
},
{
closed = 1;
nodes = (
"290 870 LINE",
"290 760 LINE",
"380 760 LINE",
"380 870 LINE"
);
}
);
width = 510;
},
{
hints = (
{
place = "{135, 110}";
},
{
place = "{295, 110}";
},
{
horizontal = 1;
place = "{175, 80}";
},
{
horizontal = 1;
place = "{750, 120}";
},
{
horizontal = 1;
place = "{0, 21}";
target = up;
type = BottomGhost;
},
{
horizontal = 1;
place = "{700, -20}";
target = down;
type = TopGhost;
}
);
layerId = "2A85124F-80FE-40EA-AF86-869CC9CBC980";
paths = (
{
closed = 1;
nodes = (
"135 870 LINE",
"135 750 LINE",
"245 750 LINE",
"245 870 LINE"
);
},
{
closed = 1;
nodes = (
"295 870 LINE",
"295 750 LINE",
"405 750 LINE",
"405 870 LINE"
);
},
{
closed = 1;
nodes = (
"356 175 LINE",
"400 0 LINE",
"525 0 LINE",
"345 700 LINE",
"195 700 LINE",
"15 0 LINE",
"140 0 LINE",
"184 175 LINE"
);
},
{
closed = 1;
nodes = (
"339 255 LINE",
"200 255 LINE",
"268 540 LINE",
"272 540 LINE"
);
}
);
width = 540;
}
);
leftKerningGroup = A;
rightKerningGroup = A;
unicode = 00C4;
},
{
color = 4;
glyphname = Agrave;
lastChange = "2016-09-02 12:49:06 +0000";
layers = (
{
hints = (
{
horizontal = 1;
place = "{750, 130}";
},
{
horizontal = 1;
place = "{180, 70}";
},
{
horizontal = 1;
place = "{0, 21}";
target = up;
type = BottomGhost;
},
{
horizontal = 1;
place = "{700, -20}";
target = down;
type = TopGhost;
}
);
layerId = UUID0;
paths = (
{
closed = 1;
nodes = (
"355 180 LINE",
"400 0 LINE",
"490 0 LINE",
"320 700 LINE",
"190 700 LINE",
"20 0 LINE",
"110 0 LINE",
"155 180 LINE"
);
},
{
closed = 1;
nodes = (
"340 250 LINE",
"170 250 LINE",
"253 600 LINE",
"257 600 LINE"
);
},
{
closed = 1;
nodes = (
"290 750 LINE",
"255 880 LINE",
"160 880 LINE",
"230 750 LINE"
);
}
);
width = 510;
},
{
hints = (
{
horizontal = 1;
place = "{750, 130}";
},
{
horizontal = 1;
place = "{175, 80}";
},
{
horizontal = 1;
place = "{0, 21}";
target = up;
type = BottomGhost;
},
{
horizontal = 1;
place = "{700, -20}";
target = down;
type = TopGhost;
}
);
layerId = "2A85124F-80FE-40EA-AF86-869CC9CBC980";
paths = (
{
closed = 1;
nodes = (
"315 750 LINE",
"280 880 LINE",
"165 880 LINE",
"240 750 LINE"
);
},
{
closed = 1;
nodes = (
"356 175 LINE",
"400 0 LINE",
"525 0 LINE",
"345 700 LINE",
"195 700 LINE",
"15 0 LINE",
"140 0 LINE",
"184 175 LINE"
);
},
{
closed = 1;
nodes = (
"339 255 LINE",
"200 255 LINE",
"268 540 LINE",
"272 540 LINE"
);
}
);
width = 540;
}
);
leftKerningGroup = A;
rightKerningGroup = A;
unicode = 00C0;
},
{
color = 4;
glyphname = Amacron;
lastChange = "2016-09-02 12:49:06 +0000";
layers = (
{
hints = (
{
horizontal = 1;
place = "{770, 60}";
},
{
horizontal = 1;
place = "{180, 70}";
},
{
horizontal = 1;
place = "{0, 21}";
target = up;
type = BottomGhost;
},
{
horizontal = 1;
place = "{700, -20}";
target = down;
type = TopGhost;
}
);
layerId = UUID0;
paths = (
{
closed = 1;
nodes = (
"355 180 LINE",
"400 0 LINE",
"490 0 LINE",
"320 700 LINE",
"190 700 LINE",
"20 0 LINE",
"110 0 LINE",
"155 180 LINE"
);
},
{
closed = 1;
nodes = (
"340 250 LINE",
"170 250 LINE",
"253 600 LINE",
"257 600 LINE"
);
},
{
closed = 1;
nodes = (
"140 770 LINE",
"370 770 LINE",
"370 830 LINE",
"140 830 LINE"
);
}
);
width = 510;
},
{
hints = (
{
horizontal = 1;
place = "{760, 70}";
},
{
horizontal = 1;
place = "{175, 80}";
},
{
horizontal = 1;
place = "{0, 21}";
target = up;
type = BottomGhost;
},
{
horizontal = 1;
place = "{700, -20}";
target = down;
type = TopGhost;
}
);
layerId = "2A85124F-80FE-40EA-AF86-869CC9CBC980";
paths = (
{
closed = 1;
nodes = (
"150 760 LINE",
"390 760 LINE",
"390 830 LINE",
"150 830 LINE"
);
},
{
closed = 1;
nodes = (
"356 175 LINE",
"400 0 LINE",
"525 0 LINE",
"345 700 LINE",
"195 700 LINE",
"15 0 LINE",
"140 0 LINE",
"184 175 LINE"
);
},
{
closed = 1;
nodes = (
"339 255 LINE",
"200 255 LINE",
"268 540 LINE",
"272 540 LINE"
);
}
);
width = 540;
}
);
leftKerningGroup = A;
rightKerningGroup = A;
unicode = 0100;
},
{
color = 4;
glyphname = Aogonek;
lastChange = "2016-09-02 12:49:06 +0000";
layers = (
{
hints = (
{
place = "{385, 65}";
},
{
horizontal = 1;
place = "{-160, 56}";
},
{
horizontal = 1;
place = "{180, 70}";
},
{
horizontal = 1;
place = "{0, 21}";
target = up;
type = BottomGhost;
},
{
horizontal = 1;
place = "{700, -20}";
target = down;
type = TopGhost;
}
);
layerId = UUID0;
paths = (
{
closed = 1;
nodes = (
"400 0 LINE",
"410 0 LINE",
"410 0 OFFCURVE",
"385 -35 OFFCURVE",
"385 -80 CURVE SMOOTH",
"385 -130 OFFCURVE",
"415 -160 OFFCURVE",
"470 -160 CURVE SMOOTH",
"515 -160 OFFCURVE",
"545 -145 OFFCURVE",
"545 -145 CURVE",
"545 -104 LINE",
"510 -104 LINE SMOOTH",
"465 -104 OFFCURVE",
"450 -90 OFFCURVE",
"450 -45 CURVE SMOOTH",
"450 0 LINE",
"490 0 LINE",
"320 700 LINE",
"190 700 LINE",
"20 0 LINE",
"110 0 LINE",
"155 180 LINE",
"355 180 LINE"
);
},
{
closed = 1;
nodes = (
"340 250 LINE",
"170 250 LINE",
"253 600 LINE",
"257 600 LINE"
);
}
);
width = 510;
},
{
hints = (
{
place = "{393, 76}";
},
{
horizontal = 1;
place = "{-160, 60}";
},
{
horizontal = 1;
place = "{175, 80}";
},
{
horizontal = 1;
place = "{0, 21}";
target = up;
type = BottomGhost;
},
{
horizontal = 1;
place = "{700, -20}";
target = down;
type = TopGhost;
}
);
layerId = "2A85124F-80FE-40EA-AF86-869CC9CBC980";
paths = (
{
closed = 1;
nodes = (
"355 175 LINE",
"399 0 LINE",
"419 0 LINE",
"419 0 OFFCURVE",
"393 -30 OFFCURVE",
"393 -80 CURVE SMOOTH",
"393 -125 OFFCURVE",
"428 -160 OFFCURVE",
"483 -160 CURVE SMOOTH",
"528 -160 OFFCURVE",
"559 -145 OFFCURVE",
"559 -145 CURVE",
"559 -100 LINE",
"523 -100 LINE SMOOTH",
"488 -100 OFFCURVE",
"469 -80 OFFCURVE",
"469 -45 CURVE SMOOTH",
"469 0 LINE",
"524 0 LINE",
"344 700 LINE",
"194 700 LINE",
"14 0 LINE",
"139 0 LINE",
"183 175 LINE"
);
},
{
closed = 1;
nodes = (
"338 255 LINE",
"199 255 LINE",
"267 540 LINE",
"271 540 LINE"
);
}
);
width = 540;
}
);
leftKerningGroup = A;
rightKerningGroup = A;
unicode = 0104;
},
{
color = 4;
glyphname = Aring;
lastChange = "2016-09-02 12:49:06 +0000";
layers = (
{
hints = (
{
place = "{170, 50}";
},
{
place = "{290, 50}";
},
{
horizontal = 1;
place = "{845, 45}";
},
{
horizontal = 1;
place = "{730, 45}";
},
{
horizontal = 1;
place = "{180, 70}";
},
{
horizontal = 1;
place = "{0, 21}";
target = up;
type = BottomGhost;
},
{
horizontal = 1;
place = "{700, -20}";
target = down;
type = TopGhost;
}
);
layerId = UUID0;
paths = (
{
closed = 1;
nodes = (
"355 180 LINE",
"400 0 LINE",
"490 0 LINE",
"320 700 LINE",
"190 700 LINE",
"20 0 LINE",
"110 0 LINE",
"155 180 LINE"
);
},
{
closed = 1;
nodes = (
"340 250 LINE",
"170 250 LINE",
"253 600 LINE",
"257 600 LINE"
);
},
{
closed = 1;
nodes = (
"290 785 OFFCURVE",
"275 775 OFFCURVE",
"255 775 CURVE",
"235 775 OFFCURVE",
"220 785 OFFCURVE",
"220 810 CURVE",
"220 835 OFFCURVE",
"235 845 OFFCURVE",
"255 845 CURVE SMOOTH",
"275 845 OFFCURVE",
"290 835 OFFCURVE",
"290 810 CURVE"
);
},
{
closed = 1;
nodes = (
"340 860 OFFCURVE",
"305 890 OFFCURVE",
"255 890 CURVE SMOOTH",
"205 890 OFFCURVE",
"170 860 OFFCURVE",
"170 810 CURVE",
"170 760 OFFCURVE",
"205 730 OFFCURVE",
"255 730 CURVE",
"305 730 OFFCURVE",
"340 760 OFFCURVE",
"340 810 CURVE"
);
}
);
width = 510;
},
{
hints = (
{
place = "{175, 65}";
},
{
place = "{300, 65}";
},
{
horizontal = 1;
place = "{840, 55}";
},
{
horizontal = 1;
place = "{725, 55}";
},
{
horizontal = 1;
place = "{175, 80}";
},
{
horizontal = 1;
place = "{0, 21}";
target = up;
type = BottomGhost;
},
{
horizontal = 1;
place = "{700, -20}";
target = down;
type = TopGhost;
}
);
layerId = "2A85124F-80FE-40EA-AF86-869CC9CBC980";
paths = (
{
closed = 1;
nodes = (
"300 790 OFFCURVE",
"285 780 OFFCURVE",
"270 780 CURVE SMOOTH",
"255 780 OFFCURVE",
"240 790 OFFCURVE",
"240 810 CURVE SMOOTH",
"240 830 OFFCURVE",
"255 840 OFFCURVE",
"270 840 CURVE SMOOTH",
"285 840 OFFCURVE",
"300 830 OFFCURVE",
"300 810 CURVE SMOOTH"
);
},
{
closed = 1;
nodes = (
"365 860 OFFCURVE",
"325 895 OFFCURVE",
"270 895 CURVE SMOOTH",
"215 895 OFFCURVE",
"175 860 OFFCURVE",
"175 810 CURVE SMOOTH",
"175 760 OFFCURVE",
"215 725 OFFCURVE",
"270 725 CURVE SMOOTH",
"325 725 OFFCURVE",
"365 760 OFFCURVE",
"365 810 CURVE SMOOTH"
);
},
{
closed = 1;
nodes = (
"356 175 LINE",
"400 0 LINE",
"525 0 LINE",
"345 700 LINE",
"195 700 LINE",
"15 0 LINE",
"140 0 LINE",
"184 175 LINE"
);
},
{
closed = 1;
nodes = (
"339 255 LINE",
"200 255 LINE",
"268 540 LINE",
"272 540 LINE"
);
}
);
width = 540;
}
);
leftKerningGroup = A;
rightKerningGroup = A;
unicode = 00C5;
},
{
color = 4;
glyphname = Atilde;
lastChange = "2016-09-02 12:49:06 +0000";
layers = (
{
hints = (
{
place = "{130, 50}";
},
{
place = "{320, 50}";
},
{
horizontal = 1;
place = "{180, 70}";
},
{
horizontal = 1;
place = "{750, 60}";
},
{
horizontal = 1;
place = "{810, 60}";
},
{
horizontal = 1;
place = "{0, 21}";
target = up;
type = BottomGhost;
},
{
horizontal = 1;
place = "{700, -20}";
target = down;
type = TopGhost;
}
);
layerId = UUID0;
paths = (
{
closed = 1;
nodes = (
"355 180 LINE",
"400 0 LINE",
"490 0 LINE",
"320 700 LINE",
"190 700 LINE",
"20 0 LINE",
"110 0 LINE",
"155 180 LINE"
);
},
{
closed = 1;
nodes = (
"340 250 LINE",
"170 250 LINE",
"253 600 LINE",
"257 600 LINE"
);
},
{
closed = 1;
nodes = (
"370 765 LINE",
"370 840 OFFCURVE",
"345 870 OFFCURVE",
"295 870 CURVE SMOOTH",
"245 870 OFFCURVE",
"230 810 OFFCURVE",
"205 810 CURVE SMOOTH",
"190 810 OFFCURVE",
"180 825 OFFCURVE",
"180 855 CURVE",
"130 855 LINE",
"130 780 OFFCURVE",
"155 750 OFFCURVE",
"205 750 CURVE SMOOTH",
"255 750 OFFCURVE",
"270 810 OFFCURVE",
"295 810 CURVE SMOOTH",
"310 810 OFFCURVE",
"320 795 OFFCURVE",
"320 765 CURVE"
);
}
);
width = 510;
},
{
hints = (
{
place = "{140, 250}";
},
{
horizontal = 1;
place = "{175, 80}";
},
{
horizontal = 1;
place = "{745, 80}";
},
{
horizontal = 1;
place = "{795, 30}";
},
{
horizontal = 1;
place = "{795, 80}";
},
{
horizontal = 1;
place = "{0, 21}";
target = up;
type = BottomGhost;
},
{
horizontal = 1;
place = "{700, -20}";
target = down;
type = TopGhost;
}
);
layerId = "2A85124F-80FE-40EA-AF86-869CC9CBC980";
paths = (
{
closed = 1;
nodes = (
"390 755 LINE",
"390 845 OFFCURVE",
"360 875 OFFCURVE",
"315 875 CURVE SMOOTH",
"270 875 OFFCURVE",
"250 825 OFFCURVE",
"225 825 CURVE SMOOTH",
"210 825 OFFCURVE",
"200 840 OFFCURVE",
"200 865 CURVE",
"140 865 LINE",
"140 775 OFFCURVE",
"170 745 OFFCURVE",
"215 745 CURVE SMOOTH",
"260 745 OFFCURVE",
"280 795 OFFCURVE",
"305 795 CURVE SMOOTH",
"320 795 OFFCURVE",
"330 780 OFFCURVE",
"330 755 CURVE"
);
},
{
closed = 1;
nodes = (
"356 175 LINE",
"400 0 LINE",
"525 0 LINE",
"345 700 LINE",
"195 700 LINE",
"15 0 LINE",
"140 0 LINE",
"184 175 LINE"
);
},
{
closed = 1;
nodes = (
"339 255 LINE",
"200 255 LINE",
"268 540 LINE",
"272 540 LINE"
);
}
);
width = 540;
}
);
leftKerningGroup = A;
rightKerningGroup = A;
unicode = 00C3;
},
{
color = 4;
glyphname = AE;
lastChange = "2016-09-02 12:49:06 +0000";
layers = (
{
hints = (
{
place = "{351, 90}";
},
{
horizontal = 1;
place = "{0, 70}";
},
{
horizontal = 1;
place = "{180, 70}";
},
{
horizontal = 1;
place = "{330, 70}";
},
{
horizontal = 1;
place = "{630, 70}";
}
);
layerId = UUID0;
paths = (
{
closed = 1;
nodes = (
"0 0 LINE",
"90 0 LINE",
"152 180 LINE",
"351 180 LINE",
"351 0 LINE",
"691 0 LINE",
"691 70 LINE",
"441 70 LINE",
"441 330 LINE",
"661 330 LINE",
"661 400 LINE",
"441 400 LINE",
"441 630 LINE",
"691 630 LINE",
"691 700 LINE",
"240 700 LINE"
);
},
{
closed = 1;
nodes = (
"306 630 LINE",
"351 630 LINE",
"351 250 LINE",
"176 250 LINE"
);
}
);
width = 731;
},
{
hints = (
{
place = "{350, 120}";
},
{
horizontal = 1;
place = "{0, 80}";
},
{
horizontal = 1;
place = "{175, 80}";
},
{
horizontal = 1;
place = "{325, 80}";
},
{
horizontal = 1;
place = "{620, 80}";
}
);
layerId = "2A85124F-80FE-40EA-AF86-869CC9CBC980";
paths = (
{
closed = 1;
nodes = (
"0 0 LINE",
"119 0 LINE",
"180 175 LINE",
"350 175 LINE",
"350 0 LINE",
"715 0 LINE",
"715 80 LINE",
"470 80 LINE",
"470 325 LINE",
"685 325 LINE",
"685 405 LINE",
"470 405 LINE",
"470 620 LINE",
"715 620 LINE",
"715 700 LINE",
"240 700 LINE"
);
},
{
closed = 1;
nodes = (
"331 620 LINE",
"350 620 LINE",
"350 255 LINE",
"207 255 LINE"
);
}
);
width = 755;
}
);
leftKerningGroup = A;
rightKerningGroup = E;
unicode = 00C6;
},
{
color = 4;
glyphname = B;
lastChange = "2016-09-02 12:49:06 +0000";
layers = (
{
hints = (
{
place = "{70, 90}";
},
{
place = "{340, 90}";
},
{
place = "{370, 60}";
},
{
place = "{370, 90}";
},
{
horizontal = 1;
place = "{-10, 65}";
},
{
horizontal = 1;
place = "{335, 65}";
},
{
horizontal = 1;
place = "{645, 65}";
}
);
layerId = UUID0;
paths = (
{
closed = 1;
nodes = (
"350 377 LINE",
"410 410 OFFCURVE",
"430 465 OFFCURVE",
"430 525 CURVE SMOOTH",
"430 650 OFFCURVE",
"370 710 OFFCURVE",
"230 710 CURVE SMOOTH",
"170 710 OFFCURVE",
"120 705 OFFCURVE",
"70 690 CURVE",
"70 10 LINE",
"120 -5 OFFCURVE",
"170 -10 OFFCURVE",
"230 -10 CURVE SMOOTH",
"400 -10 OFFCURVE",
"460 50 OFFCURVE",
"460 190 CURVE SMOOTH",
"460 280 OFFCURVE",
"430 350 OFFCURVE",
"350 373 CURVE"
);
},
{
closed = 1;
nodes = (
"230 335 LINE",
"330 335 OFFCURVE",
"370 295 OFFCURVE",
"370 190 CURVE SMOOTH",
"370 94 OFFCURVE",
"330 55 OFFCURVE",
"230 55 CURVE SMOOTH",
"160 55 LINE",
"160 335 LINE"
);
},
{
closed = 1;
nodes = (
"160 400 LINE",
"160 645 LINE",
"220 645 LINE SMOOTH",
"300 645 OFFCURVE",
"340 605 OFFCURVE",
"340 525 CURVE SMOOTH",
"340 440 OFFCURVE",
"300 400 OFFCURVE",
"220 400 CURVE SMOOTH"
);
}
);
width = 500;
},
{
hints = (
{
place = "{70, 120}";
},
{
place = "{340, 125}";
},
{
place = "{370, 95}";
},
{
place = "{370, 125}";
},
{
horizontal = 1;
place = "{-10, 75}";
},
{
horizontal = 1;
place = "{330, 75}";
},
{
horizontal = 1;
place = "{635, 75}";
}
);
layerId = "2A85124F-80FE-40EA-AF86-869CC9CBC980";
paths = (
{
closed = 1;
nodes = (
"370 377 LINE",
"430 405 OFFCURVE",
"465 465 OFFCURVE",
"465 525 CURVE SMOOTH",
"465 640 OFFCURVE",
"395 710 OFFCURVE",
"245 710 CURVE SMOOTH",
"170 710 OFFCURVE",
"120 705 OFFCURVE",
"70 690 CURVE",
"70 10 LINE",
"120 -5 OFFCURVE",
"170 -10 OFFCURVE",
"245 -10 CURVE SMOOTH",
"425 -10 OFFCURVE",
"495 60 OFFCURVE",
"495 190 CURVE SMOOTH",
"495 280 OFFCURVE",
"450 345 OFFCURVE",
"370 373 CURVE"
);
},
{
closed = 1;
nodes = (
"245 330 LINE",
"330 330 OFFCURVE",
"370 290 OFFCURVE",
"370 195 CURVE SMOOTH",
"370 105 OFFCURVE",
"330 65 OFFCURVE",
"245 65 CURVE SMOOTH",
"190 65 LINE",
"190 330 LINE"
);
},
{
closed = 1;
nodes = (
"190 405 LINE",
"190 635 LINE",
"235 635 LINE SMOOTH",
"300 635 OFFCURVE",
"340 595 OFFCURVE",
"340 520 CURVE SMOOTH",
"340 445 OFFCURVE",
"300 405 OFFCURVE",
"235 405 CURVE SMOOTH"
);
}
);
width = 530;
}
);
leftKerningGroup = H;
rightKerningGroup = B;
unicode = 0042;
},
{
color = 4;
glyphname = C;
lastChange = "2016-09-02 12:49:06 +0000";
layers = (
{
hints = (
{
place = "{50, 90}";
},
{
horizontal = 1;
place = "{-10, 65}";
},
{
horizontal = 1;
place = "{645, 65}";
}
);
layerId = UUID0;
paths = (
{
closed = 1;
nodes = (
"330 -10 OFFCURVE",
"390 0 OFFCURVE",
"420 10 CURVE",
"420 55 LINE",
"290 55 LINE SMOOTH",
"200 55 OFFCURVE",
"140 115 OFFCURVE",
"140 350 CURVE SMOOTH",
"140 585 OFFCURVE",
"200 645 OFFCURVE",
"280 645 CURVE SMOOTH",
"410 645 LINE",
"410 690 LINE",
"380 700 OFFCURVE",
"320 710 OFFCURVE",
"260 710 CURVE SMOOTH",
"130 710 OFFCURVE",
"50 630 OFFCURVE",
"50 350 CURVE SMOOTH",
"50 70 OFFCURVE",
"130 -10 OFFCURVE",
"270 -10 CURVE SMOOTH"
);
}
);
width = 435;
},
{
hints = (
{
place = "{45, 120}";
},
{
horizontal = 1;
place = "{-10, 75}";
},
{
horizontal = 1;
place = "{635, 75}";
}
);
layerId = "2A85124F-80FE-40EA-AF86-869CC9CBC980";
paths = (
{
closed = 1;
nodes = (
"350 -10 OFFCURVE",
"410 0 OFFCURVE",
"440 10 CURVE",
"440 65 LINE",
"320 65 LINE SMOOTH",
"225 65 OFFCURVE",
"165 125 OFFCURVE",
"165 350 CURVE SMOOTH",
"165 575 OFFCURVE",
"225 635 OFFCURVE",
"310 635 CURVE SMOOTH",
"430 635 LINE",
"430 690 LINE",
"400 700 OFFCURVE",
"340 710 OFFCURVE",
"270 710 CURVE SMOOTH",
"125 710 OFFCURVE",
"45 630 OFFCURVE",
"45 350 CURVE SMOOTH",
"45 70 OFFCURVE",
"125 -10 OFFCURVE",
"280 -10 CURVE SMOOTH"
);
}
);
width = 455;
}
);
leftKerningGroup = O;
rightKerningGroup = C;
unicode = 0043;
},
{
color = 4;
glyphname = Cacute;
lastChange = "2016-09-02 12:49:06 +0000";
layers = (
{
hints = (
{
place = "{50, 90}";
},
{
horizontal = 1;
place = "{-10, 65}";
},
{
horizontal = 1;
place = "{645, 65}";
},
{
horizontal = 1;
place = "{750, 130}";
}
);
layerId = UUID0;
paths = (
{
closed = 1;
nodes = (
"330 -10 OFFCURVE",
"390 0 OFFCURVE",
"420 10 CURVE",
"420 55 LINE",
"290 55 LINE SMOOTH",
"200 55 OFFCURVE",
"140 115 OFFCURVE",
"140 350 CURVE SMOOTH",
"140 585 OFFCURVE",
"200 645 OFFCURVE",
"280 645 CURVE SMOOTH",
"410 645 LINE",
"410 690 LINE",
"380 700 OFFCURVE",
"320 710 OFFCURVE",
"260 710 CURVE SMOOTH",
"130 710 OFFCURVE",
"50 630 OFFCURVE",
"50 350 CURVE SMOOTH",
"50 70 OFFCURVE",
"130 -10 OFFCURVE",
"270 -10 CURVE SMOOTH"
);
},
{
closed = 1;
nodes = (
"290 750 LINE",
"360 880 LINE",
"265 880 LINE",
"230 750 LINE"
);
}
);
width = 435;
},
{
hints = (
{
place = "{45, 120}";
},
{
horizontal = 1;
place = "{-10, 75}";
},
{
horizontal = 1;
place = "{635, 75}";
},
{
horizontal = 1;
place = "{750, 130}";
}
);
layerId = "2A85124F-80FE-40EA-AF86-869CC9CBC980";
paths = (
{
closed = 1;
nodes = (
"350 -10 OFFCURVE",
"410 0 OFFCURVE",
"440 10 CURVE",
"440 65 LINE",
"320 65 LINE SMOOTH",
"225 65 OFFCURVE",
"165 125 OFFCURVE",
"165 350 CURVE SMOOTH",
"165 575 OFFCURVE",
"225 635 OFFCURVE",
"310 635 CURVE SMOOTH",
"430 635 LINE",
"430 690 LINE",
"400 700 OFFCURVE",
"340 710 OFFCURVE",
"270 710 CURVE SMOOTH",
"125 710 OFFCURVE",
"45 630 OFFCURVE",
"45 350 CURVE SMOOTH",
"45 70 OFFCURVE",
"125 -10 OFFCURVE",
"280 -10 CURVE SMOOTH"
);
},
{
closed = 1;
nodes = (
"300 750 LINE",
"375 880 LINE",
"260 880 LINE",
"225 750 LINE"
);
}
);
width = 455;
}
);
leftKerningGroup = O;
rightKerningGroup = C;
unicode = 0106;
},
{
color = 4;
glyphname = Ccaron;
lastChange = "2016-09-02 12:49:06 +0000";
layers = (
{
hints = (
{
place = "{50, 90}";
},
{
horizontal = 1;
place = "{-10, 65}";
},
{
horizontal = 1;
place = "{645, 65}";
},
{
horizontal = 1;
place = "{645, 245}";
}
);
layerId = UUID0;
paths = (
{
closed = 1;
nodes = (
"330 -10 OFFCURVE",
"390 0 OFFCURVE",
"420 10 CURVE",
"420 55 LINE",
"290 55 LINE SMOOTH",
"200 55 OFFCURVE",
"140 115 OFFCURVE",
"140 350 CURVE SMOOTH",
"140 585 OFFCURVE",
"200 645 OFFCURVE",
"280 645 CURVE SMOOTH",
"410 645 LINE",
"410 690 LINE",
"380 700 OFFCURVE",
"320 710 OFFCURVE",
"260 710 CURVE SMOOTH",
"130 710 OFFCURVE",
"50 630 OFFCURVE",
"50 350 CURVE SMOOTH",
"50 70 OFFCURVE",
"130 -10 OFFCURVE",
"270 -10 CURVE SMOOTH"
);
},
{
closed = 1;
nodes = (
"133 890 LINE",
"208 760 LINE",
"303 760 LINE",
"378 890 LINE",
"318 890 LINE",
"255 816 LINE",
"193 890 LINE"
);
}
);
width = 435;
},
{
hints = (
{
place = "{45, 120}";
},
{
horizontal = 1;
place = "{-10, 75}";
},
{
horizontal = 1;
place = "{635, 75}";
},
{
horizontal = 1;
place = "{890, -20}";
target = down;
type = TopGhost;
}
);
layerId = "2A85124F-80FE-40EA-AF86-869CC9CBC980";
paths = (
{
closed = 1;
nodes = (
"350 -10 OFFCURVE",
"410 0 OFFCURVE",
"440 10 CURVE",
"440 65 LINE",
"320 65 LINE SMOOTH",
"225 65 OFFCURVE",
"165 125 OFFCURVE",
"165 350 CURVE SMOOTH",
"165 575 OFFCURVE",
"225 635 OFFCURVE",
"310 635 CURVE SMOOTH",
"430 635 LINE",
"430 690 LINE",
"400 700 OFFCURVE",
"340 710 OFFCURVE",
"270 710 CURVE SMOOTH",
"125 710 OFFCURVE",
"45 630 OFFCURVE",
"45 350 CURVE SMOOTH",
"45 70 OFFCURVE",
"125 -10 OFFCURVE",
"280 -10 CURVE SMOOTH"
);
},
{
closed = 1;
nodes = (
"133 890 LINE",
"213 760 LINE",
"318 760 LINE",
"398 890 LINE",
"321 890 LINE",
"265 820 LINE",
"209 890 LINE"
);
}
);
width = 455;
}
);
leftKerningGroup = O;
rightKerningGroup = C;
unicode = 010C;
},
{
color = 4;
glyphname = Ccedilla;
lastChange = "2016-09-02 12:49:06 +0000";
layers = (
{
hints = (
{
place = "{50, 90}";
},
{
place = "{220, 150}";
},
{
place = "{305, 65}";
},
{
horizontal = 1;
place = "{-165, 45}";
},
{
horizontal = 1;
place = "{-70, 45}";
},
{
horizontal = 1;
place = "{-10, 65}";
},
{
horizontal = 1;
place = "{645, 65}";
}
);
layerId = UUID0;
paths = (
{
closed = 1;
nodes = (
"270 -25 LINE",
"270 -10 LINE",
"330 -10 OFFCURVE",
"390 0 OFFCURVE",
"420 10 CURVE",
"420 55 LINE",
"290 55 LINE SMOOTH",
"200 55 OFFCURVE",
"140 115 OFFCURVE",
"140 350 CURVE SMOOTH",
"140 585 OFFCURVE",
"200 645 OFFCURVE",
"280 645 CURVE SMOOTH",
"410 645 LINE",
"410 690 LINE",
"380 700 OFFCURVE",
"320 710 OFFCURVE",
"260 710 CURVE SMOOTH",
"130 710 OFFCURVE",
"50 630 OFFCURVE",
"50 350 CURVE SMOOTH",
"50 105 OFFCURVE",
"111 13 OFFCURVE",
"220 -6 CURVE",
"220 -70 LINE",
"275 -70 LINE SMOOTH",
"295 -70 OFFCURVE",
"305 -80 OFFCURVE",
"305 -95 CURVE SMOOTH",
"305 -110 OFFCURVE",
"295 -120 OFFCURVE",
"265 -120 CURVE SMOOTH",
"200 -120 LINE",
"200 -150 LINE",
"200 -150 OFFCURVE",
"230 -165 OFFCURVE",
"275 -165 CURVE SMOOTH",
"340 -165 OFFCURVE",
"370 -135 OFFCURVE",
"370 -95 CURVE SMOOTH",
"370 -55 OFFCURVE",
"340 -25 OFFCURVE",
"285 -25 CURVE SMOOTH"
);
}
);
width = 435;
},
{
hints = (
{
place = "{45, 120}";
},
{
place = "{220, 160}";
},
{
horizontal = 1;
place = "{-170, 49}";
},
{
horizontal = 1;
place = "{-79, 49}";
},
{
horizontal = 1;
place = "{-10, 75}";
},
{
horizontal = 1;
place = "{635, 75}";
}
);
layerId = "2A85124F-80FE-40EA-AF86-869CC9CBC980";
paths = (
{
closed = 1;
nodes = (
"285 -10 LINE SMOOTH",
"355 -10 OFFCURVE",
"410 0 OFFCURVE",
"440 10 CURVE",
"440 65 LINE",
"320 65 LINE SMOOTH",
"225 65 OFFCURVE",
"165 125 OFFCURVE",
"165 350 CURVE SMOOTH",
"165 575 OFFCURVE",
"225 635 OFFCURVE",
"310 635 CURVE SMOOTH",
"430 635 LINE",
"430 690 LINE",
"400 700 OFFCURVE",
"340 710 OFFCURVE",
"270 710 CURVE SMOOTH",
"125 710 OFFCURVE",
"45 630 OFFCURVE",
"45 350 CURVE SMOOTH",
"45 112 OFFCURVE",
"106 18 OFFCURVE",
"220 -4 CURVE",
"220 -79 LINE",
"275 -79 LINE SMOOTH",
"300 -79 OFFCURVE",
"305 -90 OFFCURVE",
"305 -100 CURVE SMOOTH",
"305 -111 OFFCURVE",
"300 -121 OFFCURVE",
"270 -121 CURVE SMOOTH",
"205 -121 LINE",
"205 -155 LINE",
"205 -155 OFFCURVE",
"230 -170 OFFCURVE",
"280 -170 CURVE SMOOTH",
"345 -170 OFFCURVE",
"380 -140 OFFCURVE",
"380 -100 CURVE SMOOTH",
"380 -60 OFFCURVE",
"350 -30 OFFCURVE",
"290 -30 CURVE SMOOTH",
"275 -30 LINE",
"275 -10 LINE"
);
}
);
width = 455;
}
);
leftKerningGroup = O;
rightKerningGroup = C;
unicode = 00C7;
},
{
color = 4;
glyphname = D;
lastChange = "2016-09-02 12:49:06 +0000";
layers = (
{
hints = (
{
place = "{70, 90}";
},
{
place = "{380, 90}";
},
{
horizontal = 1;
place = "{-10, 65}";
},
{
horizontal = 1;
place = "{645, 65}";
}
);
layerId = UUID0;
paths = (
{
closed = 1;
nodes = (
"470 630 OFFCURVE",
"390 710 OFFCURVE",
"230 710 CURVE SMOOTH",
"170 710 OFFCURVE",
"120 705 OFFCURVE",
"70 690 CURVE",
"70 10 LINE",
"120 -5 OFFCURVE",
"170 -10 OFFCURVE",
"230 -10 CURVE SMOOTH",
"390 -10 OFFCURVE",
"470 70 OFFCURVE",
"470 350 CURVE SMOOTH"
);
},
{
closed = 1;
nodes = (
"380 115 OFFCURVE",
"320 55 OFFCURVE",
"230 55 CURVE SMOOTH",
"160 55 LINE",
"160 645 LINE",
"230 645 LINE SMOOTH",
"320 645 OFFCURVE",
"380 585 OFFCURVE",
"380 350 CURVE SMOOTH"
);
}
);
width = 520;
},
{
hints = (
{
place = "{70, 120}";
},
{
place = "{380, 120}";
},
{
horizontal = 1;
place = "{-10, 75}";
},
{
horizontal = 1;
place = "{635, 75}";
}
);
layerId = "2A85124F-80FE-40EA-AF86-869CC9CBC980";
paths = (
{
closed = 1;
nodes = (
"500 620 OFFCURVE",
"410 710 OFFCURVE",
"245 710 CURVE SMOOTH",
"170 710 OFFCURVE",
"120 705 OFFCURVE",
"70 690 CURVE",
"70 10 LINE",
"120 -5 OFFCURVE",
"170 -10 OFFCURVE",
"245 -10 CURVE SMOOTH",
"410 -10 OFFCURVE",
"500 80 OFFCURVE",
"500 350 CURVE SMOOTH"
);
},
{
closed = 1;
nodes = (
"380 125 OFFCURVE",
"325 65 OFFCURVE",
"245 65 CURVE SMOOTH",
"190 65 LINE",
"190 635 LINE",
"245 635 LINE SMOOTH",
"325 635 OFFCURVE",
"380 575 OFFCURVE",
"380 350 CURVE SMOOTH"
);
}
);
width = 545;
}
);
leftKerningGroup = H;
rightKerningGroup = O;
unicode = 0044;
},
{
color = 4;
glyphname = Eth;
lastChange = "2016-09-02 12:49:06 +0000";
layers = (
{
hints = (
{
place = "{90, 90}";
},
{
place = "{400, 90}";
},
{
horizontal = 1;
place = "{-10, 65}";
},
{
horizontal = 1;
place = "{320, 70}";
},
{
horizontal = 1;
place = "{645, 65}";
}
);
layerId = UUID0;
paths = (
{
closed = 1;
nodes = (
"10 390 LINE",
"10 320 LINE",
"90 320 LINE",
"90 10 LINE",
"140 -5 OFFCURVE",
"190 -10 OFFCURVE",
"250 -10 CURVE SMOOTH",
"410 -10 OFFCURVE",
"490 70 OFFCURVE",
"490 350 CURVE SMOOTH",
"490 630 OFFCURVE",
"410 710 OFFCURVE",
"250 710 CURVE SMOOTH",
"190 710 OFFCURVE",
"140 705 OFFCURVE",
"90 690 CURVE",
"90 390 LINE"
);
},
{
closed = 1;
nodes = (
"400 115 OFFCURVE",
"340 55 OFFCURVE",
"250 55 CURVE SMOOTH",
"180 55 LINE",
"180 320 LINE",
"290 320 LINE",
"290 390 LINE",
"180 390 LINE",
"180 645 LINE",
"250 645 LINE SMOOTH",
"340 645 OFFCURVE",
"400 585 OFFCURVE",
"400 350 CURVE SMOOTH"
);
}
);
width = 540;
},
{
hints = (
{
place = "{85, 120}";
},
{
place = "{395, 120}";
},
{
horizontal = 1;
place = "{-10, 75}";
},
{
horizontal = 1;
place = "{315, 80}";
},
{
horizontal = 1;
place = "{635, 75}";
}
);
layerId = "2A85124F-80FE-40EA-AF86-869CC9CBC980";
paths = (
{
closed = 1;
nodes = (
"10 315 LINE",
"85 315 LINE",
"85 10 LINE",
"135 -5 OFFCURVE",
"185 -10 OFFCURVE",
"260 -10 CURVE SMOOTH",
"425 -10 OFFCURVE",
"515 80 OFFCURVE",
"515 350 CURVE SMOOTH",
"515 620 OFFCURVE",
"425 710 OFFCURVE",
"260 710 CURVE SMOOTH",
"185 710 OFFCURVE",
"135 705 OFFCURVE",
"85 690 CURVE",
"85 395 LINE",
"10 395 LINE"
);
},
{
closed = 1;
nodes = (
"395 125 OFFCURVE",
"340 65 OFFCURVE",
"260 65 CURVE",
"205 65 LINE",
"205 315 LINE",
"310 315 LINE",
"310 395 LINE",
"205 395 LINE",
"205 635 LINE",
"260 635 LINE",
"340 635 OFFCURVE",
"395 575 OFFCURVE",
"395 350 CURVE SMOOTH"
);
}
);
width = 560;
}
);
leftKerningGroup = Hbar;
rightKerningGroup = E;
unicode = 00D0;
},
{
color = 4;
glyphname = E;
lastChange = "2016-09-02 12:49:06 +0000";
layers = (
{
hints = (
{
place = "{70, 90}";
},
{
horizontal = 1;
place = "{0, 70}";
},
{
horizontal = 1;
place = "{330, 70}";
},
{
horizontal = 1;
place = "{630, 70}";
}
);
layerId = UUID0;
paths = (
{
closed = 1;
nodes = (
"160 330 LINE",
"380 330 LINE",
"380 400 LINE",
"160 400 LINE",
"160 630 LINE",
"410 630 LINE",
"410 700 LINE",
"70 700 LINE",
"70 0 LINE",
"410 0 LINE",
"410 70 LINE",
"160 70 LINE"
);
}
);
width = 450;
},
{
hints = (
{
place = "{70, 120}";
},
{
horizontal = 1;
place = "{0, 80}";
},
{
horizontal = 1;
place = "{325, 80}";
},
{
horizontal = 1;
place = "{620, 80}";
}
);
layerId = "2A85124F-80FE-40EA-AF86-869CC9CBC980";
paths = (
{
closed = 1;
nodes = (
"190 325 LINE",
"405 325 LINE",
"405 405 LINE",
"190 405 LINE",
"190 620 LINE",
"435 620 LINE",
"435 700 LINE",
"70 700 LINE",
"70 0 LINE",
"435 0 LINE",
"435 80 LINE",
"190 80 LINE"
);
}
);
width = 475;
}
);
leftKerningGroup = H;
rightKerningGroup = E;
unicode = 0045;
},
{
color = 4;
glyphname = Eacute;
lastChange = "2016-09-02 12:49:06 +0000";
layers = (
{
hints = (
{
place = "{70, 90}";
},
{
horizontal = 1;
place = "{0, 70}";
},
{
horizontal = 1;
place = "{330, 70}";
},
{
horizontal = 1;
place = "{630, 70}";
},
{
horizontal = 1;
place = "{750, 130}";
}
);
layerId = UUID0;
paths = (
{
closed = 1;
nodes = (
"160 330 LINE",
"380 330 LINE",
"380 400 LINE",
"160 400 LINE",
"160 630 LINE",
"410 630 LINE",
"410 700 LINE",
"70 700 LINE",
"70 0 LINE",
"410 0 LINE",
"410 70 LINE",
"160 70 LINE"
);
},
{
closed = 1;
nodes = (
"270 750 LINE",
"340 880 LINE",
"245 880 LINE",
"210 750 LINE"
);
}
);
width = 450;
},
{
hints = (
{
place = "{70, 120}";
},
{
horizontal = 1;
place = "{0, 80}";
},
{
horizontal = 1;
place = "{325, 80}";
},
{
horizontal = 1;
place = "{620, 80}";
},
{
horizontal = 1;
place = "{750, 130}";
}
);
layerId = "2A85124F-80FE-40EA-AF86-869CC9CBC980";
paths = (
{
closed = 1;
nodes = (
"190 325 LINE",
"405 325 LINE",
"405 405 LINE",
"190 405 LINE",
"190 620 LINE",
"435 620 LINE",
"435 700 LINE",
"70 700 LINE",
"70 0 LINE",
"435 0 LINE",
"435 80 LINE",
"190 80 LINE"
);
},
{
closed = 1;
nodes = (
"290 750 LINE",
"365 880 LINE",
"250 880 LINE",
"215 750 LINE"
);
}
);
width = 475;
}
);
leftKerningGroup = H;
rightKerningGroup = E;
unicode = 00C9;
},
{
color = 4;
glyphname = Ecircumflex;
lastChange = "2016-09-02 12:49:06 +0000";
layers = (
{
hints = (
{
place = "{70, 90}";
},
{
horizontal = 1;
place = "{0, 70}";
},
{
horizontal = 1;
place = "{330, 70}";
},
{
horizontal = 1;
place = "{630, 70}";
},
{
horizontal = 1;
place = "{630, 250}";
}
);
layerId = UUID0;
paths = (
{
closed = 1;
nodes = (
"160 330 LINE",
"380 330 LINE",
"380 400 LINE",
"160 400 LINE",
"160 630 LINE",
"410 630 LINE",
"410 700 LINE",
"70 700 LINE",
"70 0 LINE",
"410 0 LINE",
"410 70 LINE",
"160 70 LINE"
);
},
{
closed = 1;
nodes = (
"175 750 LINE",
"237 824 LINE",
"300 750 LINE",
"360 750 LINE",
"285 880 LINE",
"190 880 LINE",
"115 750 LINE"
);
}
);
width = 450;
},
{
hints = (
{
place = "{70, 120}";
},
{
horizontal = 1;
place = "{0, 80}";
},
{
horizontal = 1;
place = "{325, 80}";
},
{
horizontal = 1;
place = "{620, 80}";
},
{
horizontal = 1;
place = "{880, -20}";
target = down;
type = TopGhost;
}
);
layerId = "2A85124F-80FE-40EA-AF86-869CC9CBC980";
paths = (
{
closed = 1;
nodes = (
"190 325 LINE",
"405 325 LINE",
"405 405 LINE",
"190 405 LINE",
"190 620 LINE",
"435 620 LINE",
"435 700 LINE",
"70 700 LINE",
"70 0 LINE",
"435 0 LINE",
"435 80 LINE",
"190 80 LINE"
);
},
{
closed = 1;
nodes = (
"196 750 LINE",
"252 820 LINE",
"308 750 LINE",
"385 750 LINE",
"305 880 LINE",
"200 880 LINE",
"120 750 LINE"
);
}
);
width = 475;
}
);
leftKerningGroup = H;
rightKerningGroup = E;
unicode = 00CA;
},
{
color = 4;
glyphname = Edieresis;
lastChange = "2016-09-02 12:49:06 +0000";
layers = (
{
hints = (
{
place = "{70, 90}";
},
{
place = "{110, 90}";
},
{
place = "{270, 90}";
},
{
horizontal = 1;
place = "{0, 70}";
},
{
horizontal = 1;
place = "{330, 70}";
},
{
horizontal = 1;
place = "{630, 70}";
},
{
horizontal = 1;
place = "{770, 110}";
}
);
layerId = UUID0;
paths = (
{
closed = 1;
nodes = (
"160 330 LINE",
"380 330 LINE",
"380 400 LINE",
"160 400 LINE",
"160 630 LINE",
"410 630 LINE",
"410 700 LINE",
"70 700 LINE",
"70 0 LINE",
"410 0 LINE",
"410 70 LINE",
"160 70 LINE"
);
},
{
closed = 1;
nodes = (
"110 880 LINE",
"110 770 LINE",
"200 770 LINE",
"200 880 LINE"
);
},
{
closed = 1;
nodes = (
"270 880 LINE",
"270 770 LINE",
"360 770 LINE",
"360 880 LINE"
);
}
);
width = 450;
},
{
hints = (
{
place = "{70, 120}";
},
{
place = "{115, 110}";
},
{
place = "{275, 110}";
},
{
horizontal = 1;
place = "{0, 80}";
},
{
horizontal = 1;
place = "{325, 80}";
},
{
horizontal = 1;
place = "{620, 80}";
},
{
horizontal = 1;
place = "{760, 120}";
}
);
layerId = "2A85124F-80FE-40EA-AF86-869CC9CBC980";
paths = (
{
closed = 1;
nodes = (
"190 325 LINE",
"405 325 LINE",
"405 405 LINE",
"190 405 LINE",
"190 620 LINE",
"435 620 LINE",
"435 700 LINE",
"70 700 LINE",
"70 0 LINE",
"435 0 LINE",
"435 80 LINE",
"190 80 LINE"
);
},
{
closed = 1;
nodes = (
"115 880 LINE",
"115 760 LINE",
"225 760 LINE",
"225 880 LINE"
);
},
{
closed = 1;
nodes = (
"275 880 LINE",
"275 760 LINE",
"385 760 LINE",
"385 880 LINE"
);
}
);
width = 475;
}
);
leftKerningGroup = H;
rightKerningGroup = E;
unicode = 00CB;
},
{
color = 4;
glyphname = Edotaccent;
lastChange = "2016-09-02 12:49:06 +0000";
layers = (
{
hints = (
{
place = "{70, 90}";
},
{
place = "{200, 90}";
},
{
horizontal = 1;
place = "{0, 70}";
},
{
horizontal = 1;
place = "{330, 70}";
},
{
horizontal = 1;
place = "{630, 70}";
},
{
horizontal = 1;
place = "{770, 110}";
}
);
layerId = UUID0;
paths = (
{
closed = 1;
nodes = (
"160 330 LINE",
"380 330 LINE",
"380 400 LINE",
"160 400 LINE",
"160 630 LINE",
"410 630 LINE",
"410 700 LINE",
"70 700 LINE",
"70 0 LINE",
"410 0 LINE",
"410 70 LINE",
"160 70 LINE"
);
},
{
closed = 1;
nodes = (
"200 880 LINE",
"200 770 LINE",
"290 770 LINE",
"290 880 LINE"
);
}
);
width = 450;
},
{
hints = (
{
place = "{70, 120}";
},
{
place = "{205, 110}";
},
{
horizontal = 1;
place = "{0, 80}";
},
{
horizontal = 1;
place = "{325, 80}";
},
{
horizontal = 1;
place = "{620, 80}";
},
{
horizontal = 1;
place = "{760, 120}";
}
);
layerId = "2A85124F-80FE-40EA-AF86-869CC9CBC980";
paths = (
{
closed = 1;
nodes = (
"190 325 LINE",
"405 325 LINE",
"405 405 LINE",
"190 405 LINE",
"190 620 LINE",
"435 620 LINE",
"435 700 LINE",
"70 700 LINE",
"70 0 LINE",
"435 0 LINE",
"435 80 LINE",
"190 80 LINE"
);
},
{
closed = 1;
nodes = (
"205 880 LINE",
"205 760 LINE",
"315 760 LINE",
"315 880 LINE"
);
}
);
width = 475;
}
);
leftKerningGroup = H;
rightKerningGroup = E;
unicode = 0116;
},
{
color = 4;
glyphname = Egrave;
lastChange = "2016-09-02 12:49:06 +0000";
layers = (
{
hints = (
{
place = "{70, 90}";
},
{
horizontal = 1;
place = "{0, 70}";
},
{
horizontal = 1;
place = "{330, 70}";
},
{
horizontal = 1;
place = "{630, 70}";
},
{
horizontal = 1;
place = "{750, 130}";
}
);
layerId = UUID0;
paths = (
{
closed = 1;
nodes = (
"160 330 LINE",
"380 330 LINE",
"380 400 LINE",
"160 400 LINE",
"160 630 LINE",
"410 630 LINE",
"410 700 LINE",
"70 700 LINE",
"70 0 LINE",
"410 0 LINE",
"410 70 LINE",
"160 70 LINE"
);
},
{
closed = 1;
nodes = (
"280 750 LINE",
"245 880 LINE",
"150 880 LINE",
"220 750 LINE"
);
}
);
width = 450;
},
{
hints = (
{
place = "{70, 120}";
},
{
horizontal = 1;
place = "{0, 80}";
},
{
horizontal = 1;
place = "{325, 80}";
},
{
horizontal = 1;
place = "{620, 80}";
},
{
horizontal = 1;
place = "{750, 130}";
}
);
layerId = "2A85124F-80FE-40EA-AF86-869CC9CBC980";
paths = (
{
closed = 1;
nodes = (
"190 325 LINE",
"405 325 LINE",
"405 405 LINE",
"190 405 LINE",
"190 620 LINE",
"435 620 LINE",
"435 700 LINE",
"70 700 LINE",
"70 0 LINE",
"435 0 LINE",
"435 80 LINE",
"190 80 LINE"
);
},
{
closed = 1;
nodes = (
"305 750 LINE",
"270 880 LINE",
"155 880 LINE",
"230 750 LINE"
);
}
);
width = 475;
}
);
leftKerningGroup = H;
rightKerningGroup = E;
unicode = 00C8;
},
{
color = 4;
glyphname = Emacron;
lastChange = "2016-09-02 12:49:06 +0000";
layers = (
{
hints = (
{
place = "{70, 90}";
},
{
horizontal = 1;
place = "{0, 70}";
},
{
horizontal = 1;
place = "{330, 70}";
},
{
horizontal = 1;
place = "{630, 70}";
},
{
horizontal = 1;
place = "{770, 60}";
}
);
layerId = UUID0;
paths = (
{
closed = 1;
nodes = (
"160 330 LINE",
"380 330 LINE",
"380 400 LINE",
"160 400 LINE",
"160 630 LINE",
"410 630 LINE",
"410 700 LINE",
"70 700 LINE",
"70 0 LINE",
"410 0 LINE",
"410 70 LINE",
"160 70 LINE"
);
},
{
closed = 1;
nodes = (
"124 770 LINE",
"354 770 LINE",
"354 830 LINE",
"124 830 LINE"
);
}
);
width = 450;
},
{
hints = (
{
place = "{70, 120}";
},
{
horizontal = 1;
place = "{0, 80}";
},
{
horizontal = 1;
place = "{325, 80}";
},
{
horizontal = 1;
place = "{620, 80}";
},
{
horizontal = 1;
place = "{760, 70}";
}
);
layerId = "2A85124F-80FE-40EA-AF86-869CC9CBC980";
paths = (
{
closed = 1;
nodes = (
"190 325 LINE",
"405 325 LINE",
"405 405 LINE",
"190 405 LINE",
"190 620 LINE",
"435 620 LINE",
"435 700 LINE",
"70 700 LINE",
"70 0 LINE",
"435 0 LINE",
"435 80 LINE",
"190 80 LINE"
);
},
{
closed = 1;
nodes = (
"135 760 LINE",
"375 760 LINE",
"375 830 LINE",
"135 830 LINE"
);
}
);
width = 475;
}
);
leftKerningGroup = H;
rightKerningGroup = E;
unicode = 0112;
},
{
color = 4;
glyphname = Eogonek;
lastChange = "2016-09-02 12:49:06 +0000";
layers = (
{
hints = (
{
place = "{70, 90}";
},
{
place = "{300, 65}";
},
{
place = "{300, 110}";
},
{
horizontal = 1;
place = "{-160, 56}";
},
{
horizontal = 1;
place = "{0, 70}";
},
{
horizontal = 1;
place = "{330, 70}";
},
{
horizontal = 1;
place = "{630, 70}";
}
);
layerId = UUID0;
paths = (
{
closed = 1;
nodes = (
"325 0 LINE",
"325 0 OFFCURVE",
"300 -35 OFFCURVE",
"300 -80 CURVE SMOOTH",
"300 -130 OFFCURVE",
"330 -160 OFFCURVE",
"385 -160 CURVE SMOOTH",
"430 -160 OFFCURVE",
"460 -145 OFFCURVE",
"460 -145 CURVE",
"460 -104 LINE",
"425 -104 LINE SMOOTH",
"380 -104 OFFCURVE",
"365 -90 OFFCURVE",
"365 -45 CURVE SMOOTH",
"365 0 LINE",
"410 0 LINE",
"410 70 LINE",
"160 70 LINE",
"160 330 LINE",
"380 330 LINE",
"380 400 LINE",
"160 400 LINE",
"160 630 LINE",
"410 630 LINE",
"410 700 LINE",
"70 700 LINE",
"70 0 LINE"
);
}
);
width = 450;
},
{
hints = (
{
place = "{70, 120}";
},
{
place = "{309, 76}";
},
{
place = "{309, 126}";
},
{
horizontal = 1;
place = "{-160, 60}";
},
{
horizontal = 1;
place = "{0, 80}";
},
{
horizontal = 1;
place = "{325, 80}";
},
{
horizontal = 1;
place = "{620, 80}";
}
);
layerId = "2A85124F-80FE-40EA-AF86-869CC9CBC980";
paths = (
{
closed = 1;
nodes = (
"335 0 LINE",
"335 0 OFFCURVE",
"309 -30 OFFCURVE",
"309 -80 CURVE SMOOTH",
"309 -125 OFFCURVE",
"344 -160 OFFCURVE",
"399 -160 CURVE SMOOTH",
"444 -160 OFFCURVE",
"475 -145 OFFCURVE",
"475 -145 CURVE",
"475 -100 LINE",
"439 -100 LINE SMOOTH",
"404 -100 OFFCURVE",
"385 -80 OFFCURVE",
"385 -45 CURVE SMOOTH",
"385 0 LINE",
"435 0 LINE",
"435 80 LINE",
"190 80 LINE",
"190 325 LINE",
"405 325 LINE",
"405 405 LINE",
"190 405 LINE",
"190 620 LINE",
"435 620 LINE",
"435 700 LINE",
"70 700 LINE",
"70 0 LINE"
);
}
);
width = 465;
}
);
leftKerningGroup = H;
rightKerningGroup = E;
unicode = 0118;
},
{
color = 4;
glyphname = F;
lastChange = "2016-09-02 12:49:06 +0000";
layers = (
{
hints = (
{
place = "{70, 90}";
},
{
horizontal = 1;
place = "{315, 70}";
},
{
horizontal = 1;
place = "{630, 70}";
},
{
horizontal = 1;
place = "{0, 21}";
target = up;
type = BottomGhost;
}
);
layerId = UUID0;
paths = (
{
closed = 1;
nodes = (
"160 315 LINE",
"370 315 LINE",
"370 385 LINE",
"160 385 LINE",
"160 630 LINE",
"410 630 LINE",
"410 700 LINE",
"70 700 LINE",
"70 0 LINE",
"160 0 LINE"
);
}
);
width = 430;
},
{
hints = (
{
place = "{70, 120}";
},
{
horizontal = 1;
place = "{310, 80}";
},
{
horizontal = 1;
place = "{620, 80}";
},
{
horizontal = 1;
place = "{0, 21}";
target = up;
type = BottomGhost;
}
);
layerId = "2A85124F-80FE-40EA-AF86-869CC9CBC980";
paths = (
{
closed = 1;
nodes = (
"190 310 LINE",
"395 310 LINE",
"395 390 LINE",
"190 390 LINE",
"190 620 LINE",
"435 620 LINE",
"435 700 LINE",
"70 700 LINE",
"70 0 LINE",
"190 0 LINE"
);
}
);
width = 455;
}
);
leftKerningGroup = H;
rightKerningGroup = F;
unicode = 0046;
},
{
color = 4;
glyphname = G;
lastChange = "2016-09-02 12:49:06 +0000";
layers = (
{
hints = (
{
place = "{50, 90}";
},
{
place = "{350, 90}";
},
{
horizontal = 1;
place = "{-10, 65}";
},
{
horizontal = 1;
place = "{645, 65}";
}
);
layerId = UUID0;
paths = (
{
closed = 1;
nodes = (
"440 380 LINE",
"350 380 LINE",
"350 55 LINE",
"310 55 LINE SMOOTH",
"200 55 OFFCURVE",
"140 115 OFFCURVE",
"140 350 CURVE SMOOTH",
"140 585 OFFCURVE",
"200 645 OFFCURVE",
"290 645 CURVE SMOOTH",
"420 645 LINE",
"420 690 LINE",
"390 700 OFFCURVE",
"330 710 OFFCURVE",
"270 710 CURVE SMOOTH",
"130 710 OFFCURVE",
"50 630 OFFCURVE",
"50 350 CURVE SMOOTH",
"50 70 OFFCURVE",
"130 -10 OFFCURVE",
"290 -10 CURVE SMOOTH",
"350 -10 OFFCURVE",
"410 0 OFFCURVE",
"440 10 CURVE"
);
}
);
width = 500;
},
{
hints = (
{
place = "{45, 120}";
},
{
place = "{345, 120}";
},
{
horizontal = 1;
place = "{-10, 75}";
},
{
horizontal = 1;
place = "{635, 75}";
}
);
layerId = "2A85124F-80FE-40EA-AF86-869CC9CBC980";
paths = (
{
closed = 1;
nodes = (
"465 380 LINE",
"345 380 LINE",
"345 65 LINE",
"320 65 LINE SMOOTH",
"225 65 OFFCURVE",
"165 125 OFFCURVE",
"165 350 CURVE SMOOTH",
"165 575 OFFCURVE",
"225 635 OFFCURVE",
"310 635 CURVE SMOOTH",
"440 635 LINE",
"440 690 LINE",
"410 700 OFFCURVE",
"350 710 OFFCURVE",
"280 710 CURVE SMOOTH",
"125 710 OFFCURVE",
"45 630 OFFCURVE",
"45 350 CURVE SMOOTH",
"45 70 OFFCURVE",
"125 -10 OFFCURVE",
"300 -10 CURVE SMOOTH",
"375 -10 OFFCURVE",
"435 0 OFFCURVE",
"465 10 CURVE"
);
}
);
width = 525;
}
);
leftKerningGroup = O;
rightKerningGroup = C;
unicode = 0047;
},
{
color = 4;
glyphname = Gbreve;
lastChange = "2016-09-02 12:49:06 +0000";
layers = (
{
hints = (
{
place = "{50, 90}";
},
{
place = "{350, 90}";
},
{
horizontal = 1;
place = "{-10, 65}";
},
{
horizontal = 1;
place = "{645, 65}";
},
{
horizontal = 1;
place = "{760, 70}";
},
{
horizontal = 1;
place = "{875, -20}";
target = down;
type = TopGhost;
}
);
layerId = UUID0;
paths = (
{
closed = 1;
nodes = (
"440 380 LINE",
"350 380 LINE",
"350 55 LINE",
"310 55 LINE SMOOTH",
"200 55 OFFCURVE",
"140 115 OFFCURVE",
"140 350 CURVE SMOOTH",
"140 585 OFFCURVE",
"200 645 OFFCURVE",
"290 645 CURVE SMOOTH",
"420 645 LINE",
"420 690 LINE",
"390 700 OFFCURVE",
"330 710 OFFCURVE",
"270 710 CURVE SMOOTH",
"130 710 OFFCURVE",
"50 630 OFFCURVE",
"50 350 CURVE SMOOTH",
"50 70 OFFCURVE",
"130 -10 OFFCURVE",
"290 -10 CURVE SMOOTH",
"350 -10 OFFCURVE",
"410 0 OFFCURVE",
"440 10 CURVE"
);
},
{
closed = 1;
nodes = (
"225 830 OFFCURVE",
"190 855 OFFCURVE",
"170 875 CURVE",
"130 835 LINE",
"155 790 OFFCURVE",
"205 760 OFFCURVE",
"270 760 CURVE SMOOTH",
"335 760 OFFCURVE",
"385 790 OFFCURVE",
"410 835 CURVE",
"370 875 LINE",
"350 855 OFFCURVE",
"315 830 OFFCURVE",
"270 830 CURVE SMOOTH"
);
}
);
width = 505;
},
{
hints = (
{
place = "{45, 120}";
},
{
place = "{345, 120}";
},
{
horizontal = 1;
place = "{-10, 75}";
},
{
horizontal = 1;
place = "{635, 75}";
},
{
horizontal = 1;
place = "{755, 85}";
},
{
horizontal = 1;
place = "{885, -20}";
target = down;
type = TopGhost;
}
);
layerId = "2A85124F-80FE-40EA-AF86-869CC9CBC980";
paths = (
{
closed = 1;
nodes = (
"465 380 LINE",
"345 380 LINE",
"345 65 LINE",
"320 65 LINE SMOOTH",
"225 65 OFFCURVE",
"165 125 OFFCURVE",
"165 350 CURVE SMOOTH",
"165 575 OFFCURVE",
"225 635 OFFCURVE",
"310 635 CURVE SMOOTH",
"440 635 LINE",
"440 690 LINE",
"410 700 OFFCURVE",
"350 710 OFFCURVE",
"280 710 CURVE SMOOTH",
"125 710 OFFCURVE",
"45 630 OFFCURVE",
"45 350 CURVE SMOOTH",
"45 70 OFFCURVE",
"125 -10 OFFCURVE",
"300 -10 CURVE SMOOTH",
"375 -10 OFFCURVE",
"435 0 OFFCURVE",
"465 10 CURVE"
);
},
{
closed = 1;
nodes = (
"240 840 OFFCURVE",
"205 865 OFFCURVE",
"185 885 CURVE",
"135 835 LINE",
"165 785 OFFCURVE",
"215 755 OFFCURVE",
"280 755 CURVE SMOOTH",
"345 755 OFFCURVE",
"395 785 OFFCURVE",
"425 835 CURVE",
"375 885 LINE",
"355 865 OFFCURVE",
"320 840 OFFCURVE",
"280 840 CURVE SMOOTH"
);
}
);
width = 530;
}
);
leftKerningGroup = O;
rightKerningGroup = C;
unicode = 011E;
},
{
color = 4;
glyphname = Gcommaaccent;
lastChange = "2016-09-02 12:49:06 +0000";
layers = (
{
hints = (
{
place = "{50, 90}";
},
{
place = "{350, 90}";
},
{
horizontal = 1;
place = "{-220, 150}";
},
{
horizontal = 1;
place = "{-10, 65}";
},
{
horizontal = 1;
place = "{645, 65}";
}
);
layerId = UUID0;
paths = (
{
closed = 1;
nodes = (
"230 -220 LINE",
"290 -220 LINE",
"320 -70 LINE",
"230 -70 LINE"
);
},
{
closed = 1;
nodes = (
"440 380 LINE",
"350 380 LINE",
"350 55 LINE",
"310 55 LINE SMOOTH",
"200 55 OFFCURVE",
"140 115 OFFCURVE",
"140 350 CURVE SMOOTH",
"140 585 OFFCURVE",
"200 645 OFFCURVE",
"290 645 CURVE SMOOTH",
"420 645 LINE",
"420 690 LINE",
"390 700 OFFCURVE",
"330 710 OFFCURVE",
"270 710 CURVE SMOOTH",
"130 710 OFFCURVE",
"50 630 OFFCURVE",
"50 350 CURVE SMOOTH",
"50 70 OFFCURVE",
"130 -10 OFFCURVE",
"290 -10 CURVE SMOOTH",
"350 -10 OFFCURVE",
"410 0 OFFCURVE",
"440 10 CURVE"
);
}
);
width = 500;
},
{
hints = (
{
place = "{45, 120}";
},
{
place = "{345, 120}";
},
{
horizontal = 1;
place = "{-220, 150}";
},
{
horizontal = 1;
place = "{-10, 75}";
},
{
horizontal = 1;
place = "{635, 75}";
}
);
layerId = "2A85124F-80FE-40EA-AF86-869CC9CBC980";
paths = (
{
closed = 1;
nodes = (
"465 380 LINE",
"345 380 LINE",
"345 65 LINE",
"320 65 LINE SMOOTH",
"225 65 OFFCURVE",
"165 125 OFFCURVE",
"165 350 CURVE SMOOTH",
"165 575 OFFCURVE",
"225 635 OFFCURVE",
"310 635 CURVE SMOOTH",
"440 635 LINE",
"440 690 LINE",
"410 700 OFFCURVE",
"350 710 OFFCURVE",
"280 710 CURVE SMOOTH",
"125 710 OFFCURVE",
"45 630 OFFCURVE",
"45 350 CURVE SMOOTH",
"45 70 OFFCURVE",
"125 -10 OFFCURVE",
"300 -10 CURVE SMOOTH",
"375 -10 OFFCURVE",
"435 0 OFFCURVE",
"465 10 CURVE"
);
},
{
closed = 1;
nodes = (
"230 -220 LINE",
"305 -220 LINE",
"340 -70 LINE",
"230 -70 LINE"
);
}
);
width = 525;
}
);
leftKerningGroup = O;
rightKerningGroup = C;
unicode = 0122;
},
{
color = 4;
glyphname = H;
lastChange = "2016-09-02 12:49:06 +0000";
layers = (
{
hints = (
{
place = "{70, 90}";
},
{
place = "{370, 90}";
},
{
horizontal = 1;
place = "{320, 70}";
},
{
horizontal = 1;
place = "{700, -20}";
target = down;
type = TopGhost;
},
{
horizontal = 1;
place = "{0, 21}";
target = up;
type = BottomGhost;
}
);
layerId = UUID0;
paths = (
{
closed = 1;
nodes = (
"370 700 LINE",
"370 390 LINE",
"160 390 LINE",
"160 700 LINE",
"70 700 LINE",
"70 0 LINE",
"160 0 LINE",
"160 320 LINE",
"370 320 LINE",
"370 0 LINE",
"460 0 LINE",
"460 700 LINE"
);
}
);
width = 530;
},
{
hints = (
{
place = "{70, 120}";
},
{
place = "{370, 120}";
},
{
horizontal = 1;
place = "{315, 80}";
},
{
horizontal = 1;
place = "{700, -20}";
target = down;
type = TopGhost;
},
{
horizontal = 1;
place = "{0, 21}";
target = up;
type = BottomGhost;
}
);
layerId = "2A85124F-80FE-40EA-AF86-869CC9CBC980";
paths = (
{
closed = 1;
nodes = (
"370 700 LINE",
"370 395 LINE",
"190 395 LINE",
"190 700 LINE",
"70 700 LINE",
"70 0 LINE",
"190 0 LINE",
"190 315 LINE",
"370 315 LINE",
"370 0 LINE",
"490 0 LINE",
"490 700 LINE"
);
}
);
width = 560;
}
);
leftKerningGroup = H;
rightKerningGroup = H;
unicode = 0048;
},
{
color = 4;
glyphname = I;
lastChange = "2016-09-02 12:49:06 +0000";
layers = (
{
hints = (
{
place = "{70, 90}";
},
{
horizontal = 1;
place = "{700, -20}";
target = down;
type = TopGhost;
},
{
horizontal = 1;
place = "{0, 21}";
target = up;
type = BottomGhost;
}
);
layerId = UUID0;
paths = (
{
closed = 1;
nodes = (
"70 700 LINE",
"70 0 LINE",
"160 0 LINE",
"160 700 LINE"
);
}
);
width = 230;
},
{
hints = (
{
place = "{70, 120}";
},
{
horizontal = 1;
place = "{700, -20}";
target = down;
type = TopGhost;
},
{
horizontal = 1;
place = "{0, 21}";
target = up;
type = BottomGhost;
}
);
layerId = "2A85124F-80FE-40EA-AF86-869CC9CBC980";
paths = (
{
closed = 1;
nodes = (
"70 700 LINE",
"70 0 LINE",
"190 0 LINE",
"190 700 LINE"
);
}
);
width = 260;
}
);
leftKerningGroup = H;
rightKerningGroup = H;
unicode = 0049;
},
{
color = 4;
glyphname = Iacute;
lastChange = "2016-09-02 12:49:06 +0000";
layers = (
{
hints = (
{
place = "{70, 90}";
},
{
horizontal = 1;
place = "{750, 130}";
},
{
horizontal = 1;
place = "{0, 21}";
target = up;
type = BottomGhost;
},
{
horizontal = 1;
place = "{700, -20}";
target = down;
type = TopGhost;
}
);
layerId = UUID0;
paths = (
{
closed = 1;
nodes = (
"70 700 LINE",
"70 0 LINE",
"160 0 LINE",
"160 700 LINE"
);
},
{
closed = 1;
nodes = (
"145 750 LINE",
"215 880 LINE",
"120 880 LINE",
"85 750 LINE"
);
}
);
width = 230;
},
{
hints = (
{
place = "{70, 120}";
},
{
horizontal = 1;
place = "{750, 130}";
},
{
horizontal = 1;
place = "{0, 21}";
target = up;
type = BottomGhost;
},
{
horizontal = 1;
place = "{700, -20}";
target = down;
type = TopGhost;
}
);
layerId = "2A85124F-80FE-40EA-AF86-869CC9CBC980";
paths = (
{
closed = 1;
nodes = (
"70 700 LINE",
"70 0 LINE",
"190 0 LINE",
"190 700 LINE"
);
},
{
closed = 1;
nodes = (
"165 750 LINE",
"240 880 LINE",
"125 880 LINE",
"90 750 LINE"
);
}
);
width = 255;
}
);
leftKerningGroup = H;
rightKerningGroup = H;
unicode = 00CD;
},
{
color = 4;
glyphname = Icircumflex;
lastChange = "2016-09-02 12:49:06 +0000";
layers = (
{
hints = (
{
place = "{60, 90}";
},
{
horizontal = 1;
place = "{0, 21}";
target = up;
type = BottomGhost;
},
{
horizontal = 1;
place = "{700, -20}";
target = down;
type = TopGhost;
},
{
horizontal = 1;
place = "{880, -20}";
target = down;
type = TopGhost;
}
);
layerId = UUID0;
paths = (
{
closed = 1;
nodes = (
"60 700 LINE",
"60 0 LINE",
"150 0 LINE",
"150 700 LINE"
);
},
{
closed = 1;
nodes = (
"45 750 LINE",
"107 824 LINE",
"170 750 LINE",
"230 750 LINE",
"155 880 LINE",
"60 880 LINE",
"-15 750 LINE"
);
}
);
width = 215;
},
{
hints = (
{
place = "{55, 120}";
},
{
horizontal = 1;
place = "{0, 21}";
target = up;
type = BottomGhost;
},
{
horizontal = 1;
place = "{700, -20}";
target = down;
type = TopGhost;
},
{
horizontal = 1;
place = "{880, -20}";
target = down;
type = TopGhost;
}
);
layerId = "2A85124F-80FE-40EA-AF86-869CC9CBC980";
paths = (
{
closed = 1;
nodes = (
"55 700 LINE",
"55 0 LINE",
"175 0 LINE",
"175 700 LINE"
);
},
{
closed = 1;
nodes = (
"61 750 LINE",
"117 820 LINE",
"173 750 LINE",
"250 750 LINE",
"170 880 LINE",
"65 880 LINE",
"-15 750 LINE"
);
}
);
width = 235;
}
);
leftKerningGroup = H;
rightKerningGroup = H;
unicode = 00CE;
},
{
color = 4;
glyphname = Idieresis;
lastChange = "2016-09-02 12:49:06 +0000";
layers = (
{
hints = (
{
place = "{-10, 90}";
},
{
place = "{70, 90}";
},
{
place = "{150, 90}";
},
{
horizontal = 1;
place = "{770, 110}";
},
{
horizontal = 1;
place = "{0, 21}";
target = up;
type = BottomGhost;
},
{
horizontal = 1;
place = "{700, -20}";
target = down;
type = TopGhost;
}
);
layerId = UUID0;
paths = (
{
closed = 1;
nodes = (
"70 700 LINE",
"70 0 LINE",
"160 0 LINE",
"160 700 LINE"
);
},
{
closed = 1;
nodes = (
"-10 880 LINE",
"-10 770 LINE",
"80 770 LINE",
"80 880 LINE"
);
},
{
closed = 1;
nodes = (
"150 880 LINE",
"150 770 LINE",
"240 770 LINE",
"240 880 LINE"
);
}
);
width = 230;
},
{
hints = (
{
place = "{-10, 110}";
},
{
place = "{65, 120}";
},
{
place = "{150, 110}";
},
{
horizontal = 1;
place = "{760, 120}";
},
{
horizontal = 1;
place = "{0, 21}";
target = up;
type = BottomGhost;
},
{
horizontal = 1;
place = "{700, -20}";
target = down;
type = TopGhost;
}
);
layerId = "2A85124F-80FE-40EA-AF86-869CC9CBC980";
paths = (
{
closed = 1;
nodes = (
"65 700 LINE",
"65 0 LINE",
"185 0 LINE",
"185 700 LINE"
);
},
{
closed = 1;
nodes = (
"-10 880 LINE",
"-10 760 LINE",
"100 760 LINE",
"100 880 LINE"
);
},
{
closed = 1;
nodes = (
"150 880 LINE",
"150 760 LINE",
"260 760 LINE",
"260 880 LINE"
);
}
);
width = 250;
}
);
leftKerningGroup = H;
rightKerningGroup = H;
unicode = 00CF;
},
{
color = 4;
glyphname = Idotaccent;
lastChange = "2016-09-02 12:49:06 +0000";
layers = (
{
hints = (
{
place = "{70, 90}";
},
{
horizontal = 1;
place = "{770, 110}";
},
{
horizontal = 1;
place = "{0, 21}";
target = up;
type = BottomGhost;
},
{
horizontal = 1;
place = "{700, -20}";
target = down;
type = TopGhost;
}
);
layerId = UUID0;
paths = (
{
closed = 1;
nodes = (
"70 700 LINE",
"70 0 LINE",
"160 0 LINE",
"160 700 LINE"
);
},
{
closed = 1;
nodes = (
"70 880 LINE",
"70 770 LINE",
"160 770 LINE",
"160 880 LINE"
);
}
);
width = 230;
},
{
hints = (
{
place = "{70, 120}";
},
{
horizontal = 1;
place = "{760, 120}";
},
{
horizontal = 1;
place = "{0, 21}";
target = up;
type = BottomGhost;
},
{
horizontal = 1;
place = "{700, -20}";
target = down;
type = TopGhost;
}
);
layerId = "2A85124F-80FE-40EA-AF86-869CC9CBC980";
paths = (
{
closed = 1;
nodes = (
"70 700 LINE",
"70 0 LINE",
"190 0 LINE",
"190 700 LINE"
);
},
{
closed = 1;
nodes = (
"75 880 LINE",
"75 760 LINE",
"185 760 LINE",
"185 880 LINE"
);
}
);
width = 260;
}
);
leftKerningGroup = H;
rightKerningGroup = H;
unicode = 0130;
},
{
color = 4;
glyphname = Igrave;
lastChange = "2016-09-02 12:49:06 +0000";
layers = (
{
hints = (
{
place = "{65, 90}";
},
{
horizontal = 1;
place = "{750, 130}";
},
{
horizontal = 1;
place = "{0, 21}";
target = up;
type = BottomGhost;
},
{
horizontal = 1;
place = "{700, -20}";
target = down;
type = TopGhost;
}
);
layerId = UUID0;
paths = (
{
closed = 1;
nodes = (
"65 700 LINE",
"65 0 LINE",
"155 0 LINE",
"155 700 LINE"
);
},
{
closed = 1;
nodes = (
"145 750 LINE",
"110 880 LINE",
"15 880 LINE",
"85 750 LINE"
);
}
);
width = 225;
},
{
hints = (
{
place = "{65, 120}";
},
{
horizontal = 1;
place = "{750, 130}";
},
{
horizontal = 1;
place = "{0, 21}";
target = up;
type = BottomGhost;
},
{
horizontal = 1;
place = "{700, -20}";
target = down;
type = TopGhost;
}
);
layerId = "2A85124F-80FE-40EA-AF86-869CC9CBC980";
paths = (
{
closed = 1;
nodes = (
"65 700 LINE",
"65 0 LINE",
"185 0 LINE",
"185 700 LINE"
);
},
{
closed = 1;
nodes = (
"165 750 LINE",
"130 880 LINE",
"15 880 LINE",
"90 750 LINE"
);
}
);
width = 255;
}
);
leftKerningGroup = H;
rightKerningGroup = H;
unicode = 00CC;
},
{
color = 4;
glyphname = Imacron;
lastChange = "2016-09-02 12:49:06 +0000";
layers = (
{
hints = (
{
place = "{65, 90}";
},
{
horizontal = 1;
place = "{760, 60}";
},
{
horizontal = 1;
place = "{0, 21}";
target = up;
type = BottomGhost;
},
{
horizontal = 1;
place = "{700, -20}";
target = down;
type = TopGhost;
}
);
layerId = UUID0;
paths = (
{
closed = 1;
nodes = (
"65 700 LINE",
"65 0 LINE",
"155 0 LINE",
"155 700 LINE"
);
},
{
closed = 1;
nodes = (
"-5 760 LINE",
"225 760 LINE",
"225 820 LINE",
"-5 820 LINE"
);
}
);
width = 220;
},
{
hints = (
{
place = "{55, 120}";
},
{
horizontal = 1;
place = "{750, 70}";
},
{
horizontal = 1;
place = "{0, 21}";
target = up;
type = BottomGhost;
},
{
horizontal = 1;
place = "{700, -20}";
target = down;
type = TopGhost;
}
);
layerId = "2A85124F-80FE-40EA-AF86-869CC9CBC980";
paths = (
{
closed = 1;
nodes = (
"55 0 LINE",
"175 0 LINE",
"175 700 LINE",
"55 700 LINE"
);
},
{
closed = 1;
nodes = (
"-5 750 LINE",
"235 750 LINE",
"235 820 LINE",
"-5 820 LINE"
);
}
);
width = 230;
}
);
leftKerningGroup = H;
rightKerningGroup = H;
unicode = 012A;
},
{
color = 4;
glyphname = Iogonek;
lastChange = "2016-09-02 12:49:06 +0000";
layers = (
{
hints = (
{
place = "{50, 65}";
},
{
place = "{65, 90}";
},
{
horizontal = 1;
place = "{-160, 56}";
},
{
horizontal = 1;
place = "{0, 21}";
target = up;
type = BottomGhost;
},
{
horizontal = 1;
place = "{700, -20}";
target = down;
type = TopGhost;
}
);
layerId = UUID0;
paths = (
{
closed = 1;
nodes = (
"65 0 LINE",
"75 0 LINE",
"75 0 OFFCURVE",
"50 -35 OFFCURVE",
"50 -80 CURVE SMOOTH",
"50 -130 OFFCURVE",
"80 -160 OFFCURVE",
"135 -160 CURVE SMOOTH",
"180 -160 OFFCURVE",
"210 -145 OFFCURVE",
"210 -145 CURVE",
"210 -104 LINE",
"175 -104 LINE SMOOTH",
"130 -104 OFFCURVE",
"115 -90 OFFCURVE",
"115 -45 CURVE SMOOTH",
"115 0 LINE",
"155 0 LINE",
"155 700 LINE",
"65 700 LINE"
);
}
);
width = 220;
},
{
hints = (
{
place = "{56, 70}";
},
{
place = "{56, 120}";
},
{
horizontal = 1;
place = "{-160, 60}";
},
{
horizontal = 1;
place = "{0, 21}";
target = up;
type = BottomGhost;
},
{
horizontal = 1;
place = "{700, -20}";
target = down;
type = TopGhost;
}
);
layerId = "2A85124F-80FE-40EA-AF86-869CC9CBC980";
paths = (
{
closed = 1;
nodes = (
"76 0 LINE",
"76 0 OFFCURVE",
"50 -30 OFFCURVE",
"50 -80 CURVE SMOOTH",
"50 -125 OFFCURVE",
"85 -160 OFFCURVE",
"140 -160 CURVE SMOOTH",
"185 -160 OFFCURVE",
"216 -145 OFFCURVE",
"216 -145 CURVE",
"216 -100 LINE",
"180 -100 LINE SMOOTH",
"145 -100 OFFCURVE",
"126 -80 OFFCURVE",
"126 -45 CURVE SMOOTH",
"126 0 LINE",
"176 0 LINE",
"176 700 LINE",
"56 700 LINE",
"56 0 LINE"
);
}
);
width = 226;
}
);
leftKerningGroup = H;
rightKerningGroup = H;
unicode = 012E;
},
{
color = 4;
glyphname = Itilde;
lastChange = "2016-09-02 12:49:06 +0000";
layers = (
{
hints = (
{
place = "{-5, 50}";
},
{
place = "{70, 90}";
},
{
place = "{185, 50}";
},
{
horizontal = 1;
place = "{750, 60}";
},
{
horizontal = 1;
place = "{810, 60}";
},
{
horizontal = 1;
place = "{0, 21}";
target = up;
type = BottomGhost;
},
{
horizontal = 1;
place = "{700, -20}";
target = down;
type = TopGhost;
}
);
layerId = UUID0;
paths = (
{
closed = 1;
nodes = (
"70 700 LINE",
"70 0 LINE",
"160 0 LINE",
"160 700 LINE"
);
},
{
closed = 1;
nodes = (
"235 765 LINE",
"235 840 OFFCURVE",
"210 870 OFFCURVE",
"160 870 CURVE SMOOTH",
"110 870 OFFCURVE",
"95 810 OFFCURVE",
"70 810 CURVE SMOOTH",
"55 810 OFFCURVE",
"45 825 OFFCURVE",
"45 855 CURVE",
"-5 855 LINE",
"-5 780 OFFCURVE",
"20 750 OFFCURVE",
"70 750 CURVE SMOOTH",
"120 750 OFFCURVE",
"135 810 OFFCURVE",
"160 810 CURVE SMOOTH",
"175 810 OFFCURVE",
"185 795 OFFCURVE",
"185 765 CURVE"
);
}
);
width = 230;
},
{
hints = (
{
place = "{-5, 250}";
},
{
place = "{60, 120}";
},
{
horizontal = 1;
place = "{746, 80}";
},
{
horizontal = 1;
place = "{796, 30}";
},
{
horizontal = 1;
place = "{796, 80}";
},
{
horizontal = 1;
place = "{0, 21}";
target = up;
type = BottomGhost;
},
{
horizontal = 1;
place = "{700, -20}";
target = down;
type = TopGhost;
}
);
layerId = "2A85124F-80FE-40EA-AF86-869CC9CBC980";
paths = (
{
closed = 1;
nodes = (
"60 0 LINE",
"180 0 LINE",
"180 700 LINE",
"60 700 LINE"
);
},
{
closed = 1;
nodes = (
"245 756 LINE",
"245 846 OFFCURVE",
"215 876 OFFCURVE",
"170 876 CURVE SMOOTH",
"125 876 OFFCURVE",
"105 826 OFFCURVE",
"80 826 CURVE SMOOTH",
"65 826 OFFCURVE",
"55 841 OFFCURVE",
"55 866 CURVE",
"-5 866 LINE",
"-5 776 OFFCURVE",
"25 746 OFFCURVE",
"70 746 CURVE SMOOTH",
"115 746 OFFCURVE",
"135 796 OFFCURVE",
"160 796 CURVE SMOOTH",
"175 796 OFFCURVE",
"185 781 OFFCURVE",
"185 756 CURVE"
);
}
);
width = 240;
}
);
leftKerningGroup = H;
rightKerningGroup = H;
unicode = 0128;
},
{
color = 4;
glyphname = J;
lastChange = "2016-09-02 12:49:06 +0000";
layers = (
{
hints = (
{
place = "{200, 90}";
},
{
horizontal = 1;
place = "{-10, 65}";
},
{
horizontal = 1;
place = "{700, -20}";
target = down;
type = TopGhost;
}
);
layerId = UUID0;
paths = (
{
closed = 1;
nodes = (
"0 55 LINE",
"0 10 LINE",
"25 0 OFFCURVE",
"60 -10 OFFCURVE",
"90 -10 CURVE SMOOTH",
"230 -10 OFFCURVE",
"290 50 OFFCURVE",
"290 240 CURVE SMOOTH",
"290 700 LINE",
"200 700 LINE",
"200 240 LINE SMOOTH",
"200 95 OFFCURVE",
"160 55 OFFCURVE",
"90 55 CURVE SMOOTH"
);
}
);
width = 350;
},
{
hints = (
{
place = "{195, 120}";
},
{
horizontal = 1;
place = "{-10, 75}";
},
{
horizontal = 1;
place = "{700, -20}";
target = down;
type = TopGhost;
}
);
layerId = "2A85124F-80FE-40EA-AF86-869CC9CBC980";
paths = (
{
closed = 1;
nodes = (
"0 65 LINE",
"0 10 LINE",
"25 0 OFFCURVE",
"60 -10 OFFCURVE",
"100 -10 CURVE SMOOTH",
"245 -10 OFFCURVE",
"315 60 OFFCURVE",
"315 240 CURVE SMOOTH",
"315 700 LINE",
"195 700 LINE",
"195 240 LINE SMOOTH",
"195 105 OFFCURVE",
"155 65 OFFCURVE",
"100 65 CURVE SMOOTH"
);
}
);
width = 375;
}
);
leftKerningGroup = J;
rightKerningGroup = U;
unicode = 004A;
},
{
color = 4;
glyphname = Jcircumflex;
lastChange = "2016-09-02 12:49:06 +0000";
layers = (
{
hints = (
{
place = "{200, 90}";
},
{
horizontal = 1;
place = "{-10, 65}";
},
{
horizontal = 1;
place = "{700, -20}";
target = down;
type = TopGhost;
},
{
horizontal = 1;
place = "{870, -20}";
target = down;
type = TopGhost;
}
);
layerId = UUID0;
paths = (
{
closed = 1;
nodes = (
"0 55 LINE",
"0 10 LINE",
"25 0 OFFCURVE",
"60 -10 OFFCURVE",
"90 -10 CURVE SMOOTH",
"230 -10 OFFCURVE",
"290 50 OFFCURVE",
"290 240 CURVE SMOOTH",
"290 700 LINE",
"200 700 LINE",
"200 240 LINE SMOOTH",
"200 95 OFFCURVE",
"160 55 OFFCURVE",
"90 55 CURVE SMOOTH"
);
},
{
closed = 1;
nodes = (
"183 740 LINE",
"245 814 LINE",
"308 740 LINE",
"368 740 LINE",
"293 870 LINE",
"198 870 LINE",
"123 740 LINE"
);
}
);
width = 353;
},
{
hints = (
{
place = "{195, 120}";
},
{
horizontal = 1;
place = "{-10, 75}";
},
{
horizontal = 1;
place = "{700, -20}";
target = down;
type = TopGhost;
},
{
horizontal = 1;
place = "{870, -20}";
target = down;
type = TopGhost;
}
);
layerId = "2A85124F-80FE-40EA-AF86-869CC9CBC980";
paths = (
{
closed = 1;
nodes = (
"0 65 LINE",
"0 10 LINE",
"25 0 OFFCURVE",
"60 -10 OFFCURVE",
"100 -10 CURVE SMOOTH",
"245 -10 OFFCURVE",
"315 60 OFFCURVE",
"315 240 CURVE SMOOTH",
"315 700 LINE",
"195 700 LINE",
"195 240 LINE SMOOTH",
"195 105 OFFCURVE",
"155 65 OFFCURVE",
"100 65 CURVE SMOOTH"
);
},
{
closed = 1;
nodes = (
"199 740 LINE",
"255 810 LINE",
"311 740 LINE",
"388 740 LINE",
"308 870 LINE",
"203 870 LINE",
"123 740 LINE"
);
}
);
width = 373;
}
);
leftKerningGroup = J;
rightKerningGroup = U;
unicode = 0134;
},
{
color = 4;
glyphname = K;
lastChange = "2016-09-02 12:49:06 +0000";
layers = (
{
hints = (
{
place = "{70, 90}";
},
{
horizontal = 1;
place = "{700, -20}";
target = down;
type = TopGhost;
},
{
horizontal = 1;
place = "{0, 21}";
target = up;
type = BottomGhost;
}
);
layerId = UUID0;
paths = (
{
closed = 1;
nodes = (
"255 355 LINE",
"460 700 LINE",
"355 700 LINE",
"160 360 LINE",
"160 700 LINE",
"70 700 LINE",
"70 0 LINE",
"160 0 LINE",
"160 350 LINE",
"375 0 LINE",
"480 0 LINE"
);
}
);
width = 490;
},
{
hints = (
{
place = "{70, 120}";
},
{
horizontal = 1;
place = "{700, -20}";
target = down;
type = TopGhost;
},
{
horizontal = 1;
place = "{0, 21}";
target = up;
type = BottomGhost;
}
);
layerId = "2A85124F-80FE-40EA-AF86-869CC9CBC980";
paths = (
{
closed = 1;
nodes = (
"305 355 LINE",
"490 700 LINE",
"355 700 LINE",
"190 380 LINE",
"190 700 LINE",
"70 700 LINE",
"70 0 LINE",
"190 0 LINE",
"190 330 LINE",
"375 0 LINE",
"510 0 LINE"
);
}
);
width = 520;
}
);
leftKerningGroup = H;
rightKerningGroup = K;
unicode = 004B;
},
{
color = 4;
glyphname = Kcommaaccent;
lastChange = "2016-09-02 12:49:06 +0000";
layers = (
{
hints = (
{
place = "{70, 90}";
},
{
horizontal = 1;
place = "{-200, 150}";
},
{
horizontal = 1;
place = "{700, -20}";
target = down;
type = TopGhost;
},
{
horizontal = 1;
place = "{0, 21}";
target = up;
type = BottomGhost;
}
);
layerId = UUID0;
paths = (
{
closed = 1;
nodes = (
"210 -200 LINE",
"270 -200 LINE",
"300 -50 LINE",
"210 -50 LINE"
);
},
{
closed = 1;
nodes = (
"255 355 LINE",
"460 700 LINE",
"355 700 LINE",
"160 360 LINE",
"160 700 LINE",
"70 700 LINE",
"70 0 LINE",
"160 0 LINE",
"160 350 LINE",
"375 0 LINE",
"480 0 LINE"
);
}
);
width = 490;
},
{
hints = (
{
place = "{70, 120}";
},
{
horizontal = 1;
place = "{-200, 150}";
},
{
horizontal = 1;
place = "{700, -20}";
target = down;
type = TopGhost;
},
{
horizontal = 1;
place = "{0, 21}";
target = up;
type = BottomGhost;
}
);
layerId = "2A85124F-80FE-40EA-AF86-869CC9CBC980";
paths = (
{
closed = 1;
nodes = (
"215 -200 LINE",
"290 -200 LINE",
"325 -50 LINE",
"215 -50 LINE"
);
},
{
closed = 1;
nodes = (
"305 355 LINE",
"490 700 LINE",
"355 700 LINE",
"190 380 LINE",
"190 700 LINE",
"70 700 LINE",
"70 0 LINE",
"190 0 LINE",
"190 330 LINE",
"375 0 LINE",
"510 0 LINE"
);
}
);
width = 520;
}
);
leftKerningGroup = H;
rightKerningGroup = K;
unicode = 0136;
},
{
color = 4;
glyphname = L;
lastChange = "2016-09-02 12:49:06 +0000";
layers = (
{
hints = (
{
place = "{70, 90}";
},
{
horizontal = 1;
place = "{0, 70}";
},
{
horizontal = 1;
place = "{700, -20}";
target = down;
type = TopGhost;
}
);
layerId = UUID0;
paths = (
{
closed = 1;
nodes = (
"160 700 LINE",
"70 700 LINE",
"70 0 LINE",
"410 0 LINE",
"410 70 LINE",
"160 70 LINE"
);
}
);
width = 420;
},
{
hints = (
{
place = "{70, 120}";
},
{
horizontal = 1;
place = "{0, 80}";
},
{
horizontal = 1;
place = "{700, -20}";
target = down;
type = TopGhost;
}
);
layerId = "2A85124F-80FE-40EA-AF86-869CC9CBC980";
paths = (
{
closed = 1;
nodes = (
"190 700 LINE",
"70 700 LINE",
"70 0 LINE",
"435 0 LINE",
"435 80 LINE",
"190 80 LINE"
);
}
);
width = 445;
}
);
leftKerningGroup = H;
rightKerningGroup = L;
unicode = 004C;
},
{
color = 4;
glyphname = Lcommaaccent;
lastChange = "2016-09-02 12:49:06 +0000";
layers = (
{
hints = (
{
place = "{70, 90}";
},
{
horizontal = 1;
place = "{-210, 150}";
},
{
horizontal = 1;
place = "{0, 70}";
},
{
horizontal = 1;
place = "{700, -20}";
target = down;
type = TopGhost;
}
);
layerId = UUID0;
paths = (
{
closed = 1;
nodes = (
"200 -210 LINE",
"260 -210 LINE",
"290 -60 LINE",
"200 -60 LINE"
);
},
{
closed = 1;
nodes = (
"160 700 LINE",
"70 700 LINE",
"70 0 LINE",
"410 0 LINE",
"410 70 LINE",
"160 70 LINE"
);
}
);
width = 420;
},
{
hints = (
{
place = "{70, 120}";
},
{
horizontal = 1;
place = "{-210, 150}";
},
{
horizontal = 1;
place = "{0, 80}";
},
{
horizontal = 1;
place = "{700, -20}";
target = down;
type = TopGhost;
}
);
layerId = "2A85124F-80FE-40EA-AF86-869CC9CBC980";
paths = (
{
closed = 1;
nodes = (
"190 700 LINE",
"70 700 LINE",
"70 0 LINE",
"435 0 LINE",
"435 80 LINE",
"190 80 LINE"
);
},
{
closed = 1;
nodes = (
"205 -210 LINE",
"280 -210 LINE",
"315 -60 LINE",
"205 -60 LINE"
);
}
);
width = 445;
}
);
leftKerningGroup = H;
rightKerningGroup = L;
unicode = 013B;
},
{
color = 4;
glyphname = Lslash;
lastChange = "2016-09-02 12:49:06 +0000";
layers = (
{
hints = (
{
place = "{75, 90}";
},
{
horizontal = 1;
place = "{0, 70}";
},
{
horizontal = 1;
place = "{700, -20}";
target = down;
type = TopGhost;
}
);
layerId = UUID0;
paths = (
{
closed = 1;
nodes = (
"165 700 LINE",
"75 700 LINE",
"75 365 LINE",
"-10 305 LINE",
"25 255 LINE",
"75 290 LINE",
"75 0 LINE",
"415 0 LINE",
"415 70 LINE",
"165 70 LINE",
"165 355 LINE",
"260 420 LINE",
"225 470 LINE",
"165 430 LINE"
);
}
);
width = 425;
},
{
hints = (
{
place = "{70, 120}";
},
{
horizontal = 1;
place = "{0, 80}";
},
{
horizontal = 1;
place = "{700, -20}";
target = down;
type = TopGhost;
}
);
layerId = "2A85124F-80FE-40EA-AF86-869CC9CBC980";
paths = (
{
closed = 1;
nodes = (
"190 700 LINE",
"70 700 LINE",
"70 362 LINE",
"-10 305 LINE",
"35 245 LINE",
"70 270 LINE",
"70 0 LINE",
"435 0 LINE",
"435 80 LINE",
"190 80 LINE",
"190 355 LINE",
"280 420 LINE",
"235 480 LINE",
"190 448 LINE"
);
}
);
width = 445;
}
);
leftKerningGroup = Hbar;
rightKerningGroup = L;
unicode = 0141;
},
{
color = 4;
glyphname = M;
lastChange = "2016-09-02 12:49:06 +0000";
layers = (
{
hints = (
{
place = "{75, 85}";
},
{
place = "{580, 85}";
},
{
horizontal = 1;
place = "{0, 21}";
target = up;
type = BottomGhost;
},
{
horizontal = 1;
place = "{700, -20}";
target = down;
type = TopGhost;
}
);
layerId = UUID0;
paths = (
{
closed = 1;
nodes = (
"415 90 LINE",
"560 520 LINE",
"565 520 LINE",
"595 0 LINE",
"685 0 LINE",
"645 700 LINE",
"535 700 LINE",
"372 220 LINE",
"368 220 LINE",
"205 700 LINE",
"95 700 LINE",
"55 0 LINE",
"145 0 LINE",
"175 520 LINE",
"180 520 LINE",
"325 90 LINE"
);
}
);
width = 740;
},
{
hints = (
{
place = "{70, 108}";
},
{
place = "{581, 109}";
},
{
horizontal = 1;
place = "{700, -20}";
target = down;
type = TopGhost;
},
{
horizontal = 1;
place = "{0, 21}";
target = up;
type = BottomGhost;
}
);
layerId = "2A85124F-80FE-40EA-AF86-869CC9CBC980";
paths = (
{
closed = 1;
nodes = (
"90 700 LINE",
"50 0 LINE",
"165 0 LINE",
"192 474 LINE",
"196 474 LINE",
"325 85 LINE",
"435 85 LINE",
"564 474 LINE",
"568 474 LINE",
"595 0 LINE",
"710 0 LINE",
"670 700 LINE",
"540 700 LINE",
"382 225 LINE",
"378 225 LINE",
"220 700 LINE"
);
}
);
width = 760;
}
);
leftKerningGroup = H;
rightKerningGroup = H;
unicode = 004D;
},
{
color = 4;
glyphname = N;
lastChange = "2016-09-02 12:49:06 +0000";
layers = (
{
hints = (
{
place = "{70, 90}";
},
{
place = "{380, 90}";
},
{
horizontal = 1;
place = "{0, 21}";
target = up;
type = BottomGhost;
},
{
horizontal = 1;
place = "{700, -20}";
target = down;
type = TopGhost;
}
);
layerId = UUID0;
paths = (
{
closed = 1;
nodes = (
"160 495 LINE",
"165 495 LINE",
"370 0 LINE",
"470 0 LINE",
"470 700 LINE",
"380 700 LINE",
"380 205 LINE",
"375 205 LINE",
"170 700 LINE",
"70 700 LINE",
"70 0 LINE",
"160 0 LINE"
);
}
);
width = 540;
},
{
hints = (
{
place = "{70, 115}";
},
{
place = "{385, 115}";
},
{
horizontal = 1;
place = "{0, 21}";
target = up;
type = BottomGhost;
},
{
horizontal = 1;
place = "{700, -20}";
target = down;
type = TopGhost;
}
);
layerId = "2A85124F-80FE-40EA-AF86-869CC9CBC980";
paths = (
{
closed = 1;
nodes = (
"380 0 LINE",
"500 0 LINE",
"500 700 LINE",
"385 700 LINE",
"385 240 LINE",
"380 240 LINE",
"190 700 LINE",
"70 700 LINE",
"70 0 LINE",
"185 0 LINE",
"185 460 LINE",
"190 460 LINE"
);
}
);
width = 570;
}
);
leftKerningGroup = H;
rightKerningGroup = H;
unicode = 004E;
},
{
color = 4;
glyphname = Nacute;
lastChange = "2016-09-02 12:49:06 +0000";
layers = (
{
hints = (
{
place = "{70, 90}";
},
{
place = "{380, 90}";
},
{
horizontal = 1;
place = "{750, 130}";
},
{
horizontal = 1;
place = "{0, 21}";
target = up;
type = BottomGhost;
},
{
horizontal = 1;
place = "{700, -20}";
target = down;
type = TopGhost;
}
);
layerId = UUID0;
paths = (
{
closed = 1;
nodes = (
"300 750 LINE",
"370 880 LINE",
"275 880 LINE",
"240 750 LINE"
);
},
{
closed = 1;
nodes = (
"160 495 LINE",
"165 495 LINE",
"370 0 LINE",
"470 0 LINE",
"470 700 LINE",
"380 700 LINE",
"380 205 LINE",
"375 205 LINE",
"170 700 LINE",
"70 700 LINE",
"70 0 LINE",
"160 0 LINE"
);
}
);
width = 540;
},
{
hints = (
{
place = "{70, 115}";
},
{
place = "{385, 115}";
},
{
horizontal = 1;
place = "{750, 130}";
},
{
horizontal = 1;
place = "{0, 21}";
target = up;
type = BottomGhost;
},
{
horizontal = 1;
place = "{700, -20}";
target = down;
type = TopGhost;
}
);
layerId = "2A85124F-80FE-40EA-AF86-869CC9CBC980";
paths = (
{
closed = 1;
nodes = (
"380 0 LINE",
"500 0 LINE",
"500 700 LINE",
"385 700 LINE",
"385 240 LINE",
"380 240 LINE",
"190 700 LINE",
"70 700 LINE",
"70 0 LINE",
"185 0 LINE",
"185 460 LINE",
"190 460 LINE"
);
},
{
closed = 1;
nodes = (
"320 750 LINE",
"395 880 LINE",
"280 880 LINE",
"245 750 LINE"
);
}
);
width = 570;
}
);
leftKerningGroup = H;
rightKerningGroup = H;
unicode = 0143;
},
{
color = 4;
glyphname = Ncommaaccent;
lastChange = "2016-09-02 12:49:06 +0000";
layers = (
{
hints = (
{
place = "{70, 90}";
},
{
place = "{380, 90}";
},
{
horizontal = 1;
place = "{-200, 150}";
},
{
horizontal = 1;
place = "{0, 21}";
target = up;
type = BottomGhost;
},
{
horizontal = 1;
place = "{700, -20}";
target = down;
type = TopGhost;
}
);
layerId = UUID0;
paths = (
{
closed = 1;
nodes = (
"220 -200 LINE",
"280 -200 LINE",
"310 -50 LINE",
"220 -50 LINE"
);
},
{
closed = 1;
nodes = (
"160 495 LINE",
"165 495 LINE",
"370 0 LINE",
"470 0 LINE",
"470 700 LINE",
"380 700 LINE",
"380 205 LINE",
"375 205 LINE",
"170 700 LINE",
"70 700 LINE",
"70 0 LINE",
"160 0 LINE"
);
}
);
width = 540;
},
{
hints = (
{
place = "{70, 115}";
},
{
place = "{385, 115}";
},
{
horizontal = 1;
place = "{-200, 150}";
},
{
horizontal = 1;
place = "{0, 21}";
target = up;
type = BottomGhost;
},
{
horizontal = 1;
place = "{700, -20}";
target = down;
type = TopGhost;
}
);
layerId = "2A85124F-80FE-40EA-AF86-869CC9CBC980";
paths = (
{
closed = 1;
nodes = (
"380 0 LINE",
"500 0 LINE",
"500 700 LINE",
"385 700 LINE",
"385 240 LINE",
"380 240 LINE",
"190 700 LINE",
"70 700 LINE",
"70 0 LINE",
"185 0 LINE",
"185 460 LINE",
"190 460 LINE"
);
},
{
closed = 1;
nodes = (
"225 -200 LINE",
"300 -200 LINE",
"335 -50 LINE",
"225 -50 LINE"
);
}
);
width = 570;
}
);
leftKerningGroup = H;
rightKerningGroup = H;
unicode = 0145;
},
{
color = 4;
glyphname = Ntilde;
lastChange = "2016-09-02 12:49:06 +0000";
layers = (
{
hints = (
{
place = "{70, 90}";
},
{
place = "{140, 50}";
},
{
place = "{330, 50}";
},
{
place = "{380, 90}";
},
{
horizontal = 1;
place = "{750, 60}";
},
{
horizontal = 1;
place = "{810, 60}";
},
{
horizontal = 1;
place = "{0, 21}";
target = up;
type = BottomGhost;
},
{
horizontal = 1;
place = "{700, -20}";
target = down;
type = TopGhost;
}
);
layerId = UUID0;
paths = (
{
closed = 1;
nodes = (
"380 765 LINE",
"380 840 OFFCURVE",
"355 870 OFFCURVE",
"305 870 CURVE SMOOTH",
"255 870 OFFCURVE",
"240 810 OFFCURVE",
"215 810 CURVE SMOOTH",
"200 810 OFFCURVE",
"190 825 OFFCURVE",
"190 855 CURVE",
"140 855 LINE",
"140 780 OFFCURVE",
"165 750 OFFCURVE",
"215 750 CURVE SMOOTH",
"265 750 OFFCURVE",
"280 810 OFFCURVE",
"305 810 CURVE SMOOTH",
"320 810 OFFCURVE",
"330 795 OFFCURVE",
"330 765 CURVE"
);
},
{
closed = 1;
nodes = (
"160 495 LINE",
"165 495 LINE",
"370 0 LINE",
"470 0 LINE",
"470 700 LINE",
"380 700 LINE",
"380 205 LINE",
"375 205 LINE",
"170 700 LINE",
"70 700 LINE",
"70 0 LINE",
"160 0 LINE"
);
}
);
width = 540;
},
{
hints = (
{
place = "{70, 115}";
},
{
place = "{150, 250}";
},
{
place = "{385, 115}";
},
{
horizontal = 1;
place = "{745, 80}";
},
{
horizontal = 1;
place = "{795, 30}";
},
{
horizontal = 1;
place = "{795, 80}";
},
{
horizontal = 1;
place = "{0, 21}";
target = up;
type = BottomGhost;
},
{
horizontal = 1;
place = "{700, -20}";
target = down;
type = TopGhost;
}
);
layerId = "2A85124F-80FE-40EA-AF86-869CC9CBC980";
paths = (
{
closed = 1;
nodes = (
"380 0 LINE",
"500 0 LINE",
"500 700 LINE",
"385 700 LINE",
"385 240 LINE",
"380 240 LINE",
"190 700 LINE",
"70 700 LINE",
"70 0 LINE",
"185 0 LINE",
"185 460 LINE",
"190 460 LINE"
);
},
{
closed = 1;
nodes = (
"400 755 LINE",
"400 845 OFFCURVE",
"370 875 OFFCURVE",
"325 875 CURVE SMOOTH",
"280 875 OFFCURVE",
"260 825 OFFCURVE",
"235 825 CURVE SMOOTH",
"220 825 OFFCURVE",
"210 840 OFFCURVE",
"210 865 CURVE",
"150 865 LINE",
"150 775 OFFCURVE",
"180 745 OFFCURVE",
"225 745 CURVE SMOOTH",
"270 745 OFFCURVE",
"290 795 OFFCURVE",
"315 795 CURVE SMOOTH",
"330 795 OFFCURVE",
"340 780 OFFCURVE",
"340 755 CURVE"
);
}
);
width = 570;
}
);
leftKerningGroup = H;
rightKerningGroup = H;
unicode = 00D1;
},
{
color = 4;
glyphname = O;
lastChange = "2016-09-02 12:49:06 +0000";
layers = (
{
hints = (
{
place = "{50, 90}";
},
{
place = "{390, 90}";
},
{
horizontal = 1;
place = "{-10, 60}";
},
{
horizontal = 1;
place = "{650, 60}";
}
);
layerId = UUID0;
paths = (
{
closed = 1;
nodes = (
"130 710 OFFCURVE",
"50 630 OFFCURVE",
"50 350 CURVE SMOOTH",
"50 70 OFFCURVE",
"130 -10 OFFCURVE",
"265 -10 CURVE SMOOTH",
"400 -10 OFFCURVE",
"480 70 OFFCURVE",
"480 350 CURVE SMOOTH",
"480 630 OFFCURVE",
"400 710 OFFCURVE",
"265 710 CURVE SMOOTH"
);
},
{
closed = 1;
nodes = (
"200 50 OFFCURVE",
"140 110 OFFCURVE",
"140 350 CURVE SMOOTH",
"140 590 OFFCURVE",
"200 650 OFFCURVE",
"265 650 CURVE SMOOTH",
"330 650 OFFCURVE",
"390 590 OFFCURVE",
"390 350 CURVE SMOOTH",
"390 110 OFFCURVE",
"330 50 OFFCURVE",
"265 50 CURVE SMOOTH"
);
}
);
width = 530;
},
{
hints = (
{
place = "{45, 120}";
},
{
place = "{385, 120}";
},
{
horizontal = 1;
place = "{-10, 70}";
},
{
horizontal = 1;
place = "{640, 70}";
}
);
layerId = "2A85124F-80FE-40EA-AF86-869CC9CBC980";
paths = (
{
closed = 1;
nodes = (
"220 60 OFFCURVE",
"165 120 OFFCURVE",
"165 350 CURVE",
"165 580 OFFCURVE",
"220 640 OFFCURVE",
"275 640 CURVE",
"330 640 OFFCURVE",
"385 580 OFFCURVE",
"385 350 CURVE SMOOTH",
"385 120 OFFCURVE",
"330 60 OFFCURVE",
"275 60 CURVE SMOOTH"
);
},
{
closed = 1;
nodes = (
"135 710 OFFCURVE",
"45 620 OFFCURVE",
"45 350 CURVE",
"45 80 OFFCURVE",
"135 -10 OFFCURVE",
"275 -10 CURVE",
"415 -10 OFFCURVE",
"505 80 OFFCURVE",
"505 350 CURVE SMOOTH",
"505 620 OFFCURVE",
"415 710 OFFCURVE",
"275 710 CURVE"
);
}
);
width = 550;
}
);
leftKerningGroup = O;
rightKerningGroup = O;
unicode = 004F;
},
{
color = 4;
glyphname = Oacute;
lastChange = "2016-09-02 12:49:06 +0000";
layers = (
{
hints = (
{
place = "{50, 90}";
},
{
place = "{390, 90}";
},
{
horizontal = 1;
place = "{-10, 60}";
},
{
horizontal = 1;
place = "{650, 60}";
},
{
horizontal = 1;
place = "{760, 130}";
}
);
layerId = UUID0;
paths = (
{
closed = 1;
nodes = (
"130 710 OFFCURVE",
"50 630 OFFCURVE",
"50 350 CURVE SMOOTH",
"50 70 OFFCURVE",
"130 -10 OFFCURVE",
"265 -10 CURVE SMOOTH",
"400 -10 OFFCURVE",
"480 70 OFFCURVE",
"480 350 CURVE SMOOTH",
"480 630 OFFCURVE",
"400 710 OFFCURVE",
"265 710 CURVE SMOOTH"
);
},
{
closed = 1;
nodes = (
"200 50 OFFCURVE",
"140 110 OFFCURVE",
"140 350 CURVE SMOOTH",
"140 590 OFFCURVE",
"200 650 OFFCURVE",
"265 650 CURVE SMOOTH",
"330 650 OFFCURVE",
"390 590 OFFCURVE",
"390 350 CURVE SMOOTH",
"390 110 OFFCURVE",
"330 50 OFFCURVE",
"265 50 CURVE SMOOTH"
);
},
{
closed = 1;
nodes = (
"290 760 LINE",
"360 890 LINE",
"265 890 LINE",
"230 760 LINE"
);
}
);
width = 530;
},
{
hints = (
{
place = "{45, 120}";
},
{
place = "{385, 120}";
},
{
horizontal = 1;
place = "{-10, 70}";
},
{
horizontal = 1;
place = "{640, 70}";
},
{
horizontal = 1;
place = "{760, 130}";
}
);
layerId = "2A85124F-80FE-40EA-AF86-869CC9CBC980";
paths = (
{
closed = 1;
nodes = (
"220 60 OFFCURVE",
"165 120 OFFCURVE",
"165 350 CURVE",
"165 580 OFFCURVE",
"220 640 OFFCURVE",
"275 640 CURVE",
"330 640 OFFCURVE",
"385 580 OFFCURVE",
"385 350 CURVE SMOOTH",
"385 120 OFFCURVE",
"330 60 OFFCURVE",
"275 60 CURVE SMOOTH"
);
},
{
closed = 1;
nodes = (
"135 710 OFFCURVE",
"45 620 OFFCURVE",
"45 350 CURVE",
"45 80 OFFCURVE",
"135 -10 OFFCURVE",
"275 -10 CURVE",
"415 -10 OFFCURVE",
"505 80 OFFCURVE",
"505 350 CURVE SMOOTH",
"505 620 OFFCURVE",
"415 710 OFFCURVE",
"275 710 CURVE"
);
},
{
closed = 1;
nodes = (
"305 760 LINE",
"380 890 LINE",
"265 890 LINE",
"230 760 LINE"
);
}
);
width = 550;
}
);
leftKerningGroup = O;
rightKerningGroup = O;
unicode = 00D3;
},
{
color = 4;
glyphname = Ocircumflex;
lastChange = "2016-09-02 12:49:06 +0000";
layers = (
{
hints = (
{
place = "{50, 90}";
},
{
place = "{390, 90}";
},
{
horizontal = 1;
place = "{-10, 60}";
},
{
horizontal = 1;
place = "{650, 60}";
},
{
horizontal = 1;
place = "{650, 240}";
}
);
layerId = UUID0;
paths = (
{
closed = 1;
nodes = (
"130 710 OFFCURVE",
"50 630 OFFCURVE",
"50 350 CURVE SMOOTH",
"50 70 OFFCURVE",
"130 -10 OFFCURVE",
"265 -10 CURVE SMOOTH",
"400 -10 OFFCURVE",
"480 70 OFFCURVE",
"480 350 CURVE SMOOTH",
"480 630 OFFCURVE",
"400 710 OFFCURVE",
"265 710 CURVE SMOOTH"
);
},
{
closed = 1;
nodes = (
"200 50 OFFCURVE",
"140 110 OFFCURVE",
"140 350 CURVE SMOOTH",
"140 590 OFFCURVE",
"200 650 OFFCURVE",
"265 650 CURVE SMOOTH",
"330 650 OFFCURVE",
"390 590 OFFCURVE",
"390 350 CURVE SMOOTH",
"390 110 OFFCURVE",
"330 50 OFFCURVE",
"265 50 CURVE SMOOTH"
);
},
{
closed = 1;
nodes = (
"205 760 LINE",
"267 834 LINE",
"330 760 LINE",
"390 760 LINE",
"315 890 LINE",
"220 890 LINE",
"145 760 LINE"
);
}
);
width = 530;
},
{
hints = (
{
place = "{45, 120}";
},
{
place = "{385, 120}";
},
{
horizontal = 1;
place = "{-10, 70}";
},
{
horizontal = 1;
place = "{640, 70}";
},
{
horizontal = 1;
place = "{640, 250}";
}
);
layerId = "2A85124F-80FE-40EA-AF86-869CC9CBC980";
paths = (
{
closed = 1;
nodes = (
"220 60 OFFCURVE",
"165 120 OFFCURVE",
"165 350 CURVE",
"165 580 OFFCURVE",
"220 640 OFFCURVE",
"275 640 CURVE",
"330 640 OFFCURVE",
"385 580 OFFCURVE",
"385 350 CURVE SMOOTH",
"385 120 OFFCURVE",
"330 60 OFFCURVE",
"275 60 CURVE SMOOTH"
);
},
{
closed = 1;
nodes = (
"135 710 OFFCURVE",
"45 620 OFFCURVE",
"45 350 CURVE",
"45 80 OFFCURVE",
"135 -10 OFFCURVE",
"275 -10 CURVE",
"415 -10 OFFCURVE",
"505 80 OFFCURVE",
"505 350 CURVE SMOOTH",
"505 620 OFFCURVE",
"415 710 OFFCURVE",
"275 710 CURVE"
);
},
{
closed = 1;
nodes = (
"221 760 LINE",
"277 830 LINE",
"333 760 LINE",
"410 760 LINE",
"330 890 LINE",
"225 890 LINE",
"145 760 LINE"
);
}
);
width = 550;
}
);
leftKerningGroup = O;
rightKerningGroup = O;
unicode = 00D4;
},
{
color = 4;
glyphname = Odieresis;
lastChange = "2016-09-02 12:49:06 +0000";
layers = (
{
hints = (
{
place = "{50, 90}";
},
{
place = "{140, 90}";
},
{
place = "{300, 90}";
},
{
place = "{390, 90}";
},
{
horizontal = 1;
place = "{-10, 60}";
},
{
horizontal = 1;
place = "{650, 60}";
},
{
horizontal = 1;
place = "{770, 110}";
}
);
layerId = UUID0;
paths = (
{
closed = 1;
nodes = (
"130 710 OFFCURVE",
"50 630 OFFCURVE",
"50 350 CURVE SMOOTH",
"50 70 OFFCURVE",
"130 -10 OFFCURVE",
"265 -10 CURVE SMOOTH",
"400 -10 OFFCURVE",
"480 70 OFFCURVE",
"480 350 CURVE SMOOTH",
"480 630 OFFCURVE",
"400 710 OFFCURVE",
"265 710 CURVE SMOOTH"
);
},
{
closed = 1;
nodes = (
"200 50 OFFCURVE",
"140 110 OFFCURVE",
"140 350 CURVE SMOOTH",
"140 590 OFFCURVE",
"200 650 OFFCURVE",
"265 650 CURVE SMOOTH",
"330 650 OFFCURVE",
"390 590 OFFCURVE",
"390 350 CURVE SMOOTH",
"390 110 OFFCURVE",
"330 50 OFFCURVE",
"265 50 CURVE SMOOTH"
);
},
{
closed = 1;
nodes = (
"140 880 LINE",
"140 770 LINE",
"230 770 LINE",
"230 880 LINE"
);
},
{
closed = 1;
nodes = (
"300 880 LINE",
"300 770 LINE",
"390 770 LINE",
"390 880 LINE"
);
}
);
width = 530;
},
{
hints = (
{
place = "{45, 120}";
},
{
place = "{140, 25}";
},
{
place = "{300, 110}";
},
{
place = "{385, 25}";
},
{
place = "{385, 120}";
},
{
place = "{140, 110}";
},
{
horizontal = 1;
place = "{-10, 70}";
},
{
horizontal = 1;
place = "{640, 70}";
},
{
horizontal = 1;
place = "{760, 120}";
}
);
layerId = "2A85124F-80FE-40EA-AF86-869CC9CBC980";
paths = (
{
closed = 1;
nodes = (
"220 60 OFFCURVE",
"165 120 OFFCURVE",
"165 350 CURVE",
"165 580 OFFCURVE",
"220 640 OFFCURVE",
"275 640 CURVE",
"330 640 OFFCURVE",
"385 580 OFFCURVE",
"385 350 CURVE SMOOTH",
"385 120 OFFCURVE",
"330 60 OFFCURVE",
"275 60 CURVE SMOOTH"
);
},
{
closed = 1;
nodes = (
"135 710 OFFCURVE",
"45 620 OFFCURVE",
"45 350 CURVE",
"45 80 OFFCURVE",
"135 -10 OFFCURVE",
"275 -10 CURVE",
"415 -10 OFFCURVE",
"505 80 OFFCURVE",
"505 350 CURVE SMOOTH",
"505 620 OFFCURVE",
"415 710 OFFCURVE",
"275 710 CURVE"
);
},
{
closed = 1;
nodes = (
"140 880 LINE",
"140 760 LINE",
"250 760 LINE",
"250 880 LINE"
);
},
{
closed = 1;
nodes = (
"300 880 LINE",
"300 760 LINE",
"410 760 LINE",
"410 880 LINE"
);
}
);
width = 550;
}
);
leftKerningGroup = O;
rightKerningGroup = O;
unicode = 00D6;
},
{
color = 4;
glyphname = Ograve;
lastChange = "2016-09-02 12:49:06 +0000";
layers = (
{
hints = (
{
place = "{50, 90}";
},
{
place = "{390, 90}";
},
{
horizontal = 1;
place = "{-10, 60}";
},
{
horizontal = 1;
place = "{650, 60}";
},
{
horizontal = 1;
place = "{760, 130}";
}
);
layerId = UUID0;
paths = (
{
closed = 1;
nodes = (
"130 710 OFFCURVE",
"50 630 OFFCURVE",
"50 350 CURVE SMOOTH",
"50 70 OFFCURVE",
"130 -10 OFFCURVE",
"265 -10 CURVE SMOOTH",
"400 -10 OFFCURVE",
"480 70 OFFCURVE",
"480 350 CURVE SMOOTH",
"480 630 OFFCURVE",
"400 710 OFFCURVE",
"265 710 CURVE SMOOTH"
);
},
{
closed = 1;
nodes = (
"200 50 OFFCURVE",
"140 110 OFFCURVE",
"140 350 CURVE SMOOTH",
"140 590 OFFCURVE",
"200 650 OFFCURVE",
"265 650 CURVE SMOOTH",
"330 650 OFFCURVE",
"390 590 OFFCURVE",
"390 350 CURVE SMOOTH",
"390 110 OFFCURVE",
"330 50 OFFCURVE",
"265 50 CURVE SMOOTH"
);
},
{
closed = 1;
nodes = (
"300 760 LINE",
"265 890 LINE",
"170 890 LINE",
"240 760 LINE"
);
}
);
width = 530;
},
{
hints = (
{
place = "{45, 120}";
},
{
place = "{385, 120}";
},
{
horizontal = 1;
place = "{-10, 70}";
},
{
horizontal = 1;
place = "{640, 70}";
},
{
horizontal = 1;
place = "{760, 130}";
}
);
layerId = "2A85124F-80FE-40EA-AF86-869CC9CBC980";
paths = (
{
closed = 1;
nodes = (
"220 60 OFFCURVE",
"165 120 OFFCURVE",
"165 350 CURVE",
"165 580 OFFCURVE",
"220 640 OFFCURVE",
"275 640 CURVE",
"330 640 OFFCURVE",
"385 580 OFFCURVE",
"385 350 CURVE SMOOTH",
"385 120 OFFCURVE",
"330 60 OFFCURVE",
"275 60 CURVE SMOOTH"
);
},
{
closed = 1;
nodes = (
"135 710 OFFCURVE",
"45 620 OFFCURVE",
"45 350 CURVE",
"45 80 OFFCURVE",
"135 -10 OFFCURVE",
"275 -10 CURVE",
"415 -10 OFFCURVE",
"505 80 OFFCURVE",
"505 350 CURVE SMOOTH",
"505 620 OFFCURVE",
"415 710 OFFCURVE",
"275 710 CURVE"
);
},
{
closed = 1;
nodes = (
"315 760 LINE",
"280 890 LINE",
"165 890 LINE",
"240 760 LINE"
);
}
);
width = 550;
}
);
leftKerningGroup = O;
rightKerningGroup = O;
unicode = 00D2;
},
{
color = 4;
glyphname = Omacron;
lastChange = "2016-09-02 12:49:06 +0000";
layers = (
{
hints = (
{
place = "{50, 90}";
},
{
place = "{390, 90}";
},
{
horizontal = 1;
place = "{-10, 60}";
},
{
horizontal = 1;
place = "{650, 60}";
},
{
horizontal = 1;
place = "{770, 60}";
}
);
layerId = UUID0;
paths = (
{
closed = 1;
nodes = (
"130 710 OFFCURVE",
"50 630 OFFCURVE",
"50 350 CURVE SMOOTH",
"50 70 OFFCURVE",
"130 -10 OFFCURVE",
"265 -10 CURVE SMOOTH",
"400 -10 OFFCURVE",
"480 70 OFFCURVE",
"480 350 CURVE SMOOTH",
"480 630 OFFCURVE",
"400 710 OFFCURVE",
"265 710 CURVE SMOOTH"
);
},
{
closed = 1;
nodes = (
"200 50 OFFCURVE",
"140 110 OFFCURVE",
"140 350 CURVE SMOOTH",
"140 590 OFFCURVE",
"200 650 OFFCURVE",
"265 650 CURVE SMOOTH",
"330 650 OFFCURVE",
"390 590 OFFCURVE",
"390 350 CURVE SMOOTH",
"390 110 OFFCURVE",
"330 50 OFFCURVE",
"265 50 CURVE SMOOTH"
);
},
{
closed = 1;
nodes = (
"150 770 LINE",
"380 770 LINE",
"380 830 LINE",
"150 830 LINE"
);
}
);
width = 530;
},
{
hints = (
{
place = "{45, 120}";
},
{
place = "{385, 120}";
},
{
horizontal = 1;
place = "{-10, 70}";
},
{
horizontal = 1;
place = "{640, 70}";
},
{
horizontal = 1;
place = "{760, 70}";
}
);
layerId = "2A85124F-80FE-40EA-AF86-869CC9CBC980";
paths = (
{
closed = 1;
nodes = (
"220 60 OFFCURVE",
"165 120 OFFCURVE",
"165 350 CURVE",
"165 580 OFFCURVE",
"220 640 OFFCURVE",
"275 640 CURVE",
"330 640 OFFCURVE",
"385 580 OFFCURVE",
"385 350 CURVE SMOOTH",
"385 120 OFFCURVE",
"330 60 OFFCURVE",
"275 60 CURVE SMOOTH"
);
},
{
closed = 1;
nodes = (
"135 710 OFFCURVE",
"45 620 OFFCURVE",
"45 350 CURVE",
"45 80 OFFCURVE",
"135 -10 OFFCURVE",
"275 -10 CURVE",
"415 -10 OFFCURVE",
"505 80 OFFCURVE",
"505 350 CURVE SMOOTH",
"505 620 OFFCURVE",
"415 710 OFFCURVE",
"275 710 CURVE"
);
},
{
closed = 1;
nodes = (
"155 760 LINE",
"395 760 LINE",
"395 830 LINE",
"155 830 LINE"
);
}
);
width = 550;
}
);
leftKerningGroup = O;
rightKerningGroup = O;
unicode = 014C;
},
{
color = 4;
glyphname = Oslash;
lastChange = "2016-09-02 12:49:06 +0000";
layers = (
{
hints = (
{
place = "{55, 90}";
},
{
place = "{395, 90}";
},
{
horizontal = 1;
place = "{-10, 60}";
},
{
horizontal = 1;
place = "{650, 60}";
}
);
layerId = UUID0;
paths = (
{
closed = 1;
nodes = (
"135 710 OFFCURVE",
"55 630 OFFCURVE",
"55 350 CURVE SMOOTH",
"55 253 OFFCURVE",
"65 180 OFFCURVE",
"83 126 CURVE",
"30 50 LINE",
"70 20 LINE",
"107 73 LINE",
"144 12 OFFCURVE",
"199 -10 OFFCURVE",
"270 -10 CURVE SMOOTH",
"405 -10 OFFCURVE",
"485 70 OFFCURVE",
"485 350 CURVE SMOOTH",
"485 447 OFFCURVE",
"475 520 OFFCURVE",
"457 574 CURVE",
"510 650 LINE",
"470 680 LINE",
"433 627 LINE",
"396 688 OFFCURVE",
"340 710 OFFCURVE",
"270 710 CURVE SMOOTH"
);
},
{
closed = 1;
nodes = (
"145 590 OFFCURVE",
"205 650 OFFCURVE",
"270 650 CURVE SMOOTH",
"312 650 OFFCURVE",
"351 625 OFFCURVE",
"374 543 CURVE",
"152 225 LINE",
"147 260 OFFCURVE",
"145 301 OFFCURVE",
"145 350 CURVE SMOOTH"
);
},
{
closed = 1;
nodes = (
"228 50 OFFCURVE",
"188 75 OFFCURVE",
"165 156 CURVE",
"388 475 LINE",
"392 440 OFFCURVE",
"395 399 OFFCURVE",
"395 350 CURVE SMOOTH",
"395 110 OFFCURVE",
"335 50 OFFCURVE",
"270 50 CURVE SMOOTH"
);
}
);
width = 540;
},
{
hints = (
{
place = "{45, 120}";
},
{
place = "{385, 120}";
},
{
horizontal = 1;
place = "{-10, 70}";
},
{
horizontal = 1;
place = "{640, 70}";
}
);
layerId = "2A85124F-80FE-40EA-AF86-869CC9CBC980";
paths = (
{
closed = 1;
nodes = (
"25 50 LINE",
"75 10 LINE",
"112 62 LINE",
"152 11 OFFCURVE",
"207 -10 OFFCURVE",
"275 -10 CURVE SMOOTH",
"415 -10 OFFCURVE",
"505 80 OFFCURVE",
"505 350 CURVE SMOOTH",
"505 447 OFFCURVE",
"493 520 OFFCURVE",
"472 575 CURVE",
"525 650 LINE",
"475 690 LINE",
"438 637 LINE",
"398 689 OFFCURVE",
"342 710 OFFCURVE",
"275 710 CURVE SMOOTH",
"135 710 OFFCURVE",
"45 620 OFFCURVE",
"45 350 CURVE SMOOTH",
"45 253 OFFCURVE",
"57 180 OFFCURVE",
"78 125 CURVE"
);
},
{
closed = 1;
nodes = (
"165 580 OFFCURVE",
"220 640 OFFCURVE",
"275 640 CURVE SMOOTH",
"310 640 OFFCURVE",
"346 615 OFFCURVE",
"366 535 CURVE",
"169 254 LINE",
"166 282 OFFCURVE",
"165 314 OFFCURVE",
"165 350 CURVE SMOOTH"
);
},
{
closed = 1;
nodes = (
"239 60 OFFCURVE",
"204 85 OFFCURVE",
"183 164 CURVE",
"381 445 LINE",
"383 417 OFFCURVE",
"385 386 OFFCURVE",
"385 350 CURVE SMOOTH",
"385 120 OFFCURVE",
"330 60 OFFCURVE",
"275 60 CURVE SMOOTH"
);
}
);
width = 550;
}
);
leftKerningGroup = O;
rightKerningGroup = O;
unicode = 00D8;
},
{
color = 4;
glyphname = Otilde;
lastChange = "2016-09-02 12:49:06 +0000";
layers = (
{
hints = (
{
place = "{50, 90}";
},
{
place = "{140, 50}";
},
{
place = "{330, 50}";
},
{
place = "{390, 90}";
},
{
horizontal = 1;
place = "{-10, 60}";
},
{
horizontal = 1;
place = "{650, 60}";
},
{
horizontal = 1;
place = "{760, 60}";
},
{
horizontal = 1;
place = "{820, 60}";
}
);
layerId = UUID0;
paths = (
{
closed = 1;
nodes = (
"130 710 OFFCURVE",
"50 630 OFFCURVE",
"50 350 CURVE SMOOTH",
"50 70 OFFCURVE",
"130 -10 OFFCURVE",
"265 -10 CURVE SMOOTH",
"400 -10 OFFCURVE",
"480 70 OFFCURVE",
"480 350 CURVE SMOOTH",
"480 630 OFFCURVE",
"400 710 OFFCURVE",
"265 710 CURVE SMOOTH"
);
},
{
closed = 1;
nodes = (
"200 50 OFFCURVE",
"140 110 OFFCURVE",
"140 350 CURVE SMOOTH",
"140 590 OFFCURVE",
"200 650 OFFCURVE",
"265 650 CURVE SMOOTH",
"330 650 OFFCURVE",
"390 590 OFFCURVE",
"390 350 CURVE SMOOTH",
"390 110 OFFCURVE",
"330 50 OFFCURVE",
"265 50 CURVE SMOOTH"
);
},
{
closed = 1;
nodes = (
"380 775 LINE",
"380 850 OFFCURVE",
"355 880 OFFCURVE",
"305 880 CURVE SMOOTH",
"255 880 OFFCURVE",
"240 820 OFFCURVE",
"215 820 CURVE SMOOTH",
"200 820 OFFCURVE",
"190 835 OFFCURVE",
"190 865 CURVE",
"140 865 LINE",
"140 790 OFFCURVE",
"165 760 OFFCURVE",
"215 760 CURVE SMOOTH",
"265 760 OFFCURVE",
"280 820 OFFCURVE",
"305 820 CURVE SMOOTH",
"320 820 OFFCURVE",
"330 805 OFFCURVE",
"330 775 CURVE"
);
}
);
width = 530;
},
{
hints = (
{
place = "{45, 120}";
},
{
place = "{145, 20}";
},
{
place = "{385, 120}";
},
{
place = "{145, 250}";
},
{
horizontal = 1;
place = "{-10, 70}";
},
{
horizontal = 1;
place = "{640, 70}";
},
{
horizontal = 1;
place = "{755, 80}";
},
{
horizontal = 1;
place = "{805, 30}";
},
{
horizontal = 1;
place = "{805, 80}";
}
);
layerId = "2A85124F-80FE-40EA-AF86-869CC9CBC980";
paths = (
{
closed = 1;
nodes = (
"220 60 OFFCURVE",
"165 120 OFFCURVE",
"165 350 CURVE",
"165 580 OFFCURVE",
"220 640 OFFCURVE",
"275 640 CURVE",
"330 640 OFFCURVE",
"385 580 OFFCURVE",
"385 350 CURVE SMOOTH",
"385 120 OFFCURVE",
"330 60 OFFCURVE",
"275 60 CURVE SMOOTH"
);
},
{
closed = 1;
nodes = (
"135 710 OFFCURVE",
"45 620 OFFCURVE",
"45 350 CURVE",
"45 80 OFFCURVE",
"135 -10 OFFCURVE",
"275 -10 CURVE",
"415 -10 OFFCURVE",
"505 80 OFFCURVE",
"505 350 CURVE SMOOTH",
"505 620 OFFCURVE",
"415 710 OFFCURVE",
"275 710 CURVE"
);
},
{
closed = 1;
nodes = (
"395 765 LINE",
"395 855 OFFCURVE",
"365 885 OFFCURVE",
"320 885 CURVE SMOOTH",
"275 885 OFFCURVE",
"255 835 OFFCURVE",
"230 835 CURVE SMOOTH",
"215 835 OFFCURVE",
"205 850 OFFCURVE",
"205 875 CURVE",
"145 875 LINE",
"145 785 OFFCURVE",
"175 755 OFFCURVE",
"220 755 CURVE SMOOTH",
"265 755 OFFCURVE",
"285 805 OFFCURVE",
"310 805 CURVE SMOOTH",
"325 805 OFFCURVE",
"335 790 OFFCURVE",
"335 765 CURVE"
);
}
);
width = 550;
}
);
leftKerningGroup = O;
rightKerningGroup = O;
unicode = 00D5;
},
{
color = 4;
glyphname = OE;
lastChange = "2016-09-02 12:49:06 +0000";
layers = (
{
hints = (
{
place = "{40, 90}";
},
{
place = "{360, 90}";
},
{
horizontal = 1;
place = "{0, 70}";
},
{
horizontal = 1;
place = "{330, 70}";
},
{
horizontal = 1;
place = "{630, 70}";
}
);
layerId = UUID0;
paths = (
{
closed = 1;
nodes = (
"330 700 LINE",
"140 700 OFFCURVE",
"40 600 OFFCURVE",
"40 350 CURVE",
"40 100 OFFCURVE",
"140 0 OFFCURVE",
"330 0 CURVE SMOOTH",
"700 0 LINE",
"700 70 LINE",
"450 70 LINE",
"450 330 LINE",
"670 330 LINE",
"670 400 LINE",
"450 400 LINE",
"450 630 LINE",
"700 630 LINE",
"700 700 LINE"
);
},
{
closed = 1;
nodes = (
"360 70 LINE",
"330 70 LINE SMOOTH",
"200 70 OFFCURVE",
"130 140 OFFCURVE",
"130 350 CURVE",
"130 560 OFFCURVE",
"200 630 OFFCURVE",
"330 630 CURVE SMOOTH",
"360 630 LINE"
);
}
);
width = 740;
},
{
hints = (
{
place = "{40, 120}";
},
{
place = "{360, 120}";
},
{
horizontal = 1;
place = "{0, 80}";
},
{
horizontal = 1;
place = "{325, 80}";
},
{
horizontal = 1;
place = "{620, 80}";
}
);
layerId = "2A85124F-80FE-40EA-AF86-869CC9CBC980";
paths = (
{
closed = 1;
nodes = (
"345 700 LINE",
"150 700 OFFCURVE",
"40 590 OFFCURVE",
"40 350 CURVE",
"40 110 OFFCURVE",
"150 0 OFFCURVE",
"345 0 CURVE SMOOTH",
"725 0 LINE",
"725 80 LINE",
"480 80 LINE",
"480 325 LINE",
"695 325 LINE",
"695 405 LINE",
"480 405 LINE",
"480 620 LINE",
"725 620 LINE",
"725 700 LINE"
);
},
{
closed = 1;
nodes = (
"360 80 LINE",
"345 80 LINE SMOOTH",
"230 80 OFFCURVE",
"160 150 OFFCURVE",
"160 350 CURVE",
"160 550 OFFCURVE",
"230 620 OFFCURVE",
"345 620 CURVE SMOOTH",
"360 620 LINE"
);
}
);
width = 765;
}
);
leftKerningGroup = O;
rightKerningGroup = E;
unicode = 0152;
},
{
color = 4;
glyphname = P;
lastChange = "2016-09-02 12:49:06 +0000";
layers = (
{
hints = (
{
place = "{70, 90}";
},
{
place = "{360, 90}";
},
{
horizontal = 1;
place = "{205, 70}";
},
{
horizontal = 1;
place = "{645, 65}";
},
{
horizontal = 1;
place = "{0, 21}";
target = up;
type = BottomGhost;
}
);
layerId = UUID0;
paths = (
{
closed = 1;
nodes = (
"160 275 LINE",
"160 645 LINE",
"230 645 LINE SMOOTH",
"320 645 OFFCURVE",
"360 605 OFFCURVE",
"360 460 CURVE SMOOTH",
"360 315 OFFCURVE",
"320 275 OFFCURVE",
"230 275 CURVE SMOOTH"
);
},
{
closed = 1;
nodes = (
"160 215 LINE",
"185 210 OFFCURVE",
"230 205 OFFCURVE",
"260 205 CURVE SMOOTH",
"390 205 OFFCURVE",
"450 265 OFFCURVE",
"450 460 CURVE SMOOTH",
"450 650 OFFCURVE",
"390 710 OFFCURVE",
"230 710 CURVE SMOOTH",
"170 710 OFFCURVE",
"120 705 OFFCURVE",
"70 690 CURVE",
"70 0 LINE",
"160 0 LINE"
);
}
);
width = 490;
},
{
hints = (
{
place = "{70, 120}";
},
{
place = "{360, 120}";
},
{
horizontal = 1;
place = "{200, 80}";
},
{
horizontal = 1;
place = "{635, 75}";
},
{
horizontal = 1;
place = "{0, 21}";
target = up;
type = BottomGhost;
}
);
layerId = "2A85124F-80FE-40EA-AF86-869CC9CBC980";
paths = (
{
closed = 1;
nodes = (
"190 280 LINE",
"190 635 LINE",
"245 635 LINE SMOOTH",
"320 635 OFFCURVE",
"360 595 OFFCURVE",
"360 460 CURVE SMOOTH",
"360 320 OFFCURVE",
"320 280 OFFCURVE",
"245 280 CURVE SMOOTH"
);
},
{
closed = 1;
nodes = (
"190 210 LINE",
"215 205 OFFCURVE",
"260 200 OFFCURVE",
"275 200 CURVE SMOOTH",
"410 200 OFFCURVE",
"480 270 OFFCURVE",
"480 460 CURVE SMOOTH",
"480 640 OFFCURVE",
"410 710 OFFCURVE",
"245 710 CURVE SMOOTH",
"170 710 OFFCURVE",
"120 705 OFFCURVE",
"70 690 CURVE",
"70 0 LINE",
"190 0 LINE"
);
}
);
width = 515;
}
);
leftKerningGroup = H;
rightKerningGroup = P;
unicode = 0050;
},
{
color = 4;
glyphname = Thorn;
lastChange = "2016-09-02 12:49:06 +0000";
layers = (
{
hints = (
{
place = "{70, 90}";
},
{
place = "{370, 90}";
},
{
horizontal = 1;
place = "{70, 65}";
},
{
horizontal = 1;
place = "{565, 65}";
},
{
horizontal = 1;
place = "{710, -20}";
target = down;
type = TopGhost;
},
{
horizontal = 1;
place = "{-10, 21}";
target = up;
type = BottomGhost;
}
);
layerId = UUID0;
paths = (
{
closed = 1;
nodes = (
"160 710 LINE",
"70 710 LINE",
"70 -10 LINE",
"160 -10 LINE",
"160 70 LINE",
"365 80 OFFCURVE",
"460 175 OFFCURVE",
"460 350 CURVE",
"460 525 OFFCURVE",
"365 620 OFFCURVE",
"160 630 CURVE"
);
},
{
closed = 1;
nodes = (
"160 565 LINE",
"300 560 OFFCURVE",
"370 490 OFFCURVE",
"370 350 CURVE",
"370 210 OFFCURVE",
"300 140 OFFCURVE",
"160 135 CURVE"
);
}
);
width = 500;
},
{
hints = (
{
place = "{70, 120}";
},
{
place = "{370, 120}";
},
{
horizontal = 1;
place = "{65, 75}";
},
{
horizontal = 1;
place = "{560, 75}";
},
{
horizontal = 1;
place = "{710, -20}";
target = down;
type = TopGhost;
},
{
horizontal = 1;
place = "{-10, 21}";
target = up;
type = BottomGhost;
}
);
layerId = "2A85124F-80FE-40EA-AF86-869CC9CBC980";
paths = (
{
closed = 1;
nodes = (
"190 710 LINE",
"70 710 LINE",
"70 -10 LINE",
"190 -10 LINE",
"190 65 LINE",
"400 75 OFFCURVE",
"490 175 OFFCURVE",
"490 350 CURVE SMOOTH",
"490 525 OFFCURVE",
"400 625 OFFCURVE",
"190 635 CURVE"
);
},
{
closed = 1;
nodes = (
"190 560 LINE",
"300 555 OFFCURVE",
"370 480 OFFCURVE",
"370 350 CURVE SMOOTH",
"370 220 OFFCURVE",
"300 145 OFFCURVE",
"190 140 CURVE"
);
}
);
width = 525;
}
);
leftKerningGroup = H;
rightKerningGroup = P;
unicode = 00DE;
},
{
color = 4;
glyphname = Q;
lastChange = "2016-09-02 12:49:06 +0000";
layers = (
{
hints = (
{
place = "{50, 90}";
},
{
place = "{390, 90}";
},
{
horizontal = 1;
place = "{-10, 60}";
},
{
horizontal = 1;
place = "{650, 60}";
}
);
layerId = UUID0;
paths = (
{
closed = 1;
nodes = (
"130 710 OFFCURVE",
"50 630 OFFCURVE",
"50 350 CURVE SMOOTH",
"50 70 OFFCURVE",
"130 -10 OFFCURVE",
"265 -10 CURVE SMOOTH",
"530 -10 LINE",
"530 30 LINE",
"500 40 OFFCURVE",
"460 50 OFFCURVE",
"410 50 CURVE",
"455 105 OFFCURVE",
"480 195 OFFCURVE",
"480 350 CURVE SMOOTH",
"480 630 OFFCURVE",
"400 710 OFFCURVE",
"265 710 CURVE SMOOTH"
);
},
{
closed = 1;
nodes = (
"200 50 OFFCURVE",
"140 110 OFFCURVE",
"140 350 CURVE SMOOTH",
"140 590 OFFCURVE",
"200 650 OFFCURVE",
"265 650 CURVE SMOOTH",
"330 650 OFFCURVE",
"390 590 OFFCURVE",
"390 350 CURVE SMOOTH",
"390 110 OFFCURVE",
"330 50 OFFCURVE",
"265 50 CURVE SMOOTH"
);
}
);
width = 540;
},
{
hints = (
{
place = "{45, 120}";
},
{
place = "{385, 120}";
},
{
horizontal = 1;
place = "{-10, 70}";
},
{
horizontal = 1;
place = "{640, 70}";
}
);
layerId = "2A85124F-80FE-40EA-AF86-869CC9CBC980";
paths = (
{
closed = 1;
nodes = (
"135 710 OFFCURVE",
"45 620 OFFCURVE",
"45 350 CURVE SMOOTH",
"45 80 OFFCURVE",
"135 -10 OFFCURVE",
"275 -10 CURVE SMOOTH",
"550 -10 LINE",
"550 40 LINE",
"520 50 OFFCURVE",
"490 60 OFFCURVE",
"430 60 CURVE",
"470 110 OFFCURVE",
"505 200 OFFCURVE",
"505 350 CURVE SMOOTH",
"505 620 OFFCURVE",
"415 710 OFFCURVE",
"275 710 CURVE SMOOTH"
);
},
{
closed = 1;
nodes = (
"225 60 OFFCURVE",
"165 110 OFFCURVE",
"165 350 CURVE SMOOTH",
"165 580 OFFCURVE",
"220 640 OFFCURVE",
"275 640 CURVE SMOOTH",
"330 640 OFFCURVE",
"385 580 OFFCURVE",
"385 350 CURVE SMOOTH",
"385 120 OFFCURVE",
"330 60 OFFCURVE",
"275 60 CURVE SMOOTH"
);
}
);
width = 555;
}
);
leftKerningGroup = O;
rightKerningGroup = O;
unicode = 0051;
},
{
color = 4;
glyphname = R;
lastChange = "2016-09-02 12:49:06 +0000";
layers = (
{
hints = (
{
place = "{70, 90}";
},
{
place = "{360, 90}";
},
{
horizontal = 1;
place = "{230, 70}";
},
{
horizontal = 1;
place = "{645, 65}";
},
{
horizontal = 1;
place = "{0, 21}";
target = up;
type = BottomGhost;
}
);
layerId = UUID0;
paths = (
{
closed = 1;
nodes = (
"450 650 OFFCURVE",
"390 710 OFFCURVE",
"230 710 CURVE SMOOTH",
"170 710 OFFCURVE",
"120 705 OFFCURVE",
"70 690 CURVE",
"70 0 LINE",
"160 0 LINE",
"160 230 LINE",
"260 230 LINE",
"370 0 LINE",
"470 0 LINE",
"350 250 LINE",
"415 275 OFFCURVE",
"450 335 OFFCURVE",
"450 470 CURVE SMOOTH"
);
},
{
closed = 1;
nodes = (
"160 300 LINE",
"160 645 LINE",
"230 645 LINE SMOOTH",
"320 645 OFFCURVE",
"360 605 OFFCURVE",
"360 470 CURVE SMOOTH",
"360 340 OFFCURVE",
"320 300 OFFCURVE",
"230 300 CURVE SMOOTH"
);
}
);
width = 505;
},
{
hints = (
{
place = "{70, 120}";
},
{
place = "{360, 120}";
},
{
horizontal = 1;
place = "{225, 80}";
},
{
horizontal = 1;
place = "{635, 75}";
},
{
horizontal = 1;
place = "{0, 21}";
target = up;
type = BottomGhost;
}
);
layerId = "2A85124F-80FE-40EA-AF86-869CC9CBC980";
paths = (
{
closed = 1;
nodes = (
"480 640 OFFCURVE",
"410 710 OFFCURVE",
"245 710 CURVE SMOOTH",
"170 710 OFFCURVE",
"120 705 OFFCURVE",
"70 690 CURVE",
"70 0 LINE",
"190 0 LINE",
"190 225 LINE",
"255 225 LINE",
"370 0 LINE",
"505 0 LINE",
"370 250 LINE",
"435 280 OFFCURVE",
"480 335 OFFCURVE",
"480 470 CURVE SMOOTH"
);
},
{
closed = 1;
nodes = (
"190 305 LINE",
"190 635 LINE",
"245 635 LINE SMOOTH",
"320 635 OFFCURVE",
"360 595 OFFCURVE",
"360 470 CURVE SMOOTH",
"360 345 OFFCURVE",
"320 305 OFFCURVE",
"245 305 CURVE SMOOTH"
);
}
);
width = 535;
}
);
leftKerningGroup = H;
rightKerningGroup = R;
unicode = 0052;
},
{
color = 4;
glyphname = Racute;
lastChange = "2016-09-02 12:49:06 +0000";
layers = (
{
hints = (
{
place = "{70, 90}";
},
{
place = "{360, 90}";
},
{
horizontal = 1;
place = "{230, 70}";
},
{
horizontal = 1;
place = "{645, 65}";
},
{
horizontal = 1;
place = "{750, 130}";
},
{
horizontal = 1;
place = "{0, 21}";
target = up;
type = BottomGhost;
}
);
layerId = UUID0;
paths = (
{
closed = 1;
nodes = (
"450 650 OFFCURVE",
"390 710 OFFCURVE",
"230 710 CURVE SMOOTH",
"170 710 OFFCURVE",
"120 705 OFFCURVE",
"70 690 CURVE",
"70 0 LINE",
"160 0 LINE",
"160 230 LINE",
"260 230 LINE",
"370 0 LINE",
"470 0 LINE",
"350 250 LINE",
"415 275 OFFCURVE",
"450 335 OFFCURVE",
"450 470 CURVE SMOOTH"
);
},
{
closed = 1;
nodes = (
"160 300 LINE",
"160 645 LINE",
"230 645 LINE SMOOTH",
"320 645 OFFCURVE",
"360 605 OFFCURVE",
"360 470 CURVE SMOOTH",
"360 340 OFFCURVE",
"320 300 OFFCURVE",
"230 300 CURVE SMOOTH"
);
},
{
closed = 1;
nodes = (
"260 750 LINE",
"330 880 LINE",
"235 880 LINE",
"200 750 LINE"
);
}
);
width = 505;
},
{
hints = (
{
place = "{70, 120}";
},
{
place = "{360, 120}";
},
{
horizontal = 1;
place = "{225, 80}";
},
{
horizontal = 1;
place = "{635, 75}";
},
{
horizontal = 1;
place = "{750, 130}";
},
{
horizontal = 1;
place = "{0, 21}";
target = up;
type = BottomGhost;
}
);
layerId = "2A85124F-80FE-40EA-AF86-869CC9CBC980";
paths = (
{
closed = 1;
nodes = (
"480 640 OFFCURVE",
"410 710 OFFCURVE",
"245 710 CURVE SMOOTH",
"170 710 OFFCURVE",
"120 705 OFFCURVE",
"70 690 CURVE",
"70 0 LINE",
"190 0 LINE",
"190 225 LINE",
"255 225 LINE",
"370 0 LINE",
"505 0 LINE",
"370 250 LINE",
"435 280 OFFCURVE",
"480 335 OFFCURVE",
"480 470 CURVE SMOOTH"
);
},
{
closed = 1;
nodes = (
"190 305 LINE",
"190 635 LINE",
"245 635 LINE SMOOTH",
"320 635 OFFCURVE",
"360 595 OFFCURVE",
"360 470 CURVE SMOOTH",
"360 345 OFFCURVE",
"320 305 OFFCURVE",
"245 305 CURVE SMOOTH"
);
},
{
closed = 1;
nodes = (
"280 750 LINE",
"355 880 LINE",
"240 880 LINE",
"205 750 LINE"
);
}
);
width = 535;
}
);
leftKerningGroup = H;
rightKerningGroup = R;
unicode = 0154;
},
{
color = 4;
glyphname = Rcaron;
lastChange = "2016-09-02 12:49:06 +0000";
layers = (
{
hints = (
{
place = "{70, 90}";
},
{
place = "{360, 90}";
},
{
horizontal = 1;
place = "{230, 70}";
},
{
horizontal = 1;
place = "{645, 65}";
},
{
horizontal = 1;
place = "{645, 235}";
},
{
horizontal = 1;
place = "{0, 21}";
target = up;
type = BottomGhost;
}
);
layerId = UUID0;
paths = (
{
closed = 1;
nodes = (
"450 650 OFFCURVE",
"390 710 OFFCURVE",
"230 710 CURVE SMOOTH",
"170 710 OFFCURVE",
"120 705 OFFCURVE",
"70 690 CURVE",
"70 0 LINE",
"160 0 LINE",
"160 230 LINE",
"260 230 LINE",
"370 0 LINE",
"470 0 LINE",
"350 250 LINE",
"415 275 OFFCURVE",
"450 335 OFFCURVE",
"450 470 CURVE SMOOTH"
);
},
{
closed = 1;
nodes = (
"160 300 LINE",
"160 645 LINE",
"230 645 LINE SMOOTH",
"320 645 OFFCURVE",
"360 605 OFFCURVE",
"360 470 CURVE SMOOTH",
"360 340 OFFCURVE",
"320 300 OFFCURVE",
"230 300 CURVE SMOOTH"
);
},
{
closed = 1;
nodes = (
"108 880 LINE",
"183 750 LINE",
"278 750 LINE",
"353 880 LINE",
"293 880 LINE",
"230 806 LINE",
"168 880 LINE"
);
}
);
width = 505;
},
{
hints = (
{
place = "{70, 120}";
},
{
place = "{360, 120}";
},
{
horizontal = 1;
place = "{225, 80}";
},
{
horizontal = 1;
place = "{635, 75}";
},
{
horizontal = 1;
place = "{635, 245}";
},
{
horizontal = 1;
place = "{0, 21}";
target = up;
type = BottomGhost;
}
);
layerId = "2A85124F-80FE-40EA-AF86-869CC9CBC980";
paths = (
{
closed = 1;
nodes = (
"480 640 OFFCURVE",
"410 710 OFFCURVE",
"245 710 CURVE SMOOTH",
"170 710 OFFCURVE",
"120 705 OFFCURVE",
"70 690 CURVE",
"70 0 LINE",
"190 0 LINE",
"190 225 LINE",
"255 225 LINE",
"370 0 LINE",
"505 0 LINE",
"370 250 LINE",
"435 280 OFFCURVE",
"480 335 OFFCURVE",
"480 470 CURVE SMOOTH"
);
},
{
closed = 1;
nodes = (
"190 305 LINE",
"190 635 LINE",
"245 635 LINE SMOOTH",
"320 635 OFFCURVE",
"360 595 OFFCURVE",
"360 470 CURVE SMOOTH",
"360 345 OFFCURVE",
"320 305 OFFCURVE",
"245 305 CURVE SMOOTH"
);
},
{
closed = 1;
nodes = (
"113 880 LINE",
"193 750 LINE",
"298 750 LINE",
"378 880 LINE",
"301 880 LINE",
"245 810 LINE",
"189 880 LINE"
);
}
);
width = 535;
}
);
leftKerningGroup = H;
rightKerningGroup = R;
unicode = 0158;
},
{
color = 4;
glyphname = Rcommaaccent;
lastChange = "2016-09-02 12:49:06 +0000";
layers = (
{
hints = (
{
place = "{70, 90}";
},
{
place = "{360, 90}";
},
{
horizontal = 1;
place = "{-200, 150}";
},
{
horizontal = 1;
place = "{230, 70}";
},
{
horizontal = 1;
place = "{645, 65}";
},
{
horizontal = 1;
place = "{0, 21}";
target = up;
type = BottomGhost;
}
);
layerId = UUID0;
paths = (
{
closed = 1;
nodes = (
"220 -200 LINE",
"280 -200 LINE",
"310 -50 LINE",
"220 -50 LINE"
);
},
{
closed = 1;
nodes = (
"450 650 OFFCURVE",
"390 710 OFFCURVE",
"230 710 CURVE SMOOTH",
"170 710 OFFCURVE",
"120 705 OFFCURVE",
"70 690 CURVE",
"70 0 LINE",
"160 0 LINE",
"160 230 LINE",
"260 230 LINE",
"370 0 LINE",
"470 0 LINE",
"350 250 LINE",
"415 275 OFFCURVE",
"450 335 OFFCURVE",
"450 470 CURVE SMOOTH"
);
},
{
closed = 1;
nodes = (
"160 300 LINE",
"160 645 LINE",
"230 645 LINE SMOOTH",
"320 645 OFFCURVE",
"360 605 OFFCURVE",
"360 470 CURVE SMOOTH",
"360 340 OFFCURVE",
"320 300 OFFCURVE",
"230 300 CURVE SMOOTH"
);
}
);
width = 505;
},
{
hints = (
{
place = "{70, 120}";
},
{
place = "{360, 120}";
},
{
horizontal = 1;
place = "{-200, 150}";
},
{
horizontal = 1;
place = "{225, 80}";
},
{
horizontal = 1;
place = "{635, 75}";
},
{
horizontal = 1;
place = "{0, 21}";
target = up;
type = BottomGhost;
}
);
layerId = "2A85124F-80FE-40EA-AF86-869CC9CBC980";
paths = (
{
closed = 1;
nodes = (
"480 640 OFFCURVE",
"410 710 OFFCURVE",
"245 710 CURVE SMOOTH",
"170 710 OFFCURVE",
"120 705 OFFCURVE",
"70 690 CURVE",
"70 0 LINE",
"190 0 LINE",
"190 225 LINE",
"255 225 LINE",
"370 0 LINE",
"505 0 LINE",
"370 250 LINE",
"435 280 OFFCURVE",
"480 335 OFFCURVE",
"480 470 CURVE SMOOTH"
);
},
{
closed = 1;
nodes = (
"190 305 LINE",
"190 635 LINE",
"245 635 LINE SMOOTH",
"320 635 OFFCURVE",
"360 595 OFFCURVE",
"360 470 CURVE SMOOTH",
"360 345 OFFCURVE",
"320 305 OFFCURVE",
"245 305 CURVE SMOOTH"
);
},
{
closed = 1;
nodes = (
"225 -200 LINE",
"300 -200 LINE",
"335 -50 LINE",
"225 -50 LINE"
);
}
);
width = 535;
}
);
leftKerningGroup = H;
rightKerningGroup = R;
unicode = 0156;
},
{
color = 4;
glyphname = S;
lastChange = "2016-09-02 12:49:06 +0000";
layers = (
{
hints = (
{
place = "{35, 90}";
},
{
place = "{320, 90}";
},
{
horizontal = 1;
place = "{-10, 65}";
},
{
horizontal = 1;
place = "{645, 65}";
}
);
layerId = UUID0;
paths = (
{
closed = 1;
nodes = (
"35 275 OFFCURVE",
"320 355 OFFCURVE",
"320 180 CURVE SMOOTH",
"320 95 OFFCURVE",
"280 55 OFFCURVE",
"165 55 CURVE SMOOTH",
"35 55 LINE",
"35 10 LINE",
"65 0 OFFCURVE",
"125 -10 OFFCURVE",
"185 -10 CURVE SMOOTH",
"350 -10 OFFCURVE",
"410 50 OFFCURVE",
"410 180 CURVE SMOOTH",
"410 425 OFFCURVE",
"125 345 OFFCURVE",
"125 530 CURVE SMOOTH",
"125 605 OFFCURVE",
"165 645 OFFCURVE",
"245 645 CURVE SMOOTH",
"375 645 LINE",
"375 690 LINE",
"345 700 OFFCURVE",
"285 710 OFFCURVE",
"225 710 CURVE SMOOTH",
"95 710 OFFCURVE",
"35 650 OFFCURVE",
"35 530 CURVE SMOOTH"
);
}
);
width = 445;
},
{
hints = (
{
place = "{30, 120}";
},
{
place = "{315, 120}";
},
{
horizontal = 1;
place = "{-10, 75}";
},
{
horizontal = 1;
place = "{635, 75}";
}
);
layerId = "2A85124F-80FE-40EA-AF86-869CC9CBC980";
paths = (
{
closed = 1;
nodes = (
"30 275 OFFCURVE",
"315 345 OFFCURVE",
"315 180 CURVE SMOOTH",
"315 105 OFFCURVE",
"275 65 OFFCURVE",
"175 65 CURVE SMOOTH",
"35 65 LINE",
"35 10 LINE",
"65 0 OFFCURVE",
"125 -10 OFFCURVE",
"195 -10 CURVE SMOOTH",
"365 -10 OFFCURVE",
"435 60 OFFCURVE",
"435 180 CURVE SMOOTH",
"435 425 OFFCURVE",
"150 355 OFFCURVE",
"150 530 CURVE SMOOTH",
"150 595 OFFCURVE",
"190 635 OFFCURVE",
"255 635 CURVE SMOOTH",
"395 635 LINE",
"395 690 LINE",
"365 700 OFFCURVE",
"305 710 OFFCURVE",
"235 710 CURVE SMOOTH",
"100 710 OFFCURVE",
"30 640 OFFCURVE",
"30 530 CURVE SMOOTH"
);
}
);
width = 465;
}
);
leftKerningGroup = S;
rightKerningGroup = S;
unicode = 0053;
},
{
color = 4;
glyphname = Sacute;
lastChange = "2016-09-02 12:49:06 +0000";
layers = (
{
hints = (
{
place = "{35, 90}";
},
{
place = "{320, 90}";
},
{
horizontal = 1;
place = "{-10, 65}";
},
{
horizontal = 1;
place = "{645, 65}";
},
{
horizontal = 1;
place = "{760, 130}";
}
);
layerId = UUID0;
paths = (
{
closed = 1;
nodes = (
"35 275 OFFCURVE",
"320 355 OFFCURVE",
"320 180 CURVE SMOOTH",
"320 95 OFFCURVE",
"280 55 OFFCURVE",
"165 55 CURVE SMOOTH",
"35 55 LINE",
"35 10 LINE",
"65 0 OFFCURVE",
"125 -10 OFFCURVE",
"185 -10 CURVE SMOOTH",
"350 -10 OFFCURVE",
"410 50 OFFCURVE",
"410 180 CURVE SMOOTH",
"410 425 OFFCURVE",
"125 345 OFFCURVE",
"125 530 CURVE SMOOTH",
"125 605 OFFCURVE",
"165 645 OFFCURVE",
"245 645 CURVE SMOOTH",
"375 645 LINE",
"375 690 LINE",
"345 700 OFFCURVE",
"285 710 OFFCURVE",
"225 710 CURVE SMOOTH",
"95 710 OFFCURVE",
"35 650 OFFCURVE",
"35 530 CURVE SMOOTH"
);
},
{
closed = 1;
nodes = (
"250 760 LINE",
"320 890 LINE",
"225 890 LINE",
"190 760 LINE"
);
}
);
width = 445;
},
{
hints = (
{
place = "{30, 120}";
},
{
place = "{315, 120}";
},
{
horizontal = 1;
place = "{-10, 75}";
},
{
horizontal = 1;
place = "{635, 75}";
},
{
horizontal = 1;
place = "{760, 130}";
}
);
layerId = "2A85124F-80FE-40EA-AF86-869CC9CBC980";
paths = (
{
closed = 1;
nodes = (
"30 275 OFFCURVE",
"315 345 OFFCURVE",
"315 180 CURVE SMOOTH",
"315 105 OFFCURVE",
"275 65 OFFCURVE",
"175 65 CURVE SMOOTH",
"35 65 LINE",
"35 10 LINE",
"65 0 OFFCURVE",
"125 -10 OFFCURVE",
"195 -10 CURVE SMOOTH",
"365 -10 OFFCURVE",
"435 60 OFFCURVE",
"435 180 CURVE SMOOTH",
"435 425 OFFCURVE",
"150 355 OFFCURVE",
"150 530 CURVE SMOOTH",
"150 595 OFFCURVE",
"190 635 OFFCURVE",
"255 635 CURVE SMOOTH",
"395 635 LINE",
"395 690 LINE",
"365 700 OFFCURVE",
"305 710 OFFCURVE",
"235 710 CURVE SMOOTH",
"100 710 OFFCURVE",
"30 640 OFFCURVE",
"30 530 CURVE SMOOTH"
);
},
{
closed = 1;
nodes = (
"265 760 LINE",
"340 890 LINE",
"225 890 LINE",
"190 760 LINE"
);
}
);
width = 465;
}
);
leftKerningGroup = S;
rightKerningGroup = S;
unicode = 015A;
},
{
color = 4;
glyphname = Scaron;
lastChange = "2016-09-02 12:49:06 +0000";
layers = (
{
hints = (
{
place = "{35, 90}";
},
{
place = "{320, 90}";
},
{
horizontal = 1;
place = "{-10, 65}";
},
{
horizontal = 1;
place = "{645, 65}";
},
{
horizontal = 1;
place = "{645, 245}";
}
);
layerId = UUID0;
paths = (
{
closed = 1;
nodes = (
"35 275 OFFCURVE",
"320 355 OFFCURVE",
"320 180 CURVE SMOOTH",
"320 95 OFFCURVE",
"280 55 OFFCURVE",
"165 55 CURVE SMOOTH",
"35 55 LINE",
"35 10 LINE",
"65 0 OFFCURVE",
"125 -10 OFFCURVE",
"185 -10 CURVE SMOOTH",
"350 -10 OFFCURVE",
"410 50 OFFCURVE",
"410 180 CURVE SMOOTH",
"410 425 OFFCURVE",
"125 345 OFFCURVE",
"125 530 CURVE SMOOTH",
"125 605 OFFCURVE",
"165 645 OFFCURVE",
"245 645 CURVE SMOOTH",
"375 645 LINE",
"375 690 LINE",
"345 700 OFFCURVE",
"285 710 OFFCURVE",
"225 710 CURVE SMOOTH",
"95 710 OFFCURVE",
"35 650 OFFCURVE",
"35 530 CURVE SMOOTH"
);
},
{
closed = 1;
nodes = (
"93 890 LINE",
"168 760 LINE",
"263 760 LINE",
"338 890 LINE",
"278 890 LINE",
"215 816 LINE",
"153 890 LINE"
);
}
);
width = 445;
},
{
hints = (
{
place = "{30, 120}";
},
{
place = "{315, 120}";
},
{
horizontal = 1;
place = "{-10, 75}";
},
{
horizontal = 1;
place = "{635, 75}";
},
{
horizontal = 1;
place = "{890, -20}";
target = down;
type = TopGhost;
}
);
layerId = "2A85124F-80FE-40EA-AF86-869CC9CBC980";
paths = (
{
closed = 1;
nodes = (
"30 275 OFFCURVE",
"315 345 OFFCURVE",
"315 180 CURVE SMOOTH",
"315 105 OFFCURVE",
"275 65 OFFCURVE",
"175 65 CURVE SMOOTH",
"35 65 LINE",
"35 10 LINE",
"65 0 OFFCURVE",
"125 -10 OFFCURVE",
"195 -10 CURVE SMOOTH",
"365 -10 OFFCURVE",
"435 60 OFFCURVE",
"435 180 CURVE SMOOTH",
"435 425 OFFCURVE",
"150 355 OFFCURVE",
"150 530 CURVE SMOOTH",
"150 595 OFFCURVE",
"190 635 OFFCURVE",
"255 635 CURVE SMOOTH",
"395 635 LINE",
"395 690 LINE",
"365 700 OFFCURVE",
"305 710 OFFCURVE",
"235 710 CURVE SMOOTH",
"100 710 OFFCURVE",
"30 640 OFFCURVE",
"30 530 CURVE SMOOTH"
);
},
{
closed = 1;
nodes = (
"93 890 LINE",
"173 760 LINE",
"278 760 LINE",
"358 890 LINE",
"281 890 LINE",
"225 820 LINE",
"169 890 LINE"
);
}
);
width = 465;
}
);
leftKerningGroup = S;
rightKerningGroup = S;
unicode = 0160;
},
{
color = 4;
glyphname = Scedilla;
lastChange = "2016-09-02 12:49:06 +0000";
layers = (
{
hints = (
{
place = "{35, 90}";
},
{
place = "{185, 150}";
},
{
place = "{270, 65}";
},
{
place = "{320, 90}";
},
{
horizontal = 1;
place = "{-165, 45}";
},
{
horizontal = 1;
place = "{-70, 45}";
},
{
horizontal = 1;
place = "{-10, 65}";
},
{
horizontal = 1;
place = "{645, 65}";
}
);
layerId = UUID0;
paths = (
{
closed = 1;
nodes = (
"235 -25 LINE",
"235 -7 LINE",
"362 4 OFFCURVE",
"410 64 OFFCURVE",
"410 180 CURVE SMOOTH",
"410 425 OFFCURVE",
"125 345 OFFCURVE",
"125 530 CURVE SMOOTH",
"125 605 OFFCURVE",
"165 645 OFFCURVE",
"245 645 CURVE SMOOTH",
"375 645 LINE",
"375 690 LINE",
"345 700 OFFCURVE",
"285 710 OFFCURVE",
"225 710 CURVE SMOOTH",
"95 710 OFFCURVE",
"35 650 OFFCURVE",
"35 530 CURVE SMOOTH",
"35 275 OFFCURVE",
"320 355 OFFCURVE",
"320 180 CURVE SMOOTH",
"320 95 OFFCURVE",
"280 55 OFFCURVE",
"165 55 CURVE SMOOTH",
"35 55 LINE",
"35 10 LINE",
"65 0 OFFCURVE",
"125 -10 OFFCURVE",
"185 -10 CURVE",
"185 -70 LINE",
"240 -70 LINE SMOOTH",
"260 -70 OFFCURVE",
"270 -80 OFFCURVE",
"270 -95 CURVE SMOOTH",
"270 -110 OFFCURVE",
"260 -120 OFFCURVE",
"230 -120 CURVE SMOOTH",
"165 -120 LINE",
"165 -150 LINE",
"165 -150 OFFCURVE",
"195 -165 OFFCURVE",
"240 -165 CURVE SMOOTH",
"305 -165 OFFCURVE",
"335 -135 OFFCURVE",
"335 -95 CURVE SMOOTH",
"335 -55 OFFCURVE",
"305 -25 OFFCURVE",
"250 -25 CURVE SMOOTH"
);
}
);
width = 445;
},
{
hints = (
{
place = "{30, 120}";
},
{
place = "{185, 160}";
},
{
place = "{315, 120}";
},
{
horizontal = 1;
place = "{-170, 49}";
},
{
horizontal = 1;
place = "{-79, 49}";
},
{
horizontal = 1;
place = "{-10, 75}";
},
{
horizontal = 1;
place = "{635, 75}";
}
);
layerId = "2A85124F-80FE-40EA-AF86-869CC9CBC980";
paths = (
{
closed = 1;
nodes = (
"240 -30 LINE",
"240 -8 LINE",
"377 3 OFFCURVE",
"435 71 OFFCURVE",
"435 180 CURVE SMOOTH",
"435 425 OFFCURVE",
"150 355 OFFCURVE",
"150 530 CURVE SMOOTH",
"150 595 OFFCURVE",
"190 635 OFFCURVE",
"255 635 CURVE SMOOTH",
"395 635 LINE",
"395 690 LINE",
"365 700 OFFCURVE",
"305 710 OFFCURVE",
"235 710 CURVE SMOOTH",
"100 710 OFFCURVE",
"30 640 OFFCURVE",
"30 530 CURVE SMOOTH",
"30 275 OFFCURVE",
"315 345 OFFCURVE",
"315 180 CURVE SMOOTH",
"315 105 OFFCURVE",
"275 65 OFFCURVE",
"175 65 CURVE SMOOTH",
"35 65 LINE",
"35 10 LINE",
"63 0 OFFCURVE",
"119 -9 OFFCURVE",
"185 -10 CURVE",
"185 -79 LINE",
"240 -79 LINE SMOOTH",
"265 -79 OFFCURVE",
"270 -90 OFFCURVE",
"270 -100 CURVE SMOOTH",
"270 -111 OFFCURVE",
"265 -121 OFFCURVE",
"235 -121 CURVE SMOOTH",
"170 -121 LINE",
"170 -155 LINE",
"170 -155 OFFCURVE",
"195 -170 OFFCURVE",
"245 -170 CURVE SMOOTH",
"310 -170 OFFCURVE",
"345 -140 OFFCURVE",
"345 -100 CURVE SMOOTH",
"345 -60 OFFCURVE",
"315 -30 OFFCURVE",
"255 -30 CURVE SMOOTH"
);
}
);
width = 465;
}
);
leftKerningGroup = S;
rightKerningGroup = S;
unicode = 015E;
},
{
color = 4;
glyphname = T;
lastChange = "2016-09-02 12:49:06 +0000";
layers = (
{
hints = (
{
place = "{170, 90}";
},
{
horizontal = 1;
place = "{630, 70}";
},
{
horizontal = 1;
place = "{0, 21}";
target = up;
type = BottomGhost;
}
);
layerId = UUID0;
paths = (
{
closed = 1;
nodes = (
"10 630 LINE",
"170 630 LINE",
"170 0 LINE",
"260 0 LINE",
"260 630 LINE",
"420 630 LINE",
"420 700 LINE",
"10 700 LINE"
);
}
);
width = 430;
},
{
hints = (
{
place = "{165, 120}";
},
{
horizontal = 1;
place = "{620, 80}";
},
{
horizontal = 1;
place = "{0, 21}";
target = up;
type = BottomGhost;
}
);
layerId = "2A85124F-80FE-40EA-AF86-869CC9CBC980";
paths = (
{
closed = 1;
nodes = (
"10 620 LINE",
"165 620 LINE",
"165 0 LINE",
"285 0 LINE",
"285 620 LINE",
"440 620 LINE",
"440 700 LINE",
"10 700 LINE"
);
}
);
width = 450;
}
);
leftKerningGroup = T;
rightKerningGroup = T;
unicode = 0054;
},
{
color = 4;
glyphname = U;
lastChange = "2016-09-02 12:49:06 +0000";
layers = (
{
hints = (
{
place = "{60, 90}";
},
{
place = "{370, 90}";
},
{
horizontal = 1;
place = "{-10, 60}";
},
{
horizontal = 1;
place = "{700, -20}";
target = down;
type = TopGhost;
}
);
layerId = UUID0;
paths = (
{
closed = 1;
nodes = (
"190 50 OFFCURVE",
"150 90 OFFCURVE",
"150 240 CURVE SMOOTH",
"150 700 LINE",
"60 700 LINE",
"60 240 LINE SMOOTH",
"60 50 OFFCURVE",
"120 -10 OFFCURVE",
"260 -10 CURVE SMOOTH",
"400 -10 OFFCURVE",
"460 50 OFFCURVE",
"460 240 CURVE SMOOTH",
"460 700 LINE",
"370 700 LINE",
"370 240 LINE SMOOTH",
"370 90 OFFCURVE",
"330 50 OFFCURVE",
"260 50 CURVE SMOOTH"
);
}
);
width = 520;
},
{
hints = (
{
place = "{60, 120}";
},
{
place = "{370, 120}";
},
{
horizontal = 1;
place = "{-10, 70}";
},
{
horizontal = 1;
place = "{700, -20}";
target = down;
type = TopGhost;
}
);
layerId = "2A85124F-80FE-40EA-AF86-869CC9CBC980";
paths = (
{
closed = 1;
nodes = (
"220 60 OFFCURVE",
"180 100 OFFCURVE",
"180 240 CURVE SMOOTH",
"180 700 LINE",
"60 700 LINE",
"60 240 LINE SMOOTH",
"60 60 OFFCURVE",
"130 -10 OFFCURVE",
"275 -10 CURVE SMOOTH",
"420 -10 OFFCURVE",
"490 60 OFFCURVE",
"490 240 CURVE SMOOTH",
"490 700 LINE",
"370 700 LINE",
"370 240 LINE SMOOTH",
"370 100 OFFCURVE",
"330 60 OFFCURVE",
"275 60 CURVE SMOOTH"
);
}
);
width = 550;
}
);
leftKerningGroup = U;
rightKerningGroup = U;
unicode = 0055;
},
{
color = 4;
glyphname = Uacute;
lastChange = "2016-09-02 12:49:06 +0000";
layers = (
{
hints = (
{
place = "{60, 90}";
},
{
place = "{370, 90}";
},
{
horizontal = 1;
place = "{-10, 60}";
},
{
horizontal = 1;
place = "{740, 130}";
},
{
horizontal = 1;
place = "{700, -20}";
target = down;
type = TopGhost;
}
);
layerId = UUID0;
paths = (
{
closed = 1;
nodes = (
"190 50 OFFCURVE",
"150 90 OFFCURVE",
"150 240 CURVE SMOOTH",
"150 700 LINE",
"60 700 LINE",
"60 240 LINE SMOOTH",
"60 50 OFFCURVE",
"120 -10 OFFCURVE",
"260 -10 CURVE SMOOTH",
"400 -10 OFFCURVE",
"460 50 OFFCURVE",
"460 240 CURVE SMOOTH",
"460 700 LINE",
"370 700 LINE",
"370 240 LINE SMOOTH",
"370 90 OFFCURVE",
"330 50 OFFCURVE",
"260 50 CURVE SMOOTH"
);
},
{
closed = 1;
nodes = (
"285 740 LINE",
"355 870 LINE",
"260 870 LINE",
"225 740 LINE"
);
}
);
width = 520;
},
{
hints = (
{
place = "{60, 120}";
},
{
place = "{370, 120}";
},
{
horizontal = 1;
place = "{-10, 70}";
},
{
horizontal = 1;
place = "{740, 130}";
},
{
horizontal = 1;
place = "{700, -20}";
target = down;
type = TopGhost;
}
);
layerId = "2A85124F-80FE-40EA-AF86-869CC9CBC980";
paths = (
{
closed = 1;
nodes = (
"220 60 OFFCURVE",
"180 100 OFFCURVE",
"180 240 CURVE SMOOTH",
"180 700 LINE",
"60 700 LINE",
"60 240 LINE SMOOTH",
"60 60 OFFCURVE",
"130 -10 OFFCURVE",
"275 -10 CURVE SMOOTH",
"420 -10 OFFCURVE",
"490 60 OFFCURVE",
"490 240 CURVE SMOOTH",
"490 700 LINE",
"370 700 LINE",
"370 240 LINE SMOOTH",
"370 100 OFFCURVE",
"330 60 OFFCURVE",
"275 60 CURVE SMOOTH"
);
},
{
closed = 1;
nodes = (
"305 740 LINE",
"380 870 LINE",
"265 870 LINE",
"230 740 LINE"
);
}
);
width = 550;
}
);
leftKerningGroup = U;
rightKerningGroup = U;
unicode = 00DA;
},
{
color = 4;
glyphname = Ucircumflex;
lastChange = "2016-09-02 12:49:06 +0000";
layers = (
{
hints = (
{
place = "{60, 90}";
},
{
place = "{370, 90}";
},
{
horizontal = 1;
place = "{-10, 60}";
},
{
horizontal = 1;
place = "{700, -20}";
target = down;
type = TopGhost;
},
{
horizontal = 1;
place = "{870, -20}";
target = down;
type = TopGhost;
}
);
layerId = UUID0;
paths = (
{
closed = 1;
nodes = (
"190 50 OFFCURVE",
"150 90 OFFCURVE",
"150 240 CURVE SMOOTH",
"150 700 LINE",
"60 700 LINE",
"60 240 LINE SMOOTH",
"60 50 OFFCURVE",
"120 -10 OFFCURVE",
"260 -10 CURVE SMOOTH",
"400 -10 OFFCURVE",
"460 50 OFFCURVE",
"460 240 CURVE SMOOTH",
"460 700 LINE",
"370 700 LINE",
"370 240 LINE SMOOTH",
"370 90 OFFCURVE",
"330 50 OFFCURVE",
"260 50 CURVE SMOOTH"
);
},
{
closed = 1;
nodes = (
"198 740 LINE",
"260 814 LINE",
"323 740 LINE",
"383 740 LINE",
"308 870 LINE",
"213 870 LINE",
"138 740 LINE"
);
}
);
width = 520;
},
{
hints = (
{
place = "{60, 120}";
},
{
place = "{370, 120}";
},
{
horizontal = 1;
place = "{-10, 70}";
},
{
horizontal = 1;
place = "{700, -20}";
target = down;
type = TopGhost;
},
{
horizontal = 1;
place = "{870, -20}";
target = down;
type = TopGhost;
}
);
layerId = "2A85124F-80FE-40EA-AF86-869CC9CBC980";
paths = (
{
closed = 1;
nodes = (
"220 60 OFFCURVE",
"180 100 OFFCURVE",
"180 240 CURVE SMOOTH",
"180 700 LINE",
"60 700 LINE",
"60 240 LINE SMOOTH",
"60 60 OFFCURVE",
"130 -10 OFFCURVE",
"275 -10 CURVE SMOOTH",
"420 -10 OFFCURVE",
"490 60 OFFCURVE",
"490 240 CURVE SMOOTH",
"490 700 LINE",
"370 700 LINE",
"370 240 LINE SMOOTH",
"370 100 OFFCURVE",
"330 60 OFFCURVE",
"275 60 CURVE SMOOTH"
);
},
{
closed = 1;
nodes = (
"219 740 LINE",
"275 810 LINE",
"331 740 LINE",
"408 740 LINE",
"328 870 LINE",
"223 870 LINE",
"143 740 LINE"
);
}
);
width = 550;
}
);
leftKerningGroup = U;
rightKerningGroup = U;
unicode = 00DB;
},
{
color = 4;
glyphname = Udieresis;
lastChange = "2016-09-02 12:49:06 +0000";
layers = (
{
hints = (
{
place = "{60, 90}";
},
{
place = "{135, 90}";
},
{
place = "{295, 90}";
},
{
place = "{370, 90}";
},
{
horizontal = 1;
place = "{-10, 60}";
},
{
horizontal = 1;
place = "{750, 110}";
},
{
horizontal = 1;
place = "{700, -20}";
target = down;
type = TopGhost;
}
);
layerId = UUID0;
paths = (
{
closed = 1;
nodes = (
"190 50 OFFCURVE",
"150 90 OFFCURVE",
"150 240 CURVE SMOOTH",
"150 700 LINE",
"60 700 LINE",
"60 240 LINE SMOOTH",
"60 50 OFFCURVE",
"120 -10 OFFCURVE",
"260 -10 CURVE SMOOTH",
"400 -10 OFFCURVE",
"460 50 OFFCURVE",
"460 240 CURVE SMOOTH",
"460 700 LINE",
"370 700 LINE",
"370 240 LINE SMOOTH",
"370 90 OFFCURVE",
"330 50 OFFCURVE",
"260 50 CURVE SMOOTH"
);
},
{
closed = 1;
nodes = (
"135 860 LINE",
"135 750 LINE",
"225 750 LINE",
"225 860 LINE"
);
},
{
closed = 1;
nodes = (
"295 860 LINE",
"295 750 LINE",
"385 750 LINE",
"385 860 LINE"
);
}
);
width = 520;
},
{
hints = (
{
place = "{60, 120}";
},
{
place = "{140, 110}";
},
{
place = "{300, 110}";
},
{
place = "{370, 120}";
},
{
horizontal = 1;
place = "{-10, 70}";
},
{
horizontal = 1;
place = "{740, 120}";
},
{
horizontal = 1;
place = "{700, -20}";
target = down;
type = TopGhost;
}
);
layerId = "2A85124F-80FE-40EA-AF86-869CC9CBC980";
paths = (
{
closed = 1;
nodes = (
"220 60 OFFCURVE",
"180 100 OFFCURVE",
"180 240 CURVE SMOOTH",
"180 700 LINE",
"60 700 LINE",
"60 240 LINE SMOOTH",
"60 60 OFFCURVE",
"130 -10 OFFCURVE",
"275 -10 CURVE SMOOTH",
"420 -10 OFFCURVE",
"490 60 OFFCURVE",
"490 240 CURVE SMOOTH",
"490 700 LINE",
"370 700 LINE",
"370 240 LINE SMOOTH",
"370 100 OFFCURVE",
"330 60 OFFCURVE",
"275 60 CURVE SMOOTH"
);
},
{
closed = 1;
nodes = (
"140 860 LINE",
"140 740 LINE",
"250 740 LINE",
"250 860 LINE"
);
},
{
closed = 1;
nodes = (
"300 860 LINE",
"300 740 LINE",
"410 740 LINE",
"410 860 LINE"
);
}
);
width = 550;
}
);
leftKerningGroup = U;
rightKerningGroup = U;
unicode = 00DC;
},
{
color = 4;
glyphname = Ugrave;
lastChange = "2016-09-02 12:49:06 +0000";
layers = (
{
hints = (
{
place = "{60, 90}";
},
{
place = "{370, 90}";
},
{
horizontal = 1;
place = "{-10, 60}";
},
{
horizontal = 1;
place = "{740, 130}";
},
{
horizontal = 1;
place = "{700, -20}";
target = down;
type = TopGhost;
}
);
layerId = UUID0;
paths = (
{
closed = 1;
nodes = (
"190 50 OFFCURVE",
"150 90 OFFCURVE",
"150 240 CURVE SMOOTH",
"150 700 LINE",
"60 700 LINE",
"60 240 LINE SMOOTH",
"60 50 OFFCURVE",
"120 -10 OFFCURVE",
"260 -10 CURVE SMOOTH",
"400 -10 OFFCURVE",
"460 50 OFFCURVE",
"460 240 CURVE SMOOTH",
"460 700 LINE",
"370 700 LINE",
"370 240 LINE SMOOTH",
"370 90 OFFCURVE",
"330 50 OFFCURVE",
"260 50 CURVE SMOOTH"
);
},
{
closed = 1;
nodes = (
"295 740 LINE",
"260 870 LINE",
"165 870 LINE",
"235 740 LINE"
);
}
);
width = 520;
},
{
hints = (
{
place = "{60, 120}";
},
{
place = "{370, 120}";
},
{
horizontal = 1;
place = "{-10, 70}";
},
{
horizontal = 1;
place = "{740, 130}";
},
{
horizontal = 1;
place = "{700, -20}";
target = down;
type = TopGhost;
}
);
layerId = "2A85124F-80FE-40EA-AF86-869CC9CBC980";
paths = (
{
closed = 1;
nodes = (
"220 60 OFFCURVE",
"180 100 OFFCURVE",
"180 240 CURVE SMOOTH",
"180 700 LINE",
"60 700 LINE",
"60 240 LINE SMOOTH",
"60 60 OFFCURVE",
"130 -10 OFFCURVE",
"275 -10 CURVE SMOOTH",
"420 -10 OFFCURVE",
"490 60 OFFCURVE",
"490 240 CURVE SMOOTH",
"490 700 LINE",
"370 700 LINE",
"370 240 LINE SMOOTH",
"370 100 OFFCURVE",
"330 60 OFFCURVE",
"275 60 CURVE SMOOTH"
);
},
{
closed = 1;
nodes = (
"320 740 LINE",
"285 870 LINE",
"170 870 LINE",
"245 740 LINE"
);
}
);
width = 550;
}
);
leftKerningGroup = U;
rightKerningGroup = U;
unicode = 00D9;
},
{
color = 4;
glyphname = Umacron;
lastChange = "2016-09-02 12:49:06 +0000";
layers = (
{
hints = (
{
place = "{60, 90}";
},
{
place = "{370, 90}";
},
{
horizontal = 1;
place = "{-10, 60}";
},
{
horizontal = 1;
place = "{770, 60}";
},
{
horizontal = 1;
place = "{700, -20}";
target = down;
type = TopGhost;
}
);
layerId = UUID0;
paths = (
{
closed = 1;
nodes = (
"190 50 OFFCURVE",
"150 90 OFFCURVE",
"150 240 CURVE SMOOTH",
"150 700 LINE",
"60 700 LINE",
"60 240 LINE SMOOTH",
"60 50 OFFCURVE",
"120 -10 OFFCURVE",
"260 -10 CURVE SMOOTH",
"400 -10 OFFCURVE",
"460 50 OFFCURVE",
"460 240 CURVE SMOOTH",
"460 700 LINE",
"370 700 LINE",
"370 240 LINE SMOOTH",
"370 90 OFFCURVE",
"330 50 OFFCURVE",
"260 50 CURVE SMOOTH"
);
},
{
closed = 1;
nodes = (
"145 770 LINE",
"375 770 LINE",
"375 830 LINE",
"145 830 LINE"
);
}
);
width = 520;
},
{
hints = (
{
place = "{60, 120}";
},
{
place = "{370, 120}";
},
{
horizontal = 1;
place = "{-10, 70}";
},
{
horizontal = 1;
place = "{760, 70}";
},
{
horizontal = 1;
place = "{700, -20}";
target = down;
type = TopGhost;
}
);
layerId = "2A85124F-80FE-40EA-AF86-869CC9CBC980";
paths = (
{
closed = 1;
nodes = (
"220 60 OFFCURVE",
"180 100 OFFCURVE",
"180 240 CURVE SMOOTH",
"180 700 LINE",
"60 700 LINE",
"60 240 LINE SMOOTH",
"60 60 OFFCURVE",
"130 -10 OFFCURVE",
"275 -10 CURVE SMOOTH",
"420 -10 OFFCURVE",
"490 60 OFFCURVE",
"490 240 CURVE SMOOTH",
"490 700 LINE",
"370 700 LINE",
"370 240 LINE SMOOTH",
"370 100 OFFCURVE",
"330 60 OFFCURVE",
"275 60 CURVE SMOOTH"
);
},
{
closed = 1;
nodes = (
"155 760 LINE",
"395 760 LINE",
"395 830 LINE",
"155 830 LINE"
);
}
);
width = 550;
}
);
leftKerningGroup = U;
rightKerningGroup = U;
unicode = 016A;
},
{
color = 4;
glyphname = Uogonek;
lastChange = "2016-09-02 12:49:06 +0000";
layers = (
{
hints = (
{
place = "{60, 90}";
},
{
place = "{215, 65}";
},
{
place = "{370, 90}";
},
{
horizontal = 1;
place = "{-160, 56}";
},
{
horizontal = 1;
place = "{-9, 59}";
},
{
horizontal = 1;
place = "{700, -20}";
target = down;
type = TopGhost;
}
);
layerId = UUID0;
paths = (
{
closed = 1;
nodes = (
"280 -9 LINE",
"406 -4 OFFCURVE",
"460 59 OFFCURVE",
"460 240 CURVE SMOOTH",
"460 700 LINE",
"370 700 LINE",
"370 240 LINE SMOOTH",
"370 90 OFFCURVE",
"330 50 OFFCURVE",
"260 50 CURVE SMOOTH",
"190 50 OFFCURVE",
"150 90 OFFCURVE",
"150 240 CURVE SMOOTH",
"150 700 LINE",
"60 700 LINE",
"60 240 LINE SMOOTH",
"60 61 OFFCURVE",
"113 -2 OFFCURVE",
"234 -9 CURVE",
"227 -22 OFFCURVE",
"215 -48 OFFCURVE",
"215 -80 CURVE SMOOTH",
"215 -130 OFFCURVE",
"245 -160 OFFCURVE",
"300 -160 CURVE SMOOTH",
"345 -160 OFFCURVE",
"375 -145 OFFCURVE",
"375 -145 CURVE",
"375 -104 LINE",
"340 -104 LINE SMOOTH",
"295 -104 OFFCURVE",
"280 -90 OFFCURVE",
"280 -45 CURVE SMOOTH"
);
}
);
width = 520;
},
{
hints = (
{
place = "{60, 120}";
},
{
place = "{224, 76}";
},
{
place = "{370, 120}";
},
{
horizontal = 1;
place = "{-160, 60}";
},
{
horizontal = 1;
place = "{-9, 69}";
},
{
horizontal = 1;
place = "{700, -20}";
target = down;
type = TopGhost;
}
);
layerId = "2A85124F-80FE-40EA-AF86-869CC9CBC980";
paths = (
{
closed = 1;
nodes = (
"220 60 OFFCURVE",
"180 100 OFFCURVE",
"180 240 CURVE SMOOTH",
"180 700 LINE",
"60 700 LINE",
"60 240 LINE SMOOTH",
"60 73 OFFCURVE",
"120 1 OFFCURVE",
"243 -9 CURVE",
"236 -21 OFFCURVE",
"224 -46 OFFCURVE",
"224 -80 CURVE SMOOTH",
"224 -125 OFFCURVE",
"259 -160 OFFCURVE",
"314 -160 CURVE SMOOTH",
"359 -160 OFFCURVE",
"390 -145 OFFCURVE",
"390 -145 CURVE",
"390 -100 LINE",
"354 -100 LINE SMOOTH",
"319 -100 OFFCURVE",
"300 -80 OFFCURVE",
"300 -45 CURVE SMOOTH",
"300 -9 LINE",
"428 -1 OFFCURVE",
"490 70 OFFCURVE",
"490 240 CURVE SMOOTH",
"490 700 LINE",
"370 700 LINE",
"370 240 LINE SMOOTH",
"370 100 OFFCURVE",
"330 60 OFFCURVE",
"275 60 CURVE SMOOTH"
);
}
);
width = 550;
}
);
leftKerningGroup = U;
rightKerningGroup = U;
unicode = 0172;
},
{
color = 4;
glyphname = V;
lastChange = "2016-09-02 12:49:06 +0000";
layers = (
{
hints = (
{
horizontal = 1;
place = "{700, -20}";
target = down;
type = TopGhost;
},
{
horizontal = 1;
place = "{0, 21}";
target = up;
type = BottomGhost;
}
);
layerId = UUID0;
paths = (
{
closed = 1;
nodes = (
"110 700 LINE",
"20 700 LINE",
"180 0 LINE",
"310 0 LINE",
"470 700 LINE",
"380 700 LINE",
"247 95 LINE",
"243 95 LINE"
);
}
);
width = 490;
},
{
hints = (
{
horizontal = 1;
place = "{700, -20}";
target = down;
type = TopGhost;
},
{
horizontal = 1;
place = "{0, 21}";
target = up;
type = BottomGhost;
}
);
layerId = "2A85124F-80FE-40EA-AF86-869CC9CBC980";
paths = (
{
closed = 1;
nodes = (
"15 700 LINE",
"185 0 LINE",
"335 0 LINE",
"505 700 LINE",
"380 700 LINE",
"262 155 LINE",
"258 155 LINE",
"140 700 LINE"
);
}
);
width = 520;
}
);
leftKerningGroup = V;
rightKerningGroup = V;
unicode = 0056;
},
{
color = 4;
glyphname = W;
lastChange = "2016-09-02 12:49:06 +0000";
layers = (
{
hints = (
{
horizontal = 1;
place = "{700, -20}";
target = down;
type = TopGhost;
},
{
horizontal = 1;
place = "{0, 21}";
target = up;
type = BottomGhost;
}
);
layerId = UUID0;
paths = (
{
closed = 1;
nodes = (
"315 570 LINE",
"205 160 LINE",
"200 160 LINE",
"110 700 LINE",
"20 700 LINE",
"135 0 LINE",
"245 0 LINE",
"358 420 LINE",
"362 420 LINE",
"475 0 LINE",
"585 0 LINE",
"700 700 LINE",
"610 700 LINE",
"520 160 LINE",
"515 160 LINE",
"405 570 LINE"
);
}
);
width = 720;
},
{
hints = (
{
horizontal = 1;
place = "{700, -20}";
target = down;
type = TopGhost;
},
{
horizontal = 1;
place = "{0, 21}";
target = up;
type = BottomGhost;
}
);
layerId = "2A85124F-80FE-40EA-AF86-869CC9CBC980";
paths = (
{
closed = 1;
nodes = (
"229 195 LINE",
"225 195 LINE",
"140 700 LINE",
"15 700 LINE",
"140 0 LINE",
"270 0 LINE",
"373 390 LINE",
"377 390 LINE",
"480 0 LINE",
"610 0 LINE",
"735 700 LINE",
"610 700 LINE",
"525 195 LINE",
"521 195 LINE",
"425 570 LINE",
"325 570 LINE"
);
}
);
width = 750;
}
);
leftKerningGroup = V;
rightKerningGroup = V;
unicode = 0057;
},
{
color = 4;
glyphname = X;
lastChange = "2016-09-02 12:49:06 +0000";
layers = (
{
hints = (
{
horizontal = 1;
place = "{700, -20}";
target = down;
type = TopGhost;
},
{
horizontal = 1;
place = "{0, 21}";
target = up;
type = BottomGhost;
}
);
layerId = UUID0;
paths = (
{
closed = 1;
nodes = (
"230 420 LINE",
"120 700 LINE",
"30 700 LINE",
"165 360 LINE",
"15 0 LINE",
"105 0 LINE",
"230 300 LINE",
"355 0 LINE",
"445 0 LINE",
"295 360 LINE",
"430 700 LINE",
"340 700 LINE"
);
}
);
width = 460;
},
{
hints = (
{
horizontal = 1;
place = "{700, -20}";
target = down;
type = TopGhost;
},
{
horizontal = 1;
place = "{0, 21}";
target = up;
type = BottomGhost;
}
);
layerId = "2A85124F-80FE-40EA-AF86-869CC9CBC980";
paths = (
{
closed = 1;
nodes = (
"25 700 LINE",
"155 360 LINE",
"10 0 LINE",
"135 0 LINE",
"245 285 LINE",
"355 0 LINE",
"480 0 LINE",
"335 360 LINE",
"465 700 LINE",
"340 700 LINE",
"245 440 LINE",
"150 700 LINE"
);
}
);
width = 490;
}
);
leftKerningGroup = X;
rightKerningGroup = X;
unicode = 0058;
},
{
color = 4;
glyphname = Y;
lastChange = "2016-09-02 12:49:06 +0000";
layers = (
{
hints = (
{
place = "{180, 90}";
},
{
horizontal = 1;
place = "{700, -20}";
target = down;
type = TopGhost;
},
{
horizontal = 1;
place = "{0, 21}";
target = up;
type = BottomGhost;
}
);
layerId = UUID0;
paths = (
{
closed = 1;
nodes = (
"225 345 LINE",
"100 700 LINE",
"10 700 LINE",
"180 220 LINE",
"180 0 LINE",
"270 0 LINE",
"270 220 LINE",
"440 700 LINE",
"350 700 LINE"
);
}
);
width = 450;
},
{
hints = (
{
place = "{180, 120}";
},
{
horizontal = 1;
place = "{700, -20}";
target = down;
type = TopGhost;
},
{
horizontal = 1;
place = "{0, 21}";
target = up;
type = BottomGhost;
}
);
layerId = "2A85124F-80FE-40EA-AF86-869CC9CBC980";
paths = (
{
closed = 1;
nodes = (
"130 700 LINE",
"5 700 LINE",
"180 210 LINE",
"180 0 LINE",
"300 0 LINE",
"300 210 LINE",
"475 700 LINE",
"350 700 LINE",
"242 365 LINE",
"238 365 LINE"
);
}
);
width = 480;
}
);
leftKerningGroup = Y;
rightKerningGroup = Y;
unicode = 0059;
},
{
color = 4;
glyphname = Yacute;
lastChange = "2016-09-02 12:49:06 +0000";
layers = (
{
hints = (
{
place = "{180, 90}";
},
{
horizontal = 1;
place = "{740, 130}";
},
{
horizontal = 1;
place = "{700, -20}";
target = down;
type = TopGhost;
},
{
horizontal = 1;
place = "{0, 21}";
target = up;
type = BottomGhost;
}
);
layerId = UUID0;
paths = (
{
closed = 1;
nodes = (
"250 740 LINE",
"320 870 LINE",
"225 870 LINE",
"190 740 LINE"
);
},
{
closed = 1;
nodes = (
"225 345 LINE",
"100 700 LINE",
"10 700 LINE",
"180 220 LINE",
"180 0 LINE",
"270 0 LINE",
"270 220 LINE",
"440 700 LINE",
"350 700 LINE"
);
}
);
width = 450;
},
{
hints = (
{
place = "{180, 120}";
},
{
horizontal = 1;
place = "{740, 130}";
},
{
horizontal = 1;
place = "{700, -20}";
target = down;
type = TopGhost;
},
{
horizontal = 1;
place = "{0, 21}";
target = up;
type = BottomGhost;
}
);
layerId = "2A85124F-80FE-40EA-AF86-869CC9CBC980";
paths = (
{
closed = 1;
nodes = (
"130 700 LINE",
"5 700 LINE",
"180 210 LINE",
"180 0 LINE",
"300 0 LINE",
"300 210 LINE",
"475 700 LINE",
"350 700 LINE",
"242 365 LINE",
"238 365 LINE"
);
},
{
closed = 1;
nodes = (
"274 740 LINE",
"349 870 LINE",
"234 870 LINE",
"199 740 LINE"
);
}
);
width = 480;
}
);
leftKerningGroup = Y;
rightKerningGroup = Y;
unicode = 00DD;
},
{
color = 4;
glyphname = Ydieresis;
lastChange = "2016-09-02 12:49:06 +0000";
layers = (
{
hints = (
{
place = "{100, 90}";
},
{
place = "{180, 90}";
},
{
place = "{260, 90}";
},
{
horizontal = 1;
place = "{770, 110}";
},
{
horizontal = 1;
place = "{700, -20}";
target = down;
type = TopGhost;
},
{
horizontal = 1;
place = "{0, 21}";
target = up;
type = BottomGhost;
}
);
layerId = UUID0;
paths = (
{
closed = 1;
nodes = (
"100 880 LINE",
"100 770 LINE",
"190 770 LINE",
"190 880 LINE"
);
},
{
closed = 1;
nodes = (
"260 880 LINE",
"260 770 LINE",
"350 770 LINE",
"350 880 LINE"
);
},
{
closed = 1;
nodes = (
"225 345 LINE",
"100 700 LINE",
"10 700 LINE",
"180 220 LINE",
"180 0 LINE",
"270 0 LINE",
"270 220 LINE",
"440 700 LINE",
"350 700 LINE"
);
}
);
width = 450;
},
{
hints = (
{
place = "{105, 110}";
},
{
place = "{180, 120}";
},
{
place = "{265, 110}";
},
{
horizontal = 1;
place = "{760, 120}";
},
{
horizontal = 1;
place = "{700, -20}";
target = down;
type = TopGhost;
},
{
horizontal = 1;
place = "{0, 21}";
target = up;
type = BottomGhost;
}
);
layerId = "2A85124F-80FE-40EA-AF86-869CC9CBC980";
paths = (
{
closed = 1;
nodes = (
"130 700 LINE",
"5 700 LINE",
"180 210 LINE",
"180 0 LINE",
"300 0 LINE",
"300 210 LINE",
"475 700 LINE",
"350 700 LINE",
"242 365 LINE",
"238 365 LINE"
);
},
{
closed = 1;
nodes = (
"105 880 LINE",
"105 760 LINE",
"215 760 LINE",
"215 880 LINE"
);
},
{
closed = 1;
nodes = (
"265 880 LINE",
"265 760 LINE",
"375 760 LINE",
"375 880 LINE"
);
}
);
width = 480;
}
);
leftKerningGroup = Y;
rightKerningGroup = Y;
unicode = 0178;
},
{
color = 4;
glyphname = Z;
lastChange = "2016-09-02 12:49:06 +0000";
layers = (
{
hints = (
{
horizontal = 1;
place = "{0, 70}";
},
{
horizontal = 1;
place = "{630, 70}";
}
);
layerId = UUID0;
paths = (
{
closed = 1;
nodes = (
"385 635 LINE",
"385 700 LINE",
"25 700 LINE",
"25 630 LINE",
"280 630 LINE",
"20 65 LINE",
"20 0 LINE",
"380 0 LINE",
"380 70 LINE",
"125 70 LINE"
);
}
);
width = 405;
},
{
hints = (
{
horizontal = 1;
place = "{0, 80}";
},
{
horizontal = 1;
place = "{620, 80}";
}
);
layerId = "2A85124F-80FE-40EA-AF86-869CC9CBC980";
paths = (
{
closed = 1;
nodes = (
"415 625 LINE",
"415 700 LINE",
"25 700 LINE",
"25 620 LINE",
"280 620 LINE",
"20 75 LINE",
"20 0 LINE",
"410 0 LINE",
"410 80 LINE",
"155 80 LINE"
);
}
);
width = 435;
}
);
leftKerningGroup = Z;
rightKerningGroup = Z;
unicode = 005A;
},
{
color = 4;
glyphname = Zacute;
lastChange = "2016-09-02 12:49:06 +0000";
layers = (
{
hints = (
{
horizontal = 1;
place = "{0, 70}";
},
{
horizontal = 1;
place = "{630, 70}";
},
{
horizontal = 1;
place = "{750, 130}";
}
);
layerId = UUID0;
paths = (
{
closed = 1;
nodes = (
"385 635 LINE",
"385 700 LINE",
"25 700 LINE",
"25 630 LINE",
"280 630 LINE",
"20 65 LINE",
"20 0 LINE",
"380 0 LINE",
"380 70 LINE",
"125 70 LINE"
);
},
{
closed = 1;
nodes = (
"230 750 LINE",
"300 880 LINE",
"205 880 LINE",
"170 750 LINE"
);
}
);
width = 405;
},
{
hints = (
{
horizontal = 1;
place = "{0, 80}";
},
{
horizontal = 1;
place = "{620, 80}";
},
{
horizontal = 1;
place = "{750, 130}";
}
);
layerId = "2A85124F-80FE-40EA-AF86-869CC9CBC980";
paths = (
{
closed = 1;
nodes = (
"250 750 LINE",
"325 880 LINE",
"210 880 LINE",
"175 750 LINE"
);
},
{
closed = 1;
nodes = (
"415 625 LINE",
"415 700 LINE",
"25 700 LINE",
"25 620 LINE",
"280 620 LINE",
"20 75 LINE",
"20 0 LINE",
"410 0 LINE",
"410 80 LINE",
"155 80 LINE"
);
}
);
width = 435;
}
);
leftKerningGroup = Z;
rightKerningGroup = Z;
unicode = 0179;
},
{
color = 4;
glyphname = Zcaron;
lastChange = "2016-09-02 12:49:06 +0000";
layers = (
{
hints = (
{
horizontal = 1;
place = "{0, 70}";
},
{
horizontal = 1;
place = "{630, 70}";
},
{
horizontal = 1;
place = "{890, -20}";
target = down;
type = TopGhost;
}
);
layerId = UUID0;
paths = (
{
closed = 1;
nodes = (
"385 635 LINE",
"385 700 LINE",
"25 700 LINE",
"25 630 LINE",
"280 630 LINE",
"20 65 LINE",
"20 0 LINE",
"380 0 LINE",
"380 70 LINE",
"125 70 LINE"
);
},
{
closed = 1;
nodes = (
"93 890 LINE",
"168 760 LINE",
"263 760 LINE",
"338 890 LINE",
"278 890 LINE",
"215 816 LINE",
"153 890 LINE"
);
}
);
width = 405;
},
{
hints = (
{
horizontal = 1;
place = "{0, 80}";
},
{
horizontal = 1;
place = "{620, 80}";
},
{
horizontal = 1;
place = "{890, -20}";
target = down;
type = TopGhost;
}
);
layerId = "2A85124F-80FE-40EA-AF86-869CC9CBC980";
paths = (
{
closed = 1;
nodes = (
"98 890 LINE",
"178 760 LINE",
"283 760 LINE",
"363 890 LINE",
"286 890 LINE",
"230 820 LINE",
"174 890 LINE"
);
},
{
closed = 1;
nodes = (
"415 625 LINE",
"415 700 LINE",
"25 700 LINE",
"25 620 LINE",
"280 620 LINE",
"20 75 LINE",
"20 0 LINE",
"410 0 LINE",
"410 80 LINE",
"155 80 LINE"
);
}
);
width = 435;
}
);
leftKerningGroup = Z;
rightKerningGroup = Z;
unicode = 017D;
},
{
color = 4;
glyphname = Zdotaccent;
lastChange = "2016-09-02 12:49:06 +0000";
layers = (
{
hints = (
{
place = "{160, 90}";
},
{
horizontal = 1;
place = "{0, 70}";
},
{
horizontal = 1;
place = "{630, 70}";
},
{
horizontal = 1;
place = "{770, 110}";
}
);
layerId = UUID0;
paths = (
{
closed = 1;
nodes = (
"385 635 LINE",
"385 700 LINE",
"25 700 LINE",
"25 630 LINE",
"280 630 LINE",
"20 65 LINE",
"20 0 LINE",
"380 0 LINE",
"380 70 LINE",
"125 70 LINE"
);
},
{
closed = 1;
nodes = (
"160 880 LINE",
"160 770 LINE",
"250 770 LINE",
"250 880 LINE"
);
}
);
width = 405;
},
{
hints = (
{
place = "{165, 110}";
},
{
horizontal = 1;
place = "{0, 80}";
},
{
horizontal = 1;
place = "{620, 80}";
},
{
horizontal = 1;
place = "{760, 120}";
}
);
layerId = "2A85124F-80FE-40EA-AF86-869CC9CBC980";
paths = (
{
closed = 1;
nodes = (
"165 880 LINE",
"165 760 LINE",
"275 760 LINE",
"275 880 LINE"
);
},
{
closed = 1;
nodes = (
"415 625 LINE",
"415 700 LINE",
"25 700 LINE",
"25 620 LINE",
"280 620 LINE",
"20 75 LINE",
"20 0 LINE",
"410 0 LINE",
"410 80 LINE",
"155 80 LINE"
);
}
);
width = 435;
}
);
leftKerningGroup = Z;
rightKerningGroup = Z;
unicode = 017B;
},
{
color = 4;
glyphname = a;
lastChange = "2016-09-02 12:49:06 +0000";
layers = (
{
hints = (
{
place = "{45, 90}";
},
{
place = "{295, 90}";
},
{
horizontal = 1;
place = "{-10, 60}";
},
{
horizontal = 1;
place = "{245, 60}";
},
{
horizontal = 1;
place = "{450, 60}";
},
{
horizontal = 1;
place = "{0, 21}";
target = up;
type = BottomGhost;
}
);
layerId = UUID0;
paths = (
{
closed = 1;
nodes = (
"295 70 LINE",
"280 60 OFFCURVE",
"250 50 OFFCURVE",
"225 50 CURVE SMOOTH",
"175 50 OFFCURVE",
"135 70 OFFCURVE",
"135 150 CURVE SMOOTH",
"135 225 OFFCURVE",
"175 245 OFFCURVE",
"225 245 CURVE SMOOTH",
"295 245 LINE"
);
},
{
closed = 1;
nodes = (
"235 -10 OFFCURVE",
"275 5 OFFCURVE",
"300 30 CURVE",
"305 30 LINE",
"310 0 LINE",
"385 0 LINE",
"385 340 LINE SMOOTH",
"385 480 OFFCURVE",
"325 510 OFFCURVE",
"205 510 CURVE SMOOTH",
"165 510 OFFCURVE",
"115 500 OFFCURVE",
"85 490 CURVE",
"85 450 LINE",
"185 450 LINE SMOOTH",
"255 450 OFFCURVE",
"295 430 OFFCURVE",
"295 340 CURVE SMOOTH",
"295 295 LINE",
"265 300 OFFCURVE",
"225 305 OFFCURVE",
"195 305 CURVE SMOOTH",
"105 305 OFFCURVE",
"45 275 OFFCURVE",
"45 150 CURVE SMOOTH",
"45 20 OFFCURVE",
"105 -10 OFFCURVE",
"195 -10 CURVE SMOOTH"
);
}
);
width = 450;
},
{
hints = (
{
place = "{40, 120}";
},
{
place = "{290, 120}";
},
{
horizontal = 1;
place = "{-10, 70}";
},
{
horizontal = 1;
place = "{240, 70}";
},
{
horizontal = 1;
place = "{440, 70}";
},
{
horizontal = 1;
place = "{0, 21}";
target = up;
type = BottomGhost;
}
);
layerId = "2A85124F-80FE-40EA-AF86-869CC9CBC980";
paths = (
{
closed = 1;
nodes = (
"290 80 LINE",
"280 70 OFFCURVE",
"260 60 OFFCURVE",
"235 60 CURVE SMOOTH",
"200 60 OFFCURVE",
"160 80 OFFCURVE",
"160 150 CURVE SMOOTH",
"160 220 OFFCURVE",
"200 240 OFFCURVE",
"235 240 CURVE SMOOTH",
"290 240 LINE"
);
},
{
closed = 1;
nodes = (
"250 -10 OFFCURVE",
"284 10 OFFCURVE",
"305 30 CURVE",
"310 30 LINE",
"325 0 LINE",
"410 0 LINE",
"410 340 LINE SMOOTH",
"410 480 OFFCURVE",
"340 510 OFFCURVE",
"205 510 CURVE SMOOTH",
"165 510 OFFCURVE",
"115 500 OFFCURVE",
"85 490 CURVE",
"85 440 LINE",
"185 440 LINE SMOOTH",
"250 440 OFFCURVE",
"290 420 OFFCURVE",
"290 340 CURVE SMOOTH",
"290 300 LINE",
"265 305 OFFCURVE",
"235 310 OFFCURVE",
"205 310 CURVE SMOOTH",
"110 310 OFFCURVE",
"40 280 OFFCURVE",
"40 150 CURVE SMOOTH",
"40 20 OFFCURVE",
"110 -10 OFFCURVE",
"195 -10 CURVE SMOOTH"
);
}
);
width = 475;
}
);
leftKerningGroup = a;
rightKerningGroup = n;
unicode = 0061;
},
{
color = 4;
glyphname = aacute;
lastChange = "2016-09-02 12:49:06 +0000";
layers = (
{
hints = (
{
place = "{45, 90}";
},
{
place = "{295, 90}";
},
{
horizontal = 1;
place = "{-10, 60}";
},
{
horizontal = 1;
place = "{245, 60}";
},
{
horizontal = 1;
place = "{450, 60}";
},
{
horizontal = 1;
place = "{560, 130}";
},
{
horizontal = 1;
place = "{0, 21}";
target = up;
type = BottomGhost;
}
);
layerId = UUID0;
paths = (
{
closed = 1;
nodes = (
"255 560 LINE",
"325 690 LINE",
"230 690 LINE",
"195 560 LINE"
);
},
{
closed = 1;
nodes = (
"295 70 LINE",
"280 60 OFFCURVE",
"250 50 OFFCURVE",
"225 50 CURVE SMOOTH",
"175 50 OFFCURVE",
"135 70 OFFCURVE",
"135 150 CURVE SMOOTH",
"135 225 OFFCURVE",
"175 245 OFFCURVE",
"225 245 CURVE SMOOTH",
"295 245 LINE"
);
},
{
closed = 1;
nodes = (
"235 -10 OFFCURVE",
"275 5 OFFCURVE",
"300 30 CURVE",
"305 30 LINE",
"310 0 LINE",
"385 0 LINE",
"385 340 LINE SMOOTH",
"385 480 OFFCURVE",
"325 510 OFFCURVE",
"205 510 CURVE SMOOTH",
"165 510 OFFCURVE",
"115 500 OFFCURVE",
"85 490 CURVE",
"85 450 LINE",
"185 450 LINE SMOOTH",
"255 450 OFFCURVE",
"295 430 OFFCURVE",
"295 340 CURVE SMOOTH",
"295 295 LINE",
"265 300 OFFCURVE",
"225 305 OFFCURVE",
"195 305 CURVE SMOOTH",
"105 305 OFFCURVE",
"45 275 OFFCURVE",
"45 150 CURVE SMOOTH",
"45 20 OFFCURVE",
"105 -10 OFFCURVE",
"195 -10 CURVE SMOOTH"
);
}
);
width = 450;
},
{
hints = (
{
place = "{40, 120}";
},
{
place = "{290, 120}";
},
{
horizontal = 1;
place = "{-10, 70}";
},
{
horizontal = 1;
place = "{240, 70}";
},
{
horizontal = 1;
place = "{440, 70}";
},
{
horizontal = 1;
place = "{560, 130}";
},
{
horizontal = 1;
place = "{0, 21}";
target = up;
type = BottomGhost;
}
);
layerId = "2A85124F-80FE-40EA-AF86-869CC9CBC980";
paths = (
{
closed = 1;
nodes = (
"290 80 LINE",
"280 70 OFFCURVE",
"260 60 OFFCURVE",
"235 60 CURVE SMOOTH",
"200 60 OFFCURVE",
"160 80 OFFCURVE",
"160 150 CURVE SMOOTH",
"160 220 OFFCURVE",
"200 240 OFFCURVE",
"235 240 CURVE SMOOTH",
"290 240 LINE"
);
},
{
closed = 1;
nodes = (
"250 -10 OFFCURVE",
"284 10 OFFCURVE",
"305 30 CURVE",
"310 30 LINE",
"325 0 LINE",
"410 0 LINE",
"410 340 LINE SMOOTH",
"410 480 OFFCURVE",
"340 510 OFFCURVE",
"205 510 CURVE SMOOTH",
"165 510 OFFCURVE",
"115 500 OFFCURVE",
"85 490 CURVE",
"85 440 LINE",
"185 440 LINE SMOOTH",
"250 440 OFFCURVE",
"290 420 OFFCURVE",
"290 340 CURVE SMOOTH",
"290 300 LINE",
"265 305 OFFCURVE",
"235 310 OFFCURVE",
"205 310 CURVE SMOOTH",
"110 310 OFFCURVE",
"40 280 OFFCURVE",
"40 150 CURVE SMOOTH",
"40 20 OFFCURVE",
"110 -10 OFFCURVE",
"195 -10 CURVE SMOOTH"
);
},
{
closed = 1;
nodes = (
"270 560 LINE",
"345 690 LINE",
"230 690 LINE",
"195 560 LINE"
);
}
);
width = 475;
}
);
leftKerningGroup = a;
rightKerningGroup = n;
unicode = 00E1;
},
{
color = 4;
glyphname = acircumflex;
lastChange = "2016-09-02 12:49:06 +0000";
layers = (
{
hints = (
{
place = "{45, 90}";
},
{
place = "{295, 90}";
},
{
horizontal = 1;
place = "{-10, 60}";
},
{
horizontal = 1;
place = "{245, 60}";
},
{
horizontal = 1;
place = "{450, 60}";
},
{
horizontal = 1;
place = "{450, 230}";
},
{
horizontal = 1;
place = "{0, 21}";
target = up;
type = BottomGhost;
}
);
layerId = UUID0;
paths = (
{
closed = 1;
nodes = (
"170 550 LINE",
"232 624 LINE",
"295 550 LINE",
"355 550 LINE",
"280 680 LINE",
"185 680 LINE",
"110 550 LINE"
);
},
{
closed = 1;
nodes = (
"295 70 LINE",
"280 60 OFFCURVE",
"250 50 OFFCURVE",
"225 50 CURVE SMOOTH",
"175 50 OFFCURVE",
"135 70 OFFCURVE",
"135 150 CURVE SMOOTH",
"135 225 OFFCURVE",
"175 245 OFFCURVE",
"225 245 CURVE SMOOTH",
"295 245 LINE"
);
},
{
closed = 1;
nodes = (
"235 -10 OFFCURVE",
"275 5 OFFCURVE",
"300 30 CURVE",
"305 30 LINE",
"310 0 LINE",
"385 0 LINE",
"385 340 LINE SMOOTH",
"385 480 OFFCURVE",
"325 510 OFFCURVE",
"205 510 CURVE SMOOTH",
"165 510 OFFCURVE",
"115 500 OFFCURVE",
"85 490 CURVE",
"85 450 LINE",
"185 450 LINE SMOOTH",
"255 450 OFFCURVE",
"295 430 OFFCURVE",
"295 340 CURVE SMOOTH",
"295 295 LINE",
"265 300 OFFCURVE",
"225 305 OFFCURVE",
"195 305 CURVE SMOOTH",
"105 305 OFFCURVE",
"45 275 OFFCURVE",
"45 150 CURVE SMOOTH",
"45 20 OFFCURVE",
"105 -10 OFFCURVE",
"195 -10 CURVE SMOOTH"
);
}
);
width = 450;
},
{
hints = (
{
place = "{40, 120}";
},
{
place = "{290, 120}";
},
{
horizontal = 1;
place = "{-10, 70}";
},
{
horizontal = 1;
place = "{240, 70}";
},
{
horizontal = 1;
place = "{440, 70}";
},
{
horizontal = 1;
place = "{440, 240}";
},
{
horizontal = 1;
place = "{0, 21}";
target = up;
type = BottomGhost;
}
);
layerId = "2A85124F-80FE-40EA-AF86-869CC9CBC980";
paths = (
{
closed = 1;
nodes = (
"290 80 LINE",
"280 70 OFFCURVE",
"260 60 OFFCURVE",
"235 60 CURVE SMOOTH",
"200 60 OFFCURVE",
"160 80 OFFCURVE",
"160 150 CURVE SMOOTH",
"160 220 OFFCURVE",
"200 240 OFFCURVE",
"235 240 CURVE SMOOTH",
"290 240 LINE"
);
},
{
closed = 1;
nodes = (
"250 -10 OFFCURVE",
"284 10 OFFCURVE",
"305 30 CURVE",
"310 30 LINE",
"325 0 LINE",
"410 0 LINE",
"410 340 LINE SMOOTH",
"410 480 OFFCURVE",
"340 510 OFFCURVE",
"205 510 CURVE SMOOTH",
"165 510 OFFCURVE",
"115 500 OFFCURVE",
"85 490 CURVE",
"85 440 LINE",
"185 440 LINE SMOOTH",
"250 440 OFFCURVE",
"290 420 OFFCURVE",
"290 340 CURVE SMOOTH",
"290 300 LINE",
"265 305 OFFCURVE",
"235 310 OFFCURVE",
"205 310 CURVE SMOOTH",
"110 310 OFFCURVE",
"40 280 OFFCURVE",
"40 150 CURVE SMOOTH",
"40 20 OFFCURVE",
"110 -10 OFFCURVE",
"195 -10 CURVE SMOOTH"
);
},
{
closed = 1;
nodes = (
"186 550 LINE",
"242 620 LINE",
"298 550 LINE",
"375 550 LINE",
"295 680 LINE",
"190 680 LINE",
"110 550 LINE"
);
}
);
width = 475;
}
);
leftKerningGroup = a;
rightKerningGroup = n;
unicode = 00E2;
},
{
color = 4;
glyphname = adieresis;
lastChange = "2016-09-02 12:49:06 +0000";
layers = (
{
hints = (
{
place = "{45, 90}";
},
{
place = "{105, 90}";
},
{
place = "{265, 90}";
},
{
place = "{295, 90}";
},
{
horizontal = 1;
place = "{-10, 60}";
},
{
horizontal = 1;
place = "{245, 60}";
},
{
horizontal = 1;
place = "{450, 60}";
},
{
horizontal = 1;
place = "{570, 110}";
},
{
horizontal = 1;
place = "{0, 21}";
target = up;
type = BottomGhost;
}
);
layerId = UUID0;
paths = (
{
closed = 1;
nodes = (
"105 680 LINE",
"105 570 LINE",
"195 570 LINE",
"195 680 LINE"
);
},
{
closed = 1;
nodes = (
"265 680 LINE",
"265 570 LINE",
"355 570 LINE",
"355 680 LINE"
);
},
{
closed = 1;
nodes = (
"295 70 LINE",
"280 60 OFFCURVE",
"250 50 OFFCURVE",
"225 50 CURVE SMOOTH",
"175 50 OFFCURVE",
"135 70 OFFCURVE",
"135 150 CURVE SMOOTH",
"135 225 OFFCURVE",
"175 245 OFFCURVE",
"225 245 CURVE SMOOTH",
"295 245 LINE"
);
},
{
closed = 1;
nodes = (
"235 -10 OFFCURVE",
"275 5 OFFCURVE",
"300 30 CURVE",
"305 30 LINE",
"310 0 LINE",
"385 0 LINE",
"385 340 LINE SMOOTH",
"385 480 OFFCURVE",
"325 510 OFFCURVE",
"205 510 CURVE SMOOTH",
"165 510 OFFCURVE",
"115 500 OFFCURVE",
"85 490 CURVE",
"85 450 LINE",
"185 450 LINE SMOOTH",
"255 450 OFFCURVE",
"295 430 OFFCURVE",
"295 340 CURVE SMOOTH",
"295 295 LINE",
"265 300 OFFCURVE",
"225 305 OFFCURVE",
"195 305 CURVE SMOOTH",
"105 305 OFFCURVE",
"45 275 OFFCURVE",
"45 150 CURVE SMOOTH",
"45 20 OFFCURVE",
"105 -10 OFFCURVE",
"195 -10 CURVE SMOOTH"
);
}
);
width = 450;
},
{
hints = (
{
place = "{40, 120}";
},
{
place = "{105, 110}";
},
{
place = "{265, 110}";
},
{
place = "{290, 120}";
},
{
horizontal = 1;
place = "{-10, 70}";
},
{
horizontal = 1;
place = "{240, 70}";
},
{
horizontal = 1;
place = "{440, 70}";
},
{
horizontal = 1;
place = "{560, 120}";
},
{
horizontal = 1;
place = "{0, 21}";
target = up;
type = BottomGhost;
}
);
layerId = "2A85124F-80FE-40EA-AF86-869CC9CBC980";
paths = (
{
closed = 1;
nodes = (
"290 80 LINE",
"280 70 OFFCURVE",
"260 60 OFFCURVE",
"235 60 CURVE SMOOTH",
"200 60 OFFCURVE",
"160 80 OFFCURVE",
"160 150 CURVE SMOOTH",
"160 220 OFFCURVE",
"200 240 OFFCURVE",
"235 240 CURVE SMOOTH",
"290 240 LINE"
);
},
{
closed = 1;
nodes = (
"250 -10 OFFCURVE",
"284 10 OFFCURVE",
"305 30 CURVE",
"310 30 LINE",
"325 0 LINE",
"410 0 LINE",
"410 340 LINE SMOOTH",
"410 480 OFFCURVE",
"340 510 OFFCURVE",
"205 510 CURVE SMOOTH",
"165 510 OFFCURVE",
"115 500 OFFCURVE",
"85 490 CURVE",
"85 440 LINE",
"185 440 LINE SMOOTH",
"250 440 OFFCURVE",
"290 420 OFFCURVE",
"290 340 CURVE SMOOTH",
"290 300 LINE",
"265 305 OFFCURVE",
"235 310 OFFCURVE",
"205 310 CURVE SMOOTH",
"110 310 OFFCURVE",
"40 280 OFFCURVE",
"40 150 CURVE SMOOTH",
"40 20 OFFCURVE",
"110 -10 OFFCURVE",
"195 -10 CURVE SMOOTH"
);
},
{
closed = 1;
nodes = (
"105 680 LINE",
"105 560 LINE",
"215 560 LINE",
"215 680 LINE"
);
},
{
closed = 1;
nodes = (
"265 680 LINE",
"265 560 LINE",
"375 560 LINE",
"375 680 LINE"
);
}
);
width = 475;
}
);
leftKerningGroup = a;
rightKerningGroup = n;
unicode = 00E4;
},
{
color = 4;
glyphname = agrave;
lastChange = "2016-09-02 12:49:06 +0000";
layers = (
{
hints = (
{
place = "{45, 90}";
},
{
place = "{295, 90}";
},
{
horizontal = 1;
place = "{-10, 60}";
},
{
horizontal = 1;
place = "{245, 60}";
},
{
horizontal = 1;
place = "{450, 60}";
},
{
horizontal = 1;
place = "{560, 130}";
},
{
horizontal = 1;
place = "{0, 21}";
target = up;
type = BottomGhost;
}
);
layerId = UUID0;
paths = (
{
closed = 1;
nodes = (
"275 560 LINE",
"240 690 LINE",
"145 690 LINE",
"215 560 LINE"
);
},
{
closed = 1;
nodes = (
"295 70 LINE",
"280 60 OFFCURVE",
"250 50 OFFCURVE",
"225 50 CURVE SMOOTH",
"175 50 OFFCURVE",
"135 70 OFFCURVE",
"135 150 CURVE SMOOTH",
"135 225 OFFCURVE",
"175 245 OFFCURVE",
"225 245 CURVE SMOOTH",
"295 245 LINE"
);
},
{
closed = 1;
nodes = (
"235 -10 OFFCURVE",
"275 5 OFFCURVE",
"300 30 CURVE",
"305 30 LINE",
"310 0 LINE",
"385 0 LINE",
"385 340 LINE SMOOTH",
"385 480 OFFCURVE",
"325 510 OFFCURVE",
"205 510 CURVE SMOOTH",
"165 510 OFFCURVE",
"115 500 OFFCURVE",
"85 490 CURVE",
"85 450 LINE",
"185 450 LINE SMOOTH",
"255 450 OFFCURVE",
"295 430 OFFCURVE",
"295 340 CURVE SMOOTH",
"295 295 LINE",
"265 300 OFFCURVE",
"225 305 OFFCURVE",
"195 305 CURVE SMOOTH",
"105 305 OFFCURVE",
"45 275 OFFCURVE",
"45 150 CURVE SMOOTH",
"45 20 OFFCURVE",
"105 -10 OFFCURVE",
"195 -10 CURVE SMOOTH"
);
}
);
width = 450;
},
{
hints = (
{
place = "{40, 120}";
},
{
place = "{290, 120}";
},
{
horizontal = 1;
place = "{-10, 70}";
},
{
horizontal = 1;
place = "{240, 70}";
},
{
horizontal = 1;
place = "{440, 70}";
},
{
horizontal = 1;
place = "{560, 130}";
},
{
horizontal = 1;
place = "{0, 21}";
target = up;
type = BottomGhost;
}
);
layerId = "2A85124F-80FE-40EA-AF86-869CC9CBC980";
paths = (
{
closed = 1;
nodes = (
"290 80 LINE",
"280 70 OFFCURVE",
"260 60 OFFCURVE",
"235 60 CURVE SMOOTH",
"200 60 OFFCURVE",
"160 80 OFFCURVE",
"160 150 CURVE SMOOTH",
"160 220 OFFCURVE",
"200 240 OFFCURVE",
"235 240 CURVE SMOOTH",
"290 240 LINE"
);
},
{
closed = 1;
nodes = (
"250 -10 OFFCURVE",
"284 10 OFFCURVE",
"305 30 CURVE",
"310 30 LINE",
"325 0 LINE",
"410 0 LINE",
"410 340 LINE SMOOTH",
"410 480 OFFCURVE",
"340 510 OFFCURVE",
"205 510 CURVE SMOOTH",
"165 510 OFFCURVE",
"115 500 OFFCURVE",
"85 490 CURVE",
"85 440 LINE",
"185 440 LINE SMOOTH",
"250 440 OFFCURVE",
"290 420 OFFCURVE",
"290 340 CURVE SMOOTH",
"290 300 LINE",
"265 305 OFFCURVE",
"235 310 OFFCURVE",
"205 310 CURVE SMOOTH",
"110 310 OFFCURVE",
"40 280 OFFCURVE",
"40 150 CURVE SMOOTH",
"40 20 OFFCURVE",
"110 -10 OFFCURVE",
"195 -10 CURVE SMOOTH"
);
},
{
closed = 1;
nodes = (
"291 560 LINE",
"256 690 LINE",
"141 690 LINE",
"216 560 LINE"
);
}
);
width = 475;
}
);
leftKerningGroup = a;
rightKerningGroup = n;
unicode = 00E0;
},
{
color = 4;
glyphname = amacron;
lastChange = "2016-09-02 12:49:06 +0000";
layers = (
{
hints = (
{
place = "{45, 90}";
},
{
place = "{295, 90}";
},
{
horizontal = 1;
place = "{-10, 60}";
},
{
horizontal = 1;
place = "{245, 60}";
},
{
horizontal = 1;
place = "{450, 60}";
},
{
horizontal = 1;
place = "{580, 60}";
},
{
horizontal = 1;
place = "{0, 21}";
target = up;
type = BottomGhost;
}
);
layerId = UUID0;
paths = (
{
closed = 1;
nodes = (
"120 580 LINE",
"350 580 LINE",
"350 640 LINE",
"120 640 LINE"
);
},
{
closed = 1;
nodes = (
"295 70 LINE",
"280 60 OFFCURVE",
"250 50 OFFCURVE",
"225 50 CURVE SMOOTH",
"175 50 OFFCURVE",
"135 70 OFFCURVE",
"135 150 CURVE SMOOTH",
"135 225 OFFCURVE",
"175 245 OFFCURVE",
"225 245 CURVE SMOOTH",
"295 245 LINE"
);
},
{
closed = 1;
nodes = (
"235 -10 OFFCURVE",
"275 5 OFFCURVE",
"300 30 CURVE",
"305 30 LINE",
"310 0 LINE",
"385 0 LINE",
"385 340 LINE SMOOTH",
"385 480 OFFCURVE",
"325 510 OFFCURVE",
"205 510 CURVE SMOOTH",
"165 510 OFFCURVE",
"115 500 OFFCURVE",
"85 490 CURVE",
"85 450 LINE",
"185 450 LINE SMOOTH",
"255 450 OFFCURVE",
"295 430 OFFCURVE",
"295 340 CURVE SMOOTH",
"295 295 LINE",
"265 300 OFFCURVE",
"225 305 OFFCURVE",
"195 305 CURVE SMOOTH",
"105 305 OFFCURVE",
"45 275 OFFCURVE",
"45 150 CURVE SMOOTH",
"45 20 OFFCURVE",
"105 -10 OFFCURVE",
"195 -10 CURVE SMOOTH"
);
}
);
width = 450;
},
{
hints = (
{
place = "{40, 120}";
},
{
place = "{290, 120}";
},
{
horizontal = 1;
place = "{-10, 70}";
},
{
horizontal = 1;
place = "{240, 70}";
},
{
horizontal = 1;
place = "{440, 70}";
},
{
horizontal = 1;
place = "{570, 70}";
},
{
horizontal = 1;
place = "{0, 21}";
target = up;
type = BottomGhost;
}
);
layerId = "2A85124F-80FE-40EA-AF86-869CC9CBC980";
paths = (
{
closed = 1;
nodes = (
"290 80 LINE",
"280 70 OFFCURVE",
"260 60 OFFCURVE",
"235 60 CURVE SMOOTH",
"200 60 OFFCURVE",
"160 80 OFFCURVE",
"160 150 CURVE SMOOTH",
"160 220 OFFCURVE",
"200 240 OFFCURVE",
"235 240 CURVE SMOOTH",
"290 240 LINE"
);
},
{
closed = 1;
nodes = (
"250 -10 OFFCURVE",
"284 10 OFFCURVE",
"305 30 CURVE",
"310 30 LINE",
"325 0 LINE",
"410 0 LINE",
"410 340 LINE SMOOTH",
"410 480 OFFCURVE",
"340 510 OFFCURVE",
"205 510 CURVE SMOOTH",
"165 510 OFFCURVE",
"115 500 OFFCURVE",
"85 490 CURVE",
"85 440 LINE",
"185 440 LINE SMOOTH",
"250 440 OFFCURVE",
"290 420 OFFCURVE",
"290 340 CURVE SMOOTH",
"290 300 LINE",
"265 305 OFFCURVE",
"235 310 OFFCURVE",
"205 310 CURVE SMOOTH",
"110 310 OFFCURVE",
"40 280 OFFCURVE",
"40 150 CURVE SMOOTH",
"40 20 OFFCURVE",
"110 -10 OFFCURVE",
"195 -10 CURVE SMOOTH"
);
},
{
closed = 1;
nodes = (
"125 570 LINE",
"365 570 LINE",
"365 640 LINE",
"125 640 LINE"
);
}
);
width = 475;
}
);
leftKerningGroup = a;
rightKerningGroup = n;
unicode = 0101;
},
{
color = 4;
glyphname = aogonek;
lastChange = "2016-09-02 12:49:06 +0000";
layers = (
{
hints = (
{
place = "{45, 90}";
},
{
place = "{295, 65}";
},
{
place = "{295, 90}";
},
{
horizontal = 1;
place = "{-160, 56}";
},
{
horizontal = 1;
place = "{-10, 60}";
},
{
horizontal = 1;
place = "{245, 60}";
},
{
horizontal = 1;
place = "{450, 60}";
},
{
horizontal = 1;
place = "{0, 21}";
target = up;
type = BottomGhost;
}
);
layerId = UUID0;
paths = (
{
closed = 1;
nodes = (
"235 -10 OFFCURVE",
"275 5 OFFCURVE",
"300 30 CURVE",
"305 30 LINE",
"310 0 LINE",
"320 0 LINE",
"320 0 OFFCURVE",
"295 -35 OFFCURVE",
"295 -80 CURVE SMOOTH",
"295 -130 OFFCURVE",
"325 -160 OFFCURVE",
"380 -160 CURVE SMOOTH",
"425 -160 OFFCURVE",
"455 -145 OFFCURVE",
"455 -145 CURVE",
"455 -104 LINE",
"420 -104 LINE SMOOTH",
"375 -104 OFFCURVE",
"360 -90 OFFCURVE",
"360 -45 CURVE SMOOTH",
"360 0 LINE",
"385 0 LINE",
"385 340 LINE SMOOTH",
"385 480 OFFCURVE",
"325 510 OFFCURVE",
"205 510 CURVE SMOOTH",
"165 510 OFFCURVE",
"115 500 OFFCURVE",
"85 490 CURVE",
"85 450 LINE",
"185 450 LINE SMOOTH",
"255 450 OFFCURVE",
"295 430 OFFCURVE",
"295 340 CURVE SMOOTH",
"295 295 LINE",
"265 300 OFFCURVE",
"225 305 OFFCURVE",
"195 305 CURVE SMOOTH",
"105 305 OFFCURVE",
"45 275 OFFCURVE",
"45 150 CURVE SMOOTH",
"45 20 OFFCURVE",
"105 -10 OFFCURVE",
"195 -10 CURVE SMOOTH"
);
},
{
closed = 1;
nodes = (
"295 70 LINE",
"280 60 OFFCURVE",
"250 50 OFFCURVE",
"225 50 CURVE SMOOTH",
"175 50 OFFCURVE",
"135 70 OFFCURVE",
"135 150 CURVE SMOOTH",
"135 225 OFFCURVE",
"175 245 OFFCURVE",
"225 245 CURVE SMOOTH",
"295 245 LINE"
);
}
);
width = 450;
},
{
hints = (
{
place = "{40, 120}";
},
{
place = "{290, 120}";
},
{
place = "{310, 76}";
},
{
place = "{310, 100}";
},
{
horizontal = 1;
place = "{-160, 60}";
},
{
horizontal = 1;
place = "{-10, 70}";
},
{
horizontal = 1;
place = "{240, 70}";
},
{
horizontal = 1;
place = "{440, 70}";
},
{
horizontal = 1;
place = "{0, 21}";
target = up;
type = BottomGhost;
}
);
layerId = "2A85124F-80FE-40EA-AF86-869CC9CBC980";
paths = (
{
closed = 1;
nodes = (
"336 0 LINE",
"336 0 OFFCURVE",
"310 -30 OFFCURVE",
"310 -80 CURVE SMOOTH",
"310 -125 OFFCURVE",
"345 -160 OFFCURVE",
"400 -160 CURVE SMOOTH",
"445 -160 OFFCURVE",
"476 -145 OFFCURVE",
"476 -145 CURVE",
"476 -100 LINE",
"440 -100 LINE SMOOTH",
"405 -100 OFFCURVE",
"386 -80 OFFCURVE",
"386 -45 CURVE SMOOTH",
"386 0 LINE",
"410 0 LINE",
"410 340 LINE SMOOTH",
"410 480 OFFCURVE",
"340 510 OFFCURVE",
"205 510 CURVE SMOOTH",
"165 510 OFFCURVE",
"115 500 OFFCURVE",
"85 490 CURVE",
"85 440 LINE",
"185 440 LINE SMOOTH",
"250 440 OFFCURVE",
"290 420 OFFCURVE",
"290 340 CURVE SMOOTH",
"290 300 LINE",
"265 305 OFFCURVE",
"235 310 OFFCURVE",
"205 310 CURVE SMOOTH",
"110 310 OFFCURVE",
"40 280 OFFCURVE",
"40 150 CURVE SMOOTH",
"40 20 OFFCURVE",
"110 -10 OFFCURVE",
"195 -10 CURVE SMOOTH",
"250 -10 OFFCURVE",
"284 10 OFFCURVE",
"305 30 CURVE",
"310 30 LINE",
"325 0 LINE"
);
},
{
closed = 1;
nodes = (
"290 80 LINE",
"280 70 OFFCURVE",
"260 60 OFFCURVE",
"235 60 CURVE SMOOTH",
"200 60 OFFCURVE",
"160 80 OFFCURVE",
"160 150 CURVE SMOOTH",
"160 220 OFFCURVE",
"200 240 OFFCURVE",
"235 240 CURVE SMOOTH",
"290 240 LINE"
);
}
);
width = 471;
}
);
leftKerningGroup = a;
rightKerningGroup = n;
unicode = 0105;
},
{
color = 4;
glyphname = aring;
lastChange = "2016-09-02 12:49:06 +0000";
layers = (
{
hints = (
{
place = "{45, 90}";
},
{
place = "{145, 50}";
},
{
place = "{265, 50}";
},
{
place = "{295, 90}";
},
{
horizontal = 1;
place = "{-10, 60}";
},
{
horizontal = 1;
place = "{245, 60}";
},
{
horizontal = 1;
place = "{450, 60}";
},
{
horizontal = 1;
place = "{540, 45}";
},
{
horizontal = 1;
place = "{655, 45}";
},
{
horizontal = 1;
place = "{0, 21}";
target = up;
type = BottomGhost;
}
);
layerId = UUID0;
paths = (
{
closed = 1;
nodes = (
"295 70 LINE",
"280 60 OFFCURVE",
"250 50 OFFCURVE",
"225 50 CURVE SMOOTH",
"175 50 OFFCURVE",
"135 70 OFFCURVE",
"135 150 CURVE SMOOTH",
"135 225 OFFCURVE",
"175 245 OFFCURVE",
"225 245 CURVE SMOOTH",
"295 245 LINE"
);
},
{
closed = 1;
nodes = (
"235 -10 OFFCURVE",
"275 5 OFFCURVE",
"300 30 CURVE",
"305 30 LINE",
"310 0 LINE",
"385 0 LINE",
"385 340 LINE SMOOTH",
"385 480 OFFCURVE",
"325 510 OFFCURVE",
"205 510 CURVE SMOOTH",
"165 510 OFFCURVE",
"115 500 OFFCURVE",
"85 490 CURVE",
"85 450 LINE",
"185 450 LINE SMOOTH",
"255 450 OFFCURVE",
"295 430 OFFCURVE",
"295 340 CURVE SMOOTH",
"295 295 LINE",
"265 300 OFFCURVE",
"225 305 OFFCURVE",
"195 305 CURVE SMOOTH",
"105 305 OFFCURVE",
"45 275 OFFCURVE",
"45 150 CURVE SMOOTH",
"45 20 OFFCURVE",
"105 -10 OFFCURVE",
"195 -10 CURVE SMOOTH"
);
},
{
closed = 1;
nodes = (
"265 595 OFFCURVE",
"250 585 OFFCURVE",
"230 585 CURVE SMOOTH",
"210 585 OFFCURVE",
"195 595 OFFCURVE",
"195 620 CURVE SMOOTH",
"195 645 OFFCURVE",
"210 655 OFFCURVE",
"230 655 CURVE SMOOTH",
"250 655 OFFCURVE",
"265 645 OFFCURVE",
"265 620 CURVE SMOOTH"
);
},
{
closed = 1;
nodes = (
"315 670 OFFCURVE",
"280 700 OFFCURVE",
"230 700 CURVE SMOOTH",
"180 700 OFFCURVE",
"145 670 OFFCURVE",
"145 620 CURVE SMOOTH",
"145 570 OFFCURVE",
"180 540 OFFCURVE",
"230 540 CURVE SMOOTH",
"280 540 OFFCURVE",
"315 570 OFFCURVE",
"315 620 CURVE SMOOTH"
);
}
);
width = 450;
},
{
hints = (
{
place = "{40, 120}";
},
{
place = "{145, 65}";
},
{
place = "{270, 65}";
},
{
place = "{290, 120}";
},
{
horizontal = 1;
place = "{-10, 70}";
},
{
horizontal = 1;
place = "{240, 70}";
},
{
horizontal = 1;
place = "{440, 70}";
},
{
horizontal = 1;
place = "{535, 55}";
},
{
horizontal = 1;
place = "{650, 55}";
},
{
horizontal = 1;
place = "{0, 21}";
target = up;
type = BottomGhost;
}
);
layerId = "2A85124F-80FE-40EA-AF86-869CC9CBC980";
paths = (
{
closed = 1;
nodes = (
"290 80 LINE",
"280 70 OFFCURVE",
"260 60 OFFCURVE",
"235 60 CURVE SMOOTH",
"200 60 OFFCURVE",
"160 80 OFFCURVE",
"160 150 CURVE SMOOTH",
"160 220 OFFCURVE",
"200 240 OFFCURVE",
"235 240 CURVE SMOOTH",
"290 240 LINE"
);
},
{
closed = 1;
nodes = (
"250 -10 OFFCURVE",
"284 10 OFFCURVE",
"305 30 CURVE",
"310 30 LINE",
"325 0 LINE",
"410 0 LINE",
"410 340 LINE SMOOTH",
"410 480 OFFCURVE",
"340 510 OFFCURVE",
"205 510 CURVE SMOOTH",
"165 510 OFFCURVE",
"115 500 OFFCURVE",
"85 490 CURVE",
"85 440 LINE",
"185 440 LINE SMOOTH",
"250 440 OFFCURVE",
"290 420 OFFCURVE",
"290 340 CURVE SMOOTH",
"290 300 LINE",
"265 305 OFFCURVE",
"235 310 OFFCURVE",
"205 310 CURVE SMOOTH",
"110 310 OFFCURVE",
"40 280 OFFCURVE",
"40 150 CURVE SMOOTH",
"40 20 OFFCURVE",
"110 -10 OFFCURVE",
"195 -10 CURVE SMOOTH"
);
},
{
closed = 1;
nodes = (
"270 600 OFFCURVE",
"255 590 OFFCURVE",
"240 590 CURVE SMOOTH",
"225 590 OFFCURVE",
"210 600 OFFCURVE",
"210 620 CURVE SMOOTH",
"210 640 OFFCURVE",
"225 650 OFFCURVE",
"240 650 CURVE SMOOTH",
"255 650 OFFCURVE",
"270 640 OFFCURVE",
"270 620 CURVE SMOOTH"
);
},
{
closed = 1;
nodes = (
"335 670 OFFCURVE",
"295 705 OFFCURVE",
"240 705 CURVE SMOOTH",
"185 705 OFFCURVE",
"145 670 OFFCURVE",
"145 620 CURVE SMOOTH",
"145 570 OFFCURVE",
"185 535 OFFCURVE",
"240 535 CURVE SMOOTH",
"295 535 OFFCURVE",
"335 570 OFFCURVE",
"335 620 CURVE SMOOTH"
);
}
);
width = 475;
}
);
leftKerningGroup = a;
rightKerningGroup = n;
unicode = 00E5;
},
{
color = 4;
glyphname = atilde;
lastChange = "2016-09-02 12:49:06 +0000";
layers = (
{
hints = (
{
place = "{45, 90}";
},
{
place = "{110, 50}";
},
{
place = "{295, 55}";
},
{
place = "{295, 90}";
},
{
horizontal = 1;
place = "{-10, 60}";
},
{
horizontal = 1;
place = "{245, 60}";
},
{
horizontal = 1;
place = "{450, 60}";
},
{
horizontal = 1;
place = "{565, 60}";
},
{
horizontal = 1;
place = "{625, 60}";
},
{
horizontal = 1;
place = "{0, 21}";
target = up;
type = BottomGhost;
}
);
layerId = UUID0;
paths = (
{
closed = 1;
nodes = (
"295 70 LINE",
"280 60 OFFCURVE",
"250 50 OFFCURVE",
"225 50 CURVE SMOOTH",
"175 50 OFFCURVE",
"135 70 OFFCURVE",
"135 150 CURVE SMOOTH",
"135 225 OFFCURVE",
"175 245 OFFCURVE",
"225 245 CURVE SMOOTH",
"295 245 LINE"
);
},
{
closed = 1;
nodes = (
"235 -10 OFFCURVE",
"275 5 OFFCURVE",
"300 30 CURVE",
"305 30 LINE",
"310 0 LINE",
"385 0 LINE",
"385 340 LINE SMOOTH",
"385 480 OFFCURVE",
"325 510 OFFCURVE",
"205 510 CURVE SMOOTH",
"165 510 OFFCURVE",
"115 500 OFFCURVE",
"85 490 CURVE",
"85 450 LINE",
"185 450 LINE SMOOTH",
"255 450 OFFCURVE",
"295 430 OFFCURVE",
"295 340 CURVE SMOOTH",
"295 295 LINE",
"265 300 OFFCURVE",
"225 305 OFFCURVE",
"195 305 CURVE SMOOTH",
"105 305 OFFCURVE",
"45 275 OFFCURVE",
"45 150 CURVE SMOOTH",
"45 20 OFFCURVE",
"105 -10 OFFCURVE",
"195 -10 CURVE SMOOTH"
);
},
{
closed = 1;
nodes = (
"350 580 LINE",
"350 655 OFFCURVE",
"325 685 OFFCURVE",
"275 685 CURVE SMOOTH",
"225 685 OFFCURVE",
"210 625 OFFCURVE",
"185 625 CURVE SMOOTH",
"170 625 OFFCURVE",
"160 640 OFFCURVE",
"160 670 CURVE",
"110 670 LINE",
"110 595 OFFCURVE",
"135 565 OFFCURVE",
"185 565 CURVE SMOOTH",
"235 565 OFFCURVE",
"250 625 OFFCURVE",
"275 625 CURVE SMOOTH",
"290 625 OFFCURVE",
"300 610 OFFCURVE",
"300 580 CURVE"
);
}
);
width = 450;
},
{
hints = (
{
place = "{40, 120}";
},
{
place = "{115, 250}";
},
{
place = "{290, 120}";
},
{
horizontal = 1;
place = "{-10, 70}";
},
{
horizontal = 1;
place = "{240, 70}";
},
{
horizontal = 1;
place = "{440, 70}";
},
{
horizontal = 1;
place = "{560, 80}";
},
{
horizontal = 1;
place = "{610, 30}";
},
{
horizontal = 1;
place = "{610, 80}";
},
{
horizontal = 1;
place = "{0, 21}";
target = up;
type = BottomGhost;
}
);
layerId = "2A85124F-80FE-40EA-AF86-869CC9CBC980";
paths = (
{
closed = 1;
nodes = (
"290 80 LINE",
"280 70 OFFCURVE",
"260 60 OFFCURVE",
"235 60 CURVE SMOOTH",
"200 60 OFFCURVE",
"160 80 OFFCURVE",
"160 150 CURVE SMOOTH",
"160 220 OFFCURVE",
"200 240 OFFCURVE",
"235 240 CURVE SMOOTH",
"290 240 LINE"
);
},
{
closed = 1;
nodes = (
"250 -10 OFFCURVE",
"284 10 OFFCURVE",
"305 30 CURVE",
"310 30 LINE",
"325 0 LINE",
"410 0 LINE",
"410 340 LINE SMOOTH",
"410 480 OFFCURVE",
"340 510 OFFCURVE",
"205 510 CURVE SMOOTH",
"165 510 OFFCURVE",
"115 500 OFFCURVE",
"85 490 CURVE",
"85 440 LINE",
"185 440 LINE SMOOTH",
"250 440 OFFCURVE",
"290 420 OFFCURVE",
"290 340 CURVE SMOOTH",
"290 300 LINE",
"265 305 OFFCURVE",
"235 310 OFFCURVE",
"205 310 CURVE SMOOTH",
"110 310 OFFCURVE",
"40 280 OFFCURVE",
"40 150 CURVE SMOOTH",
"40 20 OFFCURVE",
"110 -10 OFFCURVE",
"195 -10 CURVE SMOOTH"
);
},
{
closed = 1;
nodes = (
"365 570 LINE",
"365 660 OFFCURVE",
"335 690 OFFCURVE",
"290 690 CURVE SMOOTH",
"245 690 OFFCURVE",
"225 640 OFFCURVE",
"200 640 CURVE SMOOTH",
"185 640 OFFCURVE",
"175 655 OFFCURVE",
"175 680 CURVE",
"115 680 LINE",
"115 590 OFFCURVE",
"145 560 OFFCURVE",
"190 560 CURVE SMOOTH",
"235 560 OFFCURVE",
"255 610 OFFCURVE",
"280 610 CURVE SMOOTH",
"295 610 OFFCURVE",
"305 595 OFFCURVE",
"305 570 CURVE"
);
}
);
width = 475;
}
);
leftKerningGroup = a;
rightKerningGroup = n;
unicode = 00E3;
},
{
color = 4;
glyphname = ae;
lastChange = "2016-09-02 12:49:06 +0000";
layers = (
{
hints = (
{
place = "{45, 90}";
},
{
place = "{295, 90}";
},
{
place = "{555, 90}";
},
{
horizontal = 1;
place = "{-10, 60}";
},
{
horizontal = 1;
place = "{225, 60}";
},
{
horizontal = 1;
place = "{455, 55}";
}
);
layerId = UUID0;
paths = (
{
closed = 1;
nodes = (
"295 80 LINE",
"295 80 OFFCURVE",
"265 50 OFFCURVE",
"215 50 CURVE SMOOTH",
"175 50 OFFCURVE",
"135 70 OFFCURVE",
"135 140 CURVE SMOOTH",
"135 205 OFFCURVE",
"175 225 OFFCURVE",
"225 225 CURVE SMOOTH",
"295 225 LINE"
);
},
{
closed = 1;
nodes = (
"385 285 LINE",
"385 290 LINE SMOOTH",
"387 417 OFFCURVE",
"426 455 OFFCURVE",
"470 455 CURVE SMOOTH",
"515 455 OFFCURVE",
"555 415 OFFCURVE",
"555 285 CURVE"
);
},
{
closed = 1;
nodes = (
"295 275 LINE",
"265 280 OFFCURVE",
"225 285 OFFCURVE",
"195 285 CURVE SMOOTH",
"105 285 OFFCURVE",
"45 255 OFFCURVE",
"45 140 CURVE",
"45 20 OFFCURVE",
"105 -10 OFFCURVE",
"195 -10 CURVE SMOOTH",
"265 -10 OFFCURVE",
"315 15 OFFCURVE",
"345 60 CURVE",
"380 10 OFFCURVE",
"425 -10 OFFCURVE",
"505 -10 CURVE SMOOTH",
"545 -10 OFFCURVE",
"595 0 OFFCURVE",
"625 10 CURVE",
"625 50 LINE",
"525 50 LINE SMOOTH",
"427 50 OFFCURVE",
"387 88 OFFCURVE",
"385 210 CURVE SMOOTH",
"385 225 LINE",
"645 225 LINE",
"645 255 LINE SMOOTH",
"645 450 OFFCURVE",
"585 510 OFFCURVE",
"470 510 CURVE SMOOTH",
"415 510 OFFCURVE",
"370 485 OFFCURVE",
"345 440 CURVE",
"320 485 OFFCURVE",
"265 510 OFFCURVE",
"205 510 CURVE SMOOTH",
"165 510 OFFCURVE",
"115 500 OFFCURVE",
"85 490 CURVE",
"85 450 LINE",
"185 450 LINE SMOOTH",
"255 450 OFFCURVE",
"295 430 OFFCURVE",
"295 340 CURVE SMOOTH"
);
}
);
width = 690;
},
{
hints = (
{
place = "{40, 120}";
},
{
place = "{290, 120}";
},
{
place = "{550, 120}";
},
{
horizontal = 1;
place = "{-10, 70}";
},
{
horizontal = 1;
place = "{220, 70}";
},
{
horizontal = 1;
place = "{445, 65}";
}
);
layerId = "2A85124F-80FE-40EA-AF86-869CC9CBC980";
paths = (
{
closed = 1;
nodes = (
"290 80 LINE",
"280 70 OFFCURVE",
"260 60 OFFCURVE",
"235 60 CURVE SMOOTH",
"200 60 OFFCURVE",
"160 80 OFFCURVE",
"160 140 CURVE SMOOTH",
"160 200 OFFCURVE",
"200 220 OFFCURVE",
"235 220 CURVE SMOOTH",
"290 220 LINE"
);
},
{
closed = 1;
nodes = (
"410 290 LINE",
"410 415 OFFCURVE",
"440 445 OFFCURVE",
"480 445 CURVE SMOOTH",
"520 445 OFFCURVE",
"550 415 OFFCURVE",
"550 290 CURVE"
);
},
{
closed = 1;
nodes = (
"285 -10 OFFCURVE",
"325 15 OFFCURVE",
"355 50 CURVE",
"385 15 OFFCURVE",
"430 -10 OFFCURVE",
"515 -10 CURVE SMOOTH",
"565 -10 OFFCURVE",
"615 0 OFFCURVE",
"645 10 CURVE",
"645 60 LINE",
"535 60 LINE SMOOTH",
"450 60 OFFCURVE",
"410 100 OFFCURVE",
"410 220 CURVE",
"670 220 LINE",
"670 250 LINE SMOOTH",
"670 435 OFFCURVE",
"600 510 OFFCURVE",
"480 510 CURVE SMOOTH",
"425 510 OFFCURVE",
"385 485 OFFCURVE",
"355 450 CURVE",
"325 485 OFFCURVE",
"280 510 OFFCURVE",
"205 510 CURVE SMOOTH",
"165 510 OFFCURVE",
"115 500 OFFCURVE",
"85 490 CURVE",
"85 440 LINE",
"185 440 LINE SMOOTH",
"250 440 OFFCURVE",
"290 420 OFFCURVE",
"290 340 CURVE SMOOTH",
"290 280 LINE",
"265 285 OFFCURVE",
"235 290 OFFCURVE",
"205 290 CURVE SMOOTH",
"110 290 OFFCURVE",
"40 260 OFFCURVE",
"40 140 CURVE SMOOTH",
"40 20 OFFCURVE",
"110 -10 OFFCURVE",
"205 -10 CURVE SMOOTH"
);
}
);
width = 710;
}
);
leftKerningGroup = a;
rightKerningGroup = e;
unicode = 00E6;
},
{
color = 4;
glyphname = b;
lastChange = "2016-09-02 12:49:06 +0000";
layers = (
{
hints = (
{
place = "{70, 90}";
},
{
place = "{335, 90}";
},
{
horizontal = 1;
place = "{-10, 60}";
},
{
horizontal = 1;
place = "{450, 60}";
},
{
horizontal = 1;
place = "{700, -20}";
target = down;
type = TopGhost;
}
);
layerId = UUID0;
paths = (
{
closed = 1;
nodes = (
"160 700 LINE",
"70 700 LINE",
"70 20 LINE",
"120 0 OFFCURVE",
"170 -10 OFFCURVE",
"230 -10 CURVE SMOOTH",
"365 -10 OFFCURVE",
"425 50 OFFCURVE",
"425 250 CURVE SMOOTH",
"425 450 OFFCURVE",
"365 510 OFFCURVE",
"260 510 CURVE SMOOTH",
"220 510 OFFCURVE",
"190 500 OFFCURVE",
"160 485 CURVE"
);
},
{
closed = 1;
nodes = (
"160 430 LINE",
"175 440 OFFCURVE",
"205 450 OFFCURVE",
"230 450 CURVE SMOOTH",
"295 450 OFFCURVE",
"335 410 OFFCURVE",
"335 250 CURVE SMOOTH",
"335 90 OFFCURVE",
"295 50 OFFCURVE",
"230 50 CURVE SMOOTH",
"160 50 LINE"
);
}
);
width = 470;
},
{
hints = (
{
place = "{70, 120}";
},
{
place = "{335, 120}";
},
{
horizontal = 1;
place = "{-10, 70}";
},
{
horizontal = 1;
place = "{440, 70}";
},
{
horizontal = 1;
place = "{700, -20}";
target = down;
type = TopGhost;
}
);
layerId = "2A85124F-80FE-40EA-AF86-869CC9CBC980";
paths = (
{
closed = 1;
nodes = (
"190 700 LINE",
"70 700 LINE",
"70 20 LINE",
"120 0 OFFCURVE",
"165 -10 OFFCURVE",
"235 -10 CURVE SMOOTH",
"385 -10 OFFCURVE",
"455 60 OFFCURVE",
"455 250 CURVE SMOOTH",
"455 440 OFFCURVE",
"385 510 OFFCURVE",
"275 510 CURVE SMOOTH",
"240 510 OFFCURVE",
"211 500 OFFCURVE",
"190 485 CURVE"
);
},
{
closed = 1;
nodes = (
"190 420 LINE",
"200 430 OFFCURVE",
"220 440 OFFCURVE",
"245 440 CURVE SMOOTH",
"295 440 OFFCURVE",
"335 400 OFFCURVE",
"335 250 CURVE SMOOTH",
"335 100 OFFCURVE",
"295 60 OFFCURVE",
"235 60 CURVE SMOOTH",
"190 60 LINE"
);
}
);
width = 495;
}
);
leftKerningGroup = h;
rightKerningGroup = o;
unicode = 0062;
},
{
color = 4;
glyphname = c;
lastChange = "2016-09-02 12:49:06 +0000";
layers = (
{
hints = (
{
place = "{45, 90}";
},
{
horizontal = 1;
place = "{-10, 60}";
},
{
horizontal = 1;
place = "{450, 60}";
}
);
layerId = UUID0;
paths = (
{
closed = 1;
nodes = (
"350 450 LINE",
"350 490 LINE",
"320 500 OFFCURVE",
"270 510 OFFCURVE",
"230 510 CURVE SMOOTH",
"105 510 OFFCURVE",
"45 450 OFFCURVE",
"45 250 CURVE SMOOTH",
"45 50 OFFCURVE",
"105 -10 OFFCURVE",
"240 -10 CURVE SMOOTH",
"280 -10 OFFCURVE",
"330 0 OFFCURVE",
"360 10 CURVE",
"360 50 LINE",
"260 50 LINE SMOOTH",
"175 50 OFFCURVE",
"135 90 OFFCURVE",
"135 250 CURVE SMOOTH",
"135 410 OFFCURVE",
"175 450 OFFCURVE",
"250 450 CURVE SMOOTH"
);
}
);
width = 375;
},
{
hints = (
{
place = "{40, 120}";
},
{
horizontal = 1;
place = "{-10, 70}";
},
{
horizontal = 1;
place = "{440, 70}";
}
);
layerId = "2A85124F-80FE-40EA-AF86-869CC9CBC980";
paths = (
{
closed = 1;
nodes = (
"370 440 LINE",
"370 490 LINE",
"340 500 OFFCURVE",
"290 510 OFFCURVE",
"240 510 CURVE SMOOTH",
"110 510 OFFCURVE",
"40 440 OFFCURVE",
"40 250 CURVE SMOOTH",
"40 60 OFFCURVE",
"110 -10 OFFCURVE",
"250 -10 CURVE SMOOTH",
"300 -10 OFFCURVE",
"350 0 OFFCURVE",
"380 10 CURVE",
"380 60 LINE",
"270 60 LINE SMOOTH",
"200 60 OFFCURVE",
"160 100 OFFCURVE",
"160 250 CURVE SMOOTH",
"160 400 OFFCURVE",
"200 440 OFFCURVE",
"260 440 CURVE SMOOTH"
);
}
);
width = 395;
}
);
leftKerningGroup = o;
rightKerningGroup = c;
unicode = 0063;
},
{
color = 4;
glyphname = cacute;
lastChange = "2016-09-02 12:49:06 +0000";
layers = (
{
hints = (
{
place = "{45, 90}";
},
{
horizontal = 1;
place = "{-10, 60}";
},
{
horizontal = 1;
place = "{450, 60}";
},
{
horizontal = 1;
place = "{560, 130}";
}
);
layerId = UUID0;
paths = (
{
closed = 1;
nodes = (
"350 450 LINE",
"350 490 LINE",
"320 500 OFFCURVE",
"270 510 OFFCURVE",
"230 510 CURVE SMOOTH",
"105 510 OFFCURVE",
"45 450 OFFCURVE",
"45 250 CURVE SMOOTH",
"45 50 OFFCURVE",
"105 -10 OFFCURVE",
"240 -10 CURVE SMOOTH",
"280 -10 OFFCURVE",
"330 0 OFFCURVE",
"360 10 CURVE",
"360 50 LINE",
"260 50 LINE SMOOTH",
"175 50 OFFCURVE",
"135 90 OFFCURVE",
"135 250 CURVE SMOOTH",
"135 410 OFFCURVE",
"175 450 OFFCURVE",
"250 450 CURVE SMOOTH"
);
},
{
closed = 1;
nodes = (
"250 560 LINE",
"320 690 LINE",
"225 690 LINE",
"190 560 LINE"
);
}
);
width = 375;
},
{
hints = (
{
place = "{40, 120}";
},
{
horizontal = 1;
place = "{-10, 70}";
},
{
horizontal = 1;
place = "{440, 70}";
},
{
horizontal = 1;
place = "{560, 130}";
}
);
layerId = "2A85124F-80FE-40EA-AF86-869CC9CBC980";
paths = (
{
closed = 1;
nodes = (
"370 440 LINE",
"370 490 LINE",
"340 500 OFFCURVE",
"290 510 OFFCURVE",
"240 510 CURVE SMOOTH",
"110 510 OFFCURVE",
"40 440 OFFCURVE",
"40 250 CURVE SMOOTH",
"40 60 OFFCURVE",
"110 -10 OFFCURVE",
"250 -10 CURVE SMOOTH",
"300 -10 OFFCURVE",
"350 0 OFFCURVE",
"380 10 CURVE",
"380 60 LINE",
"270 60 LINE SMOOTH",
"200 60 OFFCURVE",
"160 100 OFFCURVE",
"160 250 CURVE SMOOTH",
"160 400 OFFCURVE",
"200 440 OFFCURVE",
"260 440 CURVE SMOOTH"
);
},
{
closed = 1;
nodes = (
"265 560 LINE",
"340 690 LINE",
"225 690 LINE",
"190 560 LINE"
);
}
);
width = 395;
}
);
leftKerningGroup = o;
rightKerningGroup = c;
unicode = 0107;
},
{
color = 4;
glyphname = ccaron;
lastChange = "2016-09-02 12:49:06 +0000";
layers = (
{
hints = (
{
place = "{45, 90}";
},
{
horizontal = 1;
place = "{-10, 60}";
},
{
horizontal = 1;
place = "{450, 60}";
},
{
horizontal = 1;
place = "{450, 240}";
}
);
layerId = UUID0;
paths = (
{
closed = 1;
nodes = (
"350 450 LINE",
"350 490 LINE",
"320 500 OFFCURVE",
"270 510 OFFCURVE",
"230 510 CURVE SMOOTH",
"105 510 OFFCURVE",
"45 450 OFFCURVE",
"45 250 CURVE SMOOTH",
"45 50 OFFCURVE",
"105 -10 OFFCURVE",
"240 -10 CURVE SMOOTH",
"280 -10 OFFCURVE",
"330 0 OFFCURVE",
"360 10 CURVE",
"360 50 LINE",
"260 50 LINE SMOOTH",
"175 50 OFFCURVE",
"135 90 OFFCURVE",
"135 250 CURVE SMOOTH",
"135 410 OFFCURVE",
"175 450 OFFCURVE",
"250 450 CURVE SMOOTH"
);
},
{
closed = 1;
nodes = (
"95 690 LINE",
"170 560 LINE",
"265 560 LINE",
"340 690 LINE",
"280 690 LINE",
"217 616 LINE",
"155 690 LINE"
);
}
);
width = 375;
},
{
hints = (
{
place = "{40, 120}";
},
{
horizontal = 1;
place = "{-10, 70}";
},
{
horizontal = 1;
place = "{440, 70}";
},
{
horizontal = 1;
place = "{440, 250}";
}
);
layerId = "2A85124F-80FE-40EA-AF86-869CC9CBC980";
paths = (
{
closed = 1;
nodes = (
"370 440 LINE",
"370 490 LINE",
"340 500 OFFCURVE",
"290 510 OFFCURVE",
"240 510 CURVE SMOOTH",
"110 510 OFFCURVE",
"40 440 OFFCURVE",
"40 250 CURVE SMOOTH",
"40 60 OFFCURVE",
"110 -10 OFFCURVE",
"250 -10 CURVE SMOOTH",
"300 -10 OFFCURVE",
"350 0 OFFCURVE",
"380 10 CURVE",
"380 60 LINE",
"270 60 LINE SMOOTH",
"200 60 OFFCURVE",
"160 100 OFFCURVE",
"160 250 CURVE SMOOTH",
"160 400 OFFCURVE",
"200 440 OFFCURVE",
"260 440 CURVE SMOOTH"
);
},
{
closed = 1;
nodes = (
"90 690 LINE",
"170 560 LINE",
"275 560 LINE",
"355 690 LINE",
"278 690 LINE",
"222 620 LINE",
"166 690 LINE"
);
}
);
width = 395;
}
);
leftKerningGroup = o;
rightKerningGroup = c;
unicode = 010D;
},
{
color = 4;
glyphname = ccedilla;
lastChange = "2016-09-02 12:49:06 +0000";
layers = (
{
hints = (
{
place = "{45, 90}";
},
{
place = "{180, 150}";
},
{
place = "{265, 65}";
},
{
horizontal = 1;
place = "{-165, 45}";
},
{
horizontal = 1;
place = "{-70, 45}";
},
{
horizontal = 1;
place = "{-10, 60}";
},
{
horizontal = 1;
place = "{450, 60}";
}
);
layerId = UUID0;
paths = (
{
closed = 1;
nodes = (
"230 -25 LINE",
"230 -10 LINE",
"240 -10 LINE SMOOTH",
"280 -10 OFFCURVE",
"330 0 OFFCURVE",
"360 10 CURVE",
"360 50 LINE",
"260 50 LINE SMOOTH",
"175 50 OFFCURVE",
"135 90 OFFCURVE",
"135 250 CURVE SMOOTH",
"135 410 OFFCURVE",
"175 450 OFFCURVE",
"250 450 CURVE SMOOTH",
"350 450 LINE",
"350 490 LINE",
"320 500 OFFCURVE",
"270 510 OFFCURVE",
"230 510 CURVE SMOOTH",
"105 510 OFFCURVE",
"45 450 OFFCURVE",
"45 250 CURVE SMOOTH",
"45 82 OFFCURVE",
"87 13 OFFCURVE",
"180 -4 CURVE",
"180 -70 LINE",
"235 -70 LINE SMOOTH",
"255 -70 OFFCURVE",
"265 -80 OFFCURVE",
"265 -95 CURVE SMOOTH",
"265 -110 OFFCURVE",
"255 -120 OFFCURVE",
"225 -120 CURVE SMOOTH",
"160 -120 LINE",
"160 -150 LINE",
"160 -150 OFFCURVE",
"190 -165 OFFCURVE",
"235 -165 CURVE SMOOTH",
"300 -165 OFFCURVE",
"330 -135 OFFCURVE",
"330 -95 CURVE SMOOTH",
"330 -55 OFFCURVE",
"300 -25 OFFCURVE",
"245 -25 CURVE SMOOTH"
);
}
);
width = 375;
},
{
hints = (
{
place = "{40, 120}";
},
{
place = "{180, 160}";
},
{
horizontal = 1;
place = "{-170, 49}";
},
{
horizontal = 1;
place = "{-79, 49}";
},
{
horizontal = 1;
place = "{-10, 70}";
},
{
horizontal = 1;
place = "{440, 70}";
},
{
horizontal = 1;
place = "{-9, 21}";
target = up;
type = BottomGhost;
}
);
layerId = "2A85124F-80FE-40EA-AF86-869CC9CBC980";
paths = (
{
closed = 1;
nodes = (
"235 -30 LINE",
"235 -10 LINE",
"234 -9 LINE",
"239 -9 OFFCURVE",
"244 -10 OFFCURVE",
"250 -10 CURVE SMOOTH",
"300 -10 OFFCURVE",
"350 0 OFFCURVE",
"380 10 CURVE",
"380 60 LINE",
"270 60 LINE SMOOTH",
"200 60 OFFCURVE",
"160 100 OFFCURVE",
"160 250 CURVE SMOOTH",
"160 400 OFFCURVE",
"200 440 OFFCURVE",
"260 440 CURVE SMOOTH",
"370 440 LINE",
"370 490 LINE",
"340 500 OFFCURVE",
"290 510 OFFCURVE",
"240 510 CURVE SMOOTH",
"110 510 OFFCURVE",
"40 440 OFFCURVE",
"40 250 CURVE SMOOTH",
"40 95 OFFCURVE",
"87 20 OFFCURVE",
"180 -2 CURVE",
"180 -79 LINE",
"235 -79 LINE SMOOTH",
"260 -79 OFFCURVE",
"265 -90 OFFCURVE",
"265 -100 CURVE SMOOTH",
"265 -111 OFFCURVE",
"260 -121 OFFCURVE",
"230 -121 CURVE SMOOTH",
"165 -121 LINE",
"165 -155 LINE",
"165 -155 OFFCURVE",
"190 -170 OFFCURVE",
"240 -170 CURVE SMOOTH",
"305 -170 OFFCURVE",
"340 -140 OFFCURVE",
"340 -100 CURVE SMOOTH",
"340 -60 OFFCURVE",
"310 -30 OFFCURVE",
"250 -30 CURVE SMOOTH"
);
}
);
width = 395;
}
);
leftKerningGroup = o;
rightKerningGroup = c;
unicode = 00E7;
},
{
color = 4;
glyphname = d;
lastChange = "2016-09-02 12:49:06 +0000";
layers = (
{
hints = (
{
place = "{45, 90}";
},
{
place = "{310, 90}";
},
{
horizontal = 1;
place = "{-10, 60}";
},
{
horizontal = 1;
place = "{450, 60}";
},
{
horizontal = 1;
place = "{0, 21}";
target = up;
type = BottomGhost;
},
{
horizontal = 1;
place = "{700, -20}";
target = down;
type = TopGhost;
}
);
layerId = UUID0;
paths = (
{
closed = 1;
nodes = (
"320 30 LINE",
"325 0 LINE",
"400 0 LINE",
"400 700 LINE",
"310 700 LINE",
"310 485 LINE",
"280 500 OFFCURVE",
"250 510 OFFCURVE",
"210 510 CURVE SMOOTH",
"105 510 OFFCURVE",
"45 450 OFFCURVE",
"45 250 CURVE SMOOTH",
"45 50 OFFCURVE",
"105 -10 OFFCURVE",
"210 -10 CURVE SMOOTH",
"250 -10 OFFCURVE",
"290 5 OFFCURVE",
"315 30 CURVE"
);
},
{
closed = 1;
nodes = (
"310 70 LINE",
"295 60 OFFCURVE",
"265 50 OFFCURVE",
"240 50 CURVE SMOOTH",
"175 50 OFFCURVE",
"135 90 OFFCURVE",
"135 250 CURVE",
"135 410 OFFCURVE",
"175 450 OFFCURVE",
"240 450 CURVE SMOOTH",
"265 450 OFFCURVE",
"295 440 OFFCURVE",
"310 430 CURVE"
);
}
);
width = 470;
},
{
hints = (
{
place = "{40, 120}";
},
{
place = "{305, 120}";
},
{
horizontal = 1;
place = "{-10, 70}";
},
{
horizontal = 1;
place = "{440, 70}";
},
{
horizontal = 1;
place = "{0, 21}";
target = up;
type = BottomGhost;
},
{
horizontal = 1;
place = "{700, -20}";
target = down;
type = TopGhost;
}
);
layerId = "2A85124F-80FE-40EA-AF86-869CC9CBC980";
paths = (
{
closed = 1;
nodes = (
"305 80 LINE",
"290 70 OFFCURVE",
"275 60 OFFCURVE",
"250 60 CURVE SMOOTH",
"200 60 OFFCURVE",
"160 100 OFFCURVE",
"160 250 CURVE SMOOTH",
"160 400 OFFCURVE",
"200 440 OFFCURVE",
"250 440 CURVE SMOOTH",
"275 440 OFFCURVE",
"295 430 OFFCURVE",
"305 420 CURVE"
);
},
{
closed = 1;
nodes = (
"265 -10 OFFCURVE",
"299 10 OFFCURVE",
"320 30 CURVE",
"325 30 LINE",
"340 0 LINE",
"425 0 LINE",
"425 700 LINE",
"305 700 LINE",
"305 485 LINE",
"284 500 OFFCURVE",
"255 510 OFFCURVE",
"220 510 CURVE SMOOTH",
"110 510 OFFCURVE",
"40 440 OFFCURVE",
"40 250 CURVE SMOOTH",
"40 60 OFFCURVE",
"110 -10 OFFCURVE",
"210 -10 CURVE SMOOTH"
);
}
);
width = 495;
}
);
leftKerningGroup = o;
rightKerningGroup = d;
unicode = 0064;
},
{
color = 4;
glyphname = eth;
lastChange = "2016-09-02 12:49:06 +0000";
layers = (
{
hints = (
{
place = "{40, 90}";
},
{
place = "{320, 90}";
},
{
horizontal = 1;
place = "{-10, 55}";
},
{
horizontal = 1;
place = "{380, 60}";
},
{
horizontal = 1;
place = "{710, -20}";
target = down;
type = TopGhost;
}
);
layerId = UUID0;
paths = (
{
closed = 1;
nodes = (
"390 670 LINE",
"345 705 LINE",
"291 641 LINE",
"238 679 OFFCURVE",
"168 702 OFFCURVE",
"80 710 CURVE",
"75 670 LINE",
"150 652 OFFCURVE",
"207 625 OFFCURVE",
"248 589 CURVE",
"190 520 LINE",
"235 485 LINE",
"285 545 LINE",
"308 509 OFFCURVE",
"320 466 OFFCURVE",
"320 415 CURVE",
"290 430 OFFCURVE",
"260 440 OFFCURVE",
"215 440 CURVE SMOOTH",
"100 440 OFFCURVE",
"40 380 OFFCURVE",
"40 215 CURVE SMOOTH",
"40 50 OFFCURVE",
"100 -10 OFFCURVE",
"225 -10 CURVE SMOOTH",
"350 -10 OFFCURVE",
"410 50 OFFCURVE",
"410 215 CURVE SMOOTH",
"410 360 LINE SMOOTH",
"410 466 OFFCURVE",
"384 546 OFFCURVE",
"333 603 CURVE"
);
},
{
closed = 1;
nodes = (
"320 215 LINE",
"320 85 OFFCURVE",
"280 45 OFFCURVE",
"225 45 CURVE SMOOTH",
"170 45 OFFCURVE",
"130 85 OFFCURVE",
"130 215 CURVE SMOOTH",
"130 340 OFFCURVE",
"170 380 OFFCURVE",
"245 380 CURVE SMOOTH",
"275 380 OFFCURVE",
"305 370 OFFCURVE",
"320 360 CURVE"
);
}
);
width = 455;
},
{
hints = (
{
place = "{40, 120}";
},
{
place = "{320, 120}";
},
{
horizontal = 1;
place = "{-10, 65}";
},
{
horizontal = 1;
place = "{370, 70}";
},
{
horizontal = 1;
place = "{717, -20}";
target = down;
type = TopGhost;
}
);
layerId = "2A85124F-80FE-40EA-AF86-869CC9CBC980";
paths = (
{
closed = 1;
nodes = (
"410 676 LINE",
"360 717 LINE",
"305 650 LINE",
"255 685 OFFCURVE",
"175 705 OFFCURVE",
"85 710 CURVE",
"79 660 LINE",
"150 650 OFFCURVE",
"215 620 OFFCURVE",
"250 590 CURVE",
"195 520 LINE",
"245 479 LINE",
"295 539 LINE",
"315 510 OFFCURVE",
"320 466 OFFCURVE",
"320 415 CURVE",
"300 430 OFFCURVE",
"270 440 OFFCURVE",
"230 440 CURVE SMOOTH",
"110 440 OFFCURVE",
"40 370 OFFCURVE",
"40 215 CURVE SMOOTH",
"40 60 OFFCURVE",
"110 -10 OFFCURVE",
"240 -10 CURVE SMOOTH",
"370 -10 OFFCURVE",
"440 60 OFFCURVE",
"440 215 CURVE SMOOTH",
"440 350 LINE SMOOTH",
"440 466 OFFCURVE",
"405 560 OFFCURVE",
"355 611 CURVE"
);
},
{
closed = 1;
nodes = (
"320 215 LINE SMOOTH",
"320 95 OFFCURVE",
"280 55 OFFCURVE",
"240 55 CURVE SMOOTH",
"200 55 OFFCURVE",
"160 95 OFFCURVE",
"160 215 CURVE SMOOTH",
"160 330 OFFCURVE",
"200 370 OFFCURVE",
"260 370 CURVE SMOOTH",
"290 370 OFFCURVE",
"310 360 OFFCURVE",
"320 350 CURVE"
);
}
);
width = 485;
}
);
leftKerningGroup = o;
rightKerningGroup = o;
unicode = 00F0;
},
{
color = 4;
glyphname = e;
lastChange = "2016-09-02 12:49:06 +0000";
layers = (
{
hints = (
{
place = "{45, 90}";
},
{
place = "{305, 90}";
},
{
horizontal = 1;
place = "{-10, 60}";
},
{
horizontal = 1;
place = "{220, 60}";
},
{
horizontal = 1;
place = "{455, 55}";
}
);
layerId = UUID0;
paths = (
{
closed = 1;
nodes = (
"395 250 LINE",
"395 450 OFFCURVE",
"335 510 OFFCURVE",
"220 510 CURVE SMOOTH",
"105 510 OFFCURVE",
"45 450 OFFCURVE",
"45 250 CURVE SMOOTH",
"45 50 OFFCURVE",
"105 -10 OFFCURVE",
"255 -10 CURVE SMOOTH",
"295 -10 OFFCURVE",
"345 0 OFFCURVE",
"375 10 CURVE",
"375 50 LINE",
"275 50 LINE SMOOTH",
"175 50 OFFCURVE",
"135 90 OFFCURVE",
"135 220 CURVE",
"395 220 LINE"
);
},
{
closed = 1;
nodes = (
"135 280 LINE",
"135 415 OFFCURVE",
"175 455 OFFCURVE",
"220 455 CURVE SMOOTH",
"265 455 OFFCURVE",
"305 415 OFFCURVE",
"305 280 CURVE"
);
}
);
width = 440;
},
{
hints = (
{
place = "{40, 120}";
},
{
place = "{300, 120}";
},
{
horizontal = 1;
place = "{-10, 70}";
},
{
horizontal = 1;
place = "{215, 70}";
},
{
horizontal = 1;
place = "{445, 65}";
}
);
layerId = "2A85124F-80FE-40EA-AF86-869CC9CBC980";
paths = (
{
closed = 1;
nodes = (
"420 250 LINE",
"420 440 OFFCURVE",
"350 510 OFFCURVE",
"230 510 CURVE SMOOTH",
"110 510 OFFCURVE",
"40 440 OFFCURVE",
"40 250 CURVE SMOOTH",
"40 60 OFFCURVE",
"110 -10 OFFCURVE",
"265 -10 CURVE SMOOTH",
"315 -10 OFFCURVE",
"365 0 OFFCURVE",
"395 10 CURVE",
"395 60 LINE",
"285 60 LINE SMOOTH",
"200 60 OFFCURVE",
"160 100 OFFCURVE",
"160 215 CURVE",
"420 215 LINE"
);
},
{
closed = 1;
nodes = (
"160 285 LINE",
"160 415 OFFCURVE",
"190 445 OFFCURVE",
"230 445 CURVE SMOOTH",
"270 445 OFFCURVE",
"300 415 OFFCURVE",
"300 285 CURVE"
);
}
);
width = 460;
}
);
leftKerningGroup = o;
rightKerningGroup = e;
unicode = 0065;
},
{
color = 4;
glyphname = eacute;
lastChange = "2016-09-02 12:49:06 +0000";
layers = (
{
hints = (
{
place = "{45, 90}";
},
{
place = "{305, 90}";
},
{
horizontal = 1;
place = "{-10, 60}";
},
{
horizontal = 1;
place = "{220, 60}";
},
{
horizontal = 1;
place = "{455, 55}";
},
{
horizontal = 1;
place = "{560, 130}";
}
);
layerId = UUID0;
paths = (
{
closed = 1;
nodes = (
"395 250 LINE",
"395 450 OFFCURVE",
"335 510 OFFCURVE",
"220 510 CURVE SMOOTH",
"105 510 OFFCURVE",
"45 450 OFFCURVE",
"45 250 CURVE SMOOTH",
"45 50 OFFCURVE",
"105 -10 OFFCURVE",
"255 -10 CURVE SMOOTH",
"295 -10 OFFCURVE",
"345 0 OFFCURVE",
"375 10 CURVE",
"375 50 LINE",
"275 50 LINE SMOOTH",
"175 50 OFFCURVE",
"135 90 OFFCURVE",
"135 220 CURVE",
"395 220 LINE"
);
},
{
closed = 1;
nodes = (
"135 280 LINE",
"135 415 OFFCURVE",
"175 455 OFFCURVE",
"220 455 CURVE SMOOTH",
"265 455 OFFCURVE",
"305 415 OFFCURVE",
"305 280 CURVE"
);
},
{
closed = 1;
nodes = (
"245 560 LINE",
"315 690 LINE",
"220 690 LINE",
"185 560 LINE"
);
}
);
width = 440;
},
{
hints = (
{
place = "{40, 120}";
},
{
place = "{300, 120}";
},
{
horizontal = 1;
place = "{-10, 70}";
},
{
horizontal = 1;
place = "{215, 70}";
},
{
horizontal = 1;
place = "{445, 65}";
},
{
horizontal = 1;
place = "{560, 130}";
}
);
layerId = "2A85124F-80FE-40EA-AF86-869CC9CBC980";
paths = (
{
closed = 1;
nodes = (
"420 250 LINE",
"420 440 OFFCURVE",
"350 510 OFFCURVE",
"230 510 CURVE SMOOTH",
"110 510 OFFCURVE",
"40 440 OFFCURVE",
"40 250 CURVE SMOOTH",
"40 60 OFFCURVE",
"110 -10 OFFCURVE",
"265 -10 CURVE SMOOTH",
"315 -10 OFFCURVE",
"365 0 OFFCURVE",
"395 10 CURVE",
"395 60 LINE",
"285 60 LINE SMOOTH",
"200 60 OFFCURVE",
"160 100 OFFCURVE",
"160 215 CURVE",
"420 215 LINE"
);
},
{
closed = 1;
nodes = (
"160 285 LINE",
"160 415 OFFCURVE",
"190 445 OFFCURVE",
"230 445 CURVE SMOOTH",
"270 445 OFFCURVE",
"300 415 OFFCURVE",
"300 285 CURVE"
);
},
{
closed = 1;
nodes = (
"260 560 LINE",
"335 690 LINE",
"220 690 LINE",
"185 560 LINE"
);
}
);
width = 460;
}
);
leftKerningGroup = o;
rightKerningGroup = e;
unicode = 00E9;
},
{
color = 4;
glyphname = ecircumflex;
lastChange = "2016-09-02 12:49:06 +0000";
layers = (
{
hints = (
{
place = "{45, 90}";
},
{
place = "{305, 90}";
},
{
horizontal = 1;
place = "{-10, 60}";
},
{
horizontal = 1;
place = "{220, 60}";
},
{
horizontal = 1;
place = "{455, 55}";
},
{
horizontal = 1;
place = "{455, 225}";
}
);
layerId = UUID0;
paths = (
{
closed = 1;
nodes = (
"395 250 LINE",
"395 450 OFFCURVE",
"335 510 OFFCURVE",
"220 510 CURVE SMOOTH",
"105 510 OFFCURVE",
"45 450 OFFCURVE",
"45 250 CURVE SMOOTH",
"45 50 OFFCURVE",
"105 -10 OFFCURVE",
"255 -10 CURVE SMOOTH",
"295 -10 OFFCURVE",
"345 0 OFFCURVE",
"375 10 CURVE",
"375 50 LINE",
"275 50 LINE SMOOTH",
"175 50 OFFCURVE",
"135 90 OFFCURVE",
"135 220 CURVE",
"395 220 LINE"
);
},
{
closed = 1;
nodes = (
"135 280 LINE",
"135 415 OFFCURVE",
"175 455 OFFCURVE",
"220 455 CURVE SMOOTH",
"265 455 OFFCURVE",
"305 415 OFFCURVE",
"305 280 CURVE"
);
},
{
closed = 1;
nodes = (
"160 550 LINE",
"222 624 LINE",
"285 550 LINE",
"345 550 LINE",
"270 680 LINE",
"175 680 LINE",
"100 550 LINE"
);
}
);
width = 440;
},
{
hints = (
{
place = "{40, 120}";
},
{
place = "{300, 120}";
},
{
horizontal = 1;
place = "{-10, 70}";
},
{
horizontal = 1;
place = "{215, 70}";
},
{
horizontal = 1;
place = "{445, 65}";
},
{
horizontal = 1;
place = "{445, 235}";
}
);
layerId = "2A85124F-80FE-40EA-AF86-869CC9CBC980";
paths = (
{
closed = 1;
nodes = (
"420 250 LINE",
"420 440 OFFCURVE",
"350 510 OFFCURVE",
"230 510 CURVE SMOOTH",
"110 510 OFFCURVE",
"40 440 OFFCURVE",
"40 250 CURVE SMOOTH",
"40 60 OFFCURVE",
"110 -10 OFFCURVE",
"265 -10 CURVE SMOOTH",
"315 -10 OFFCURVE",
"365 0 OFFCURVE",
"395 10 CURVE",
"395 60 LINE",
"285 60 LINE SMOOTH",
"200 60 OFFCURVE",
"160 100 OFFCURVE",
"160 215 CURVE",
"420 215 LINE"
);
},
{
closed = 1;
nodes = (
"160 285 LINE",
"160 415 OFFCURVE",
"190 445 OFFCURVE",
"230 445 CURVE SMOOTH",
"270 445 OFFCURVE",
"300 415 OFFCURVE",
"300 285 CURVE"
);
},
{
closed = 1;
nodes = (
"176 550 LINE",
"232 620 LINE",
"288 550 LINE",
"365 550 LINE",
"285 680 LINE",
"180 680 LINE",
"100 550 LINE"
);
}
);
width = 460;
}
);
leftKerningGroup = o;
rightKerningGroup = e;
unicode = 00EA;
},
{
color = 4;
glyphname = edieresis;
lastChange = "2016-09-02 12:49:06 +0000";
layers = (
{
hints = (
{
place = "{45, 90}";
},
{
place = "{95, 90}";
},
{
place = "{255, 90}";
},
{
place = "{305, 40}";
},
{
place = "{305, 90}";
},
{
horizontal = 1;
place = "{-10, 60}";
},
{
horizontal = 1;
place = "{220, 60}";
},
{
horizontal = 1;
place = "{455, 55}";
},
{
horizontal = 1;
place = "{570, 110}";
}
);
layerId = UUID0;
paths = (
{
closed = 1;
nodes = (
"395 250 LINE",
"395 450 OFFCURVE",
"335 510 OFFCURVE",
"220 510 CURVE SMOOTH",
"105 510 OFFCURVE",
"45 450 OFFCURVE",
"45 250 CURVE SMOOTH",
"45 50 OFFCURVE",
"105 -10 OFFCURVE",
"255 -10 CURVE SMOOTH",
"295 -10 OFFCURVE",
"345 0 OFFCURVE",
"375 10 CURVE",
"375 50 LINE",
"275 50 LINE SMOOTH",
"175 50 OFFCURVE",
"135 90 OFFCURVE",
"135 220 CURVE",
"395 220 LINE"
);
},
{
closed = 1;
nodes = (
"135 280 LINE",
"135 415 OFFCURVE",
"175 455 OFFCURVE",
"220 455 CURVE SMOOTH",
"265 455 OFFCURVE",
"305 415 OFFCURVE",
"305 280 CURVE"
);
},
{
closed = 1;
nodes = (
"95 680 LINE",
"95 570 LINE",
"185 570 LINE",
"185 680 LINE"
);
},
{
closed = 1;
nodes = (
"255 680 LINE",
"255 570 LINE",
"345 570 LINE",
"345 680 LINE"
);
}
);
width = 440;
},
{
hints = (
{
place = "{40, 120}";
},
{
place = "{95, 110}";
},
{
place = "{255, 110}";
},
{
place = "{300, 65}";
},
{
place = "{300, 120}";
},
{
horizontal = 1;
place = "{-10, 70}";
},
{
horizontal = 1;
place = "{215, 70}";
},
{
horizontal = 1;
place = "{445, 65}";
},
{
horizontal = 1;
place = "{560, 120}";
}
);
layerId = "2A85124F-80FE-40EA-AF86-869CC9CBC980";
paths = (
{
closed = 1;
nodes = (
"420 250 LINE",
"420 440 OFFCURVE",
"350 510 OFFCURVE",
"230 510 CURVE SMOOTH",
"110 510 OFFCURVE",
"40 440 OFFCURVE",
"40 250 CURVE SMOOTH",
"40 60 OFFCURVE",
"110 -10 OFFCURVE",
"265 -10 CURVE SMOOTH",
"315 -10 OFFCURVE",
"365 0 OFFCURVE",
"395 10 CURVE",
"395 60 LINE",
"285 60 LINE SMOOTH",
"200 60 OFFCURVE",
"160 100 OFFCURVE",
"160 215 CURVE",
"420 215 LINE"
);
},
{
closed = 1;
nodes = (
"160 285 LINE",
"160 415 OFFCURVE",
"190 445 OFFCURVE",
"230 445 CURVE SMOOTH",
"270 445 OFFCURVE",
"300 415 OFFCURVE",
"300 285 CURVE"
);
},
{
closed = 1;
nodes = (
"95 680 LINE",
"95 560 LINE",
"205 560 LINE",
"205 680 LINE"
);
},
{
closed = 1;
nodes = (
"255 680 LINE",
"255 560 LINE",
"365 560 LINE",
"365 680 LINE"
);
}
);
width = 460;
}
);
leftKerningGroup = o;
rightKerningGroup = e;
unicode = 00EB;
},
{
color = 4;
glyphname = edotaccent;
lastChange = "2016-09-02 12:49:06 +0000";
layers = (
{
hints = (
{
place = "{45, 90}";
},
{
place = "{175, 90}";
},
{
place = "{305, 90}";
},
{
horizontal = 1;
place = "{-10, 60}";
},
{
horizontal = 1;
place = "{220, 60}";
},
{
horizontal = 1;
place = "{455, 55}";
},
{
horizontal = 1;
place = "{570, 110}";
}
);
layerId = UUID0;
paths = (
{
closed = 1;
nodes = (
"395 250 LINE",
"395 450 OFFCURVE",
"335 510 OFFCURVE",
"220 510 CURVE SMOOTH",
"105 510 OFFCURVE",
"45 450 OFFCURVE",
"45 250 CURVE SMOOTH",
"45 50 OFFCURVE",
"105 -10 OFFCURVE",
"255 -10 CURVE SMOOTH",
"295 -10 OFFCURVE",
"345 0 OFFCURVE",
"375 10 CURVE",
"375 50 LINE",
"275 50 LINE SMOOTH",
"175 50 OFFCURVE",
"135 90 OFFCURVE",
"135 220 CURVE",
"395 220 LINE"
);
},
{
closed = 1;
nodes = (
"135 280 LINE",
"135 415 OFFCURVE",
"175 455 OFFCURVE",
"220 455 CURVE SMOOTH",
"265 455 OFFCURVE",
"305 415 OFFCURVE",
"305 280 CURVE"
);
},
{
closed = 1;
nodes = (
"175 680 LINE",
"175 570 LINE",
"265 570 LINE",
"265 680 LINE"
);
}
);
width = 440;
},
{
hints = (
{
place = "{40, 120}";
},
{
place = "{175, 110}";
},
{
place = "{300, 120}";
},
{
horizontal = 1;
place = "{-10, 70}";
},
{
horizontal = 1;
place = "{215, 70}";
},
{
horizontal = 1;
place = "{445, 65}";
},
{
horizontal = 1;
place = "{560, 120}";
}
);
layerId = "2A85124F-80FE-40EA-AF86-869CC9CBC980";
paths = (
{
closed = 1;
nodes = (
"420 250 LINE",
"420 440 OFFCURVE",
"350 510 OFFCURVE",
"230 510 CURVE SMOOTH",
"110 510 OFFCURVE",
"40 440 OFFCURVE",
"40 250 CURVE SMOOTH",
"40 60 OFFCURVE",
"110 -10 OFFCURVE",
"265 -10 CURVE SMOOTH",
"315 -10 OFFCURVE",
"365 0 OFFCURVE",
"395 10 CURVE",
"395 60 LINE",
"285 60 LINE SMOOTH",
"200 60 OFFCURVE",
"160 100 OFFCURVE",
"160 215 CURVE",
"420 215 LINE"
);
},
{
closed = 1;
nodes = (
"160 285 LINE",
"160 415 OFFCURVE",
"190 445 OFFCURVE",
"230 445 CURVE SMOOTH",
"270 445 OFFCURVE",
"300 415 OFFCURVE",
"300 285 CURVE"
);
},
{
closed = 1;
nodes = (
"175 680 LINE",
"175 560 LINE",
"285 560 LINE",
"285 680 LINE"
);
}
);
width = 460;
}
);
leftKerningGroup = o;
rightKerningGroup = e;
unicode = 0117;
},
